SplineFontDB: 3.2
FontName: Fascinate-Regular
FullName: Fascinate
FamilyName: Fascinate
Weight: Black
Copyright: Copyright (c) 2011 by Brian J. Bonislawsky DBA Astigmatic (AOETI) (astigma@astigmatic.com), with Reserved\nFont Name "Fascinate"
Version: 1.000
ItalicAngle: 0
UnderlinePosition: -205
UnderlineWidth: 102
Ascent: 1638
Descent: 410
InvalidEm: 0
sfntRevision: 0x00010000
LayerCount: 2
Layer: 0 1 "Back" 1
Layer: 1 1 "Fore" 0
XUID: [1021 214 -1571244977 20824]
StyleMap: 0x0040
FSType: 0
OS2Version: 3
OS2_WeightWidthSlopeOnly: 0
OS2_UseTypoMetrics: 0
CreationTime: 1322717880
ModificationTime: 1592169968
PfmFamily: 17
TTFWeight: 900
TTFWidth: 5
LineGap: 0
VLineGap: 0
Panose: 2 15 11 6 8 8 7 2 5 4
OS2TypoAscent: 2125
OS2TypoAOffset: 0
OS2TypoDescent: -591
OS2TypoDOffset: 0
OS2TypoLinegap: 0
OS2WinAscent: 2125
OS2WinAOffset: 0
OS2WinDescent: 591
OS2WinDOffset: 0
HheadAscent: 2125
HheadAOffset: 0
HheadDescent: -591
HheadDOffset: 0
OS2SubXSize: 1434
OS2SubYSize: 1331
OS2SubXOff: 0
OS2SubYOff: 287
OS2SupXSize: 1434
OS2SupYSize: 1331
OS2SupXOff: 0
OS2SupYOff: 977
OS2StrikeYSize: 102
OS2StrikeYPos: 512
OS2CapHeight: 1436
OS2XHeight: 1024
OS2Vendor: 'AOEF'
OS2CodePages: 00000093.00000000
OS2UnicodeRanges: a00000ef.4000004a.00000000.00000000
Lookup: 1 0 0 "'aalt' Access All Alternates in Latin lookup 0" { "'aalt' Access All Alternates in Latin lookup 0 subtable"  } ['aalt' ('latn' <'dflt' > ) ]
Lookup: 1 0 0 "'sups' Superscript in Latin lookup 1" { "'sups' Superscript in Latin lookup 1 subtable" ("superior") } ['sups' ('latn' <'dflt' > ) ]
Lookup: 4 0 1 "'liga' Standard Ligatures in Latin lookup 2" { "'liga' Standard Ligatures in Latin lookup 2 subtable"  } ['liga' ('latn' <'dflt' > ) ]
Lookup: 1 0 0 "'salt' Stylistic Alternatives in Latin lookup 3" { "'salt' Stylistic Alternatives in Latin lookup 3 subtable"  } ['salt' ('latn' <'dflt' > ) ]
Lookup: 6 0 0 "'ordn' Ordinals in Latin lookup 4" { "'ordn' Ordinals in Latin lookup 4 subtable"  } ['ordn' ('latn' <'dflt' > ) ]

StartChar: A
Encoding: 65 65 0
Width: 1249
Flags: W
LayerCount: 2
Fore
SplineSet
678 1436 m 2,0,1
 696 1436 696 1436 709 1431.5 c 128,-1,2
 722 1427 722 1427 732.5 1416 c 128,-1,3
 743 1405 743 1405 752 1387 c 128,-1,4
 761 1369 761 1369 771 1343 c 2,5,-1
 1230 117 l 2,6,7
 1235 103 1235 103 1237 92 c 128,-1,8
 1239 81 1239 81 1239 70 c 0,9,10
 1239 34 1239 34 1217.5 17 c 128,-1,11
 1196 0 1196 0 1172 0 c 2,12,-1
 605 0 l 2,13,14
 579 0 579 0 561.5 6.5 c 128,-1,15
 544 13 544 13 532 22 c 128,-1,16
 520 31 520 31 513.5 41 c 128,-1,17
 507 51 507 51 505 59 c 2,18,-1
 494 94 l 1,19,-1
 213 94 l 1,20,-1
 206 64 l 2,21,22
 203 49 203 49 199 37.5 c 128,-1,23
 195 26 195 26 189 17.5 c 128,-1,24
 183 9 183 9 172.5 4.5 c 128,-1,25
 162 0 162 0 145 0 c 2,26,-1
 42 0 l 2,27,28
 10 0 10 0 10 25 c 0,29,30
 10 34 10 34 13.5 46.5 c 128,-1,31
 17 59 17 59 23 76 c 2,32,-1
 441 1341 l 2,33,34
 456 1388 456 1388 475 1411 c 128,-1,35
 494 1434 494 1434 529 1436 c 2,36,-1
 678 1436 l 2,0,1
244 217 m 1,37,-1
 460 217 l 1,38,-1
 349 608 l 1,39,-1
 244 217 l 1,37,-1
EndSplineSet
EndChar

StartChar: B
Encoding: 66 66 1
Width: 1315
Flags: W
LayerCount: 2
Fore
SplineSet
92 1296 m 2,0,1
 92 1331 92 1331 98 1357 c 128,-1,2
 104 1383 104 1383 121 1400.5 c 128,-1,3
 138 1418 138 1418 168 1427 c 128,-1,4
 198 1436 198 1436 246 1436 c 2,5,-1
 692 1436 l 2,6,7
 801 1436 801 1436 902 1410 c 128,-1,8
 1003 1384 1003 1384 1081 1326 c 128,-1,9
 1159 1268 1159 1268 1206 1175.5 c 128,-1,10
 1253 1083 1253 1083 1253 950 c 0,11,12
 1253 764 1253 764 1193.5 648 c 128,-1,13
 1134 532 1134 532 1028 484 c 1,14,15
 1102 460 1102 460 1139 408.5 c 128,-1,16
 1176 357 1176 357 1176 285 c 0,17,18
 1176 192 1176 192 1133.5 136 c 128,-1,19
 1091 80 1091 80 1023 49.5 c 128,-1,20
 955 19 955 19 870.5 9.5 c 128,-1,21
 786 0 786 0 702 0 c 2,22,-1
 246 0 l 2,23,24
 198 0 198 0 168 9 c 128,-1,25
 138 18 138 18 121 35 c 128,-1,26
 104 52 104 52 98 78 c 128,-1,27
 92 104 92 104 92 139 c 2,28,-1
 92 1296 l 2,0,1
1112 934 m 0,29,30
 1112 1006 1112 1006 1096 1066.5 c 128,-1,31
 1080 1127 1080 1127 1047 1173 c 128,-1,32
 1014 1219 1014 1219 962 1249 c 128,-1,33
 910 1279 910 1279 838 1290 c 1,34,-1
 838 546 l 1,35,36
 910 556 910 556 962 590.5 c 128,-1,37
 1014 625 1014 625 1047 677 c 128,-1,38
 1080 729 1080 729 1096 795 c 128,-1,39
 1112 861 1112 861 1112 934 c 0,29,30
838 139 m 1,40,41
 942 143 942 143 988 181 c 128,-1,42
 1034 219 1034 219 1034 272 c 0,43,44
 1034 297 1034 297 1023.5 322 c 128,-1,45
 1013 347 1013 347 989.5 366.5 c 128,-1,46
 966 386 966 386 928.5 399 c 128,-1,47
 891 412 891 412 838 415 c 1,48,-1
 838 139 l 1,40,41
EndSplineSet
EndChar

StartChar: C
Encoding: 67 67 2
Width: 1248
Flags: W
LayerCount: 2
Fore
SplineSet
817 722 m 256,0,1
 817 599 817 599 827 509.5 c 128,-1,2
 837 420 837 420 853.5 357.5 c 128,-1,3
 870 295 870 295 892.5 256.5 c 128,-1,4
 915 218 915 218 939 196.5 c 128,-1,5
 963 175 963 175 987.5 167.5 c 128,-1,6
 1012 160 1012 160 1034 160 c 0,7,8
 1059 160 1059 160 1079 166.5 c 128,-1,9
 1099 173 1099 173 1115 181.5 c 128,-1,10
 1131 190 1131 190 1141.5 196.5 c 128,-1,11
 1152 203 1152 203 1158 203 c 0,12,13
 1166 203 1166 203 1172 194 c 2,14,-1
 1215 126 l 2,15,16
 1218 120 1218 120 1218 116 c 0,17,18
 1218 111 1218 111 1214 107.5 c 128,-1,19
 1210 104 1210 104 1207 101 c 0,20,21
 1176 77 1176 77 1128 52 c 128,-1,22
 1080 27 1080 27 1018.5 7 c 128,-1,23
 957 -13 957 -13 883 -26 c 128,-1,24
 809 -39 809 -39 727 -39 c 0,25,26
 652 -39 652 -39 573.5 -24.5 c 128,-1,27
 495 -10 495 -10 421 24.5 c 128,-1,28
 347 59 347 59 281.5 116 c 128,-1,29
 216 173 216 173 167 257.5 c 128,-1,30
 118 342 118 342 89.5 456.5 c 128,-1,31
 61 571 61 571 61 722 c 256,32,33
 61 873 61 873 89.5 987.5 c 128,-1,34
 118 1102 118 1102 167 1186.5 c 128,-1,35
 216 1271 216 1271 281.5 1328 c 128,-1,36
 347 1385 347 1385 421 1419.5 c 128,-1,37
 495 1454 495 1454 573.5 1468.5 c 128,-1,38
 652 1483 652 1483 727 1483 c 0,39,40
 809 1483 809 1483 883 1470 c 128,-1,41
 957 1457 957 1457 1018.5 1437 c 128,-1,42
 1080 1417 1080 1417 1128 1392 c 128,-1,43
 1176 1367 1176 1367 1207 1343 c 0,44,45
 1210 1340 1210 1340 1214 1336.5 c 128,-1,46
 1218 1333 1218 1333 1218 1328 c 0,47,48
 1218 1324 1218 1324 1215 1318 c 2,49,-1
 1172 1250 l 2,50,51
 1166 1241 1166 1241 1158 1241 c 0,52,53
 1152 1241 1152 1241 1141.5 1247.5 c 128,-1,54
 1131 1254 1131 1254 1115 1262.5 c 128,-1,55
 1099 1271 1099 1271 1079 1277.5 c 128,-1,56
 1059 1284 1059 1284 1034 1284 c 0,57,58
 1012 1284 1012 1284 987.5 1276.5 c 128,-1,59
 963 1269 963 1269 939 1247.5 c 128,-1,60
 915 1226 915 1226 892.5 1187.5 c 128,-1,61
 870 1149 870 1149 853.5 1086.5 c 128,-1,62
 837 1024 837 1024 827 934.5 c 128,-1,63
 817 845 817 845 817 722 c 256,0,1
EndSplineSet
EndChar

StartChar: D
Encoding: 68 68 3
Width: 1393
Flags: W
LayerCount: 2
Fore
SplineSet
92 1296 m 2,0,1
 92 1331 92 1331 98 1357 c 128,-1,2
 104 1383 104 1383 121 1400.5 c 128,-1,3
 138 1418 138 1418 168 1427 c 128,-1,4
 198 1436 198 1436 246 1436 c 2,5,-1
 727 1436 l 2,6,7
 802 1436 802 1436 876 1425.5 c 128,-1,8
 950 1415 950 1415 1017 1388 c 128,-1,9
 1084 1361 1084 1361 1141.5 1313.5 c 128,-1,10
 1199 1266 1199 1266 1241 1191 c 128,-1,11
 1283 1116 1283 1116 1307 1011 c 128,-1,12
 1331 906 1331 906 1331 764 c 0,13,14
 1331 597 1331 597 1305.5 475.5 c 128,-1,15
 1280 354 1280 354 1236.5 269 c 128,-1,16
 1193 184 1193 184 1133.5 131.5 c 128,-1,17
 1074 79 1074 79 1005.5 49.5 c 128,-1,18
 937 20 937 20 863.5 10 c 128,-1,19
 790 0 790 0 717 0 c 2,20,-1
 246 0 l 2,21,22
 198 0 198 0 168 9 c 128,-1,23
 138 18 138 18 121 35 c 128,-1,24
 104 52 104 52 98 78 c 128,-1,25
 92 104 92 104 92 139 c 2,26,-1
 92 1296 l 2,0,1
1190 743 m 0,27,28
 1190 867 1190 867 1170 969 c 128,-1,29
 1150 1071 1150 1071 1107 1143 c 128,-1,30
 1064 1215 1064 1215 997.5 1255 c 128,-1,31
 931 1295 931 1295 838 1296 c 1,32,-1
 838 139 l 1,33,34
 931 140 931 140 998 187.5 c 128,-1,35
 1065 235 1065 235 1107.5 317 c 128,-1,36
 1150 399 1150 399 1170 508.5 c 128,-1,37
 1190 618 1190 618 1190 743 c 0,27,28
EndSplineSet
EndChar

StartChar: E
Encoding: 69 69 4
Width: 1309
Flags: W
LayerCount: 2
Fore
SplineSet
838 934 m 1,0,-1
 838 123 l 1,1,2
 935 137 935 137 1016 148 c 0,3,4
 1050 153 1050 153 1084.5 157.5 c 128,-1,5
 1119 162 1119 162 1148 166 c 128,-1,6
 1177 170 1177 170 1198 172 c 128,-1,7
 1219 174 1219 174 1227 174 c 0,8,9
 1244 174 1244 174 1256 167.5 c 128,-1,10
 1268 161 1268 161 1268 141 c 2,11,-1
 1268 49 l 2,12,13
 1268 31 1268 31 1259 15.5 c 128,-1,14
 1250 0 1250 0 1216 0 c 2,15,-1
 244 0 l 2,16,17
 197 0 197 0 167.5 9 c 128,-1,18
 138 18 138 18 121 35 c 128,-1,19
 104 52 104 52 98 78 c 128,-1,20
 92 104 92 104 92 139 c 2,21,-1
 92 1262 l 2,22,23
 92 1319 92 1319 105 1353.5 c 128,-1,24
 118 1388 118 1388 142 1406.5 c 128,-1,25
 166 1425 166 1425 199.5 1430.5 c 128,-1,26
 233 1436 233 1436 274 1436 c 2,27,-1
 1178 1436 l 2,28,29
 1212 1436 1212 1436 1221.5 1420.5 c 128,-1,30
 1231 1405 1231 1405 1231 1386 c 2,31,-1
 1231 1315 l 2,32,33
 1231 1295 1231 1295 1220.5 1288.5 c 128,-1,34
 1210 1282 1210 1282 1193 1282 c 0,35,36
 1183 1282 1183 1282 1162.5 1284 c 128,-1,37
 1142 1286 1142 1286 1115 1289.5 c 128,-1,38
 1088 1293 1088 1293 1057 1297 c 128,-1,39
 1026 1301 1026 1301 995 1306 c 0,40,41
 923 1317 923 1317 838 1331 c 1,42,-1
 838 1077 l 1,43,-1
 1210 1077 l 2,44,45
 1231 1077 1231 1077 1231 1056 c 2,46,-1
 1231 956 l 2,47,48
 1231 934 1231 934 1210 934 c 2,49,-1
 838 934 l 1,0,-1
EndSplineSet
EndChar

StartChar: F
Encoding: 70 70 5
Width: 1272
Flags: W
LayerCount: 2
Fore
SplineSet
836 150 m 2,0,1
 836 127 836 127 830.5 101 c 128,-1,2
 825 75 825 75 808.5 52.5 c 128,-1,3
 792 30 792 30 762 15 c 128,-1,4
 732 0 732 0 684 0 c 2,5,-1
 244 0 l 2,6,7
 197 0 197 0 167.5 9 c 128,-1,8
 138 18 138 18 121 35 c 128,-1,9
 104 52 104 52 98 78 c 128,-1,10
 92 104 92 104 92 139 c 2,11,-1
 92 1262 l 2,12,13
 92 1319 92 1319 105 1353.5 c 128,-1,14
 118 1388 118 1388 142 1406.5 c 128,-1,15
 166 1425 166 1425 199.5 1430.5 c 128,-1,16
 233 1436 233 1436 274 1436 c 2,17,-1
 1203 1436 l 2,18,19
 1251 1436 1251 1436 1251 1386 c 2,20,-1
 1251 1294 l 2,21,22
 1251 1274 1251 1274 1239 1268 c 128,-1,23
 1227 1262 1227 1262 1210 1262 c 0,24,25
 1200 1262 1200 1262 1179 1265 c 128,-1,26
 1158 1268 1158 1268 1130 1272.5 c 128,-1,27
 1102 1277 1102 1277 1069.5 1283.5 c 128,-1,28
 1037 1290 1037 1290 1004 1296 c 0,29,30
 927 1311 927 1311 836 1331 c 1,31,-1
 836 1077 l 1,32,-1
 1208 1077 l 2,33,34
 1229 1077 1229 1077 1229 1056 c 2,35,-1
 1229 956 l 2,36,37
 1229 934 1229 934 1208 934 c 2,38,-1
 836 934 l 1,39,-1
 836 150 l 2,0,1
EndSplineSet
EndChar

StartChar: G
Encoding: 71 71 6
Width: 1356
Flags: W
LayerCount: 2
Fore
SplineSet
1034 1284 m 0,0,1
 1012 1284 1012 1284 987.5 1277 c 128,-1,2
 963 1270 963 1270 939 1250 c 128,-1,3
 915 1230 915 1230 892.5 1194.5 c 128,-1,4
 870 1159 870 1159 853.5 1101 c 128,-1,5
 837 1043 837 1043 827 960.5 c 128,-1,6
 817 878 817 878 817 764 c 0,7,8
 817 651 817 651 827 567 c 128,-1,9
 837 483 837 483 853.5 423 c 128,-1,10
 870 363 870 363 892.5 324.5 c 128,-1,11
 915 286 915 286 939 264 c 128,-1,12
 963 242 963 242 987.5 233.5 c 128,-1,13
 1012 225 1012 225 1034 225 c 0,14,15
 1064 225 1064 225 1090 238 c 1,16,-1
 1090 621 l 2,17,18
 1090 637 1090 637 1097 652.5 c 128,-1,19
 1104 668 1104 668 1130 668 c 2,20,-1
 1235 668 l 2,21,22
 1244 668 1244 668 1253 667 c 128,-1,23
 1262 666 1262 666 1269 661.5 c 128,-1,24
 1276 657 1276 657 1280 647.5 c 128,-1,25
 1284 638 1284 638 1284 621 c 2,26,-1
 1284 47 l 2,27,28
 1284 30 1284 30 1280 20.5 c 128,-1,29
 1276 11 1276 11 1269 6.5 c 128,-1,30
 1262 2 1262 2 1253 1 c 128,-1,31
 1244 0 1244 0 1235 0 c 2,32,-1
 1130 0 l 2,33,34
 1117 0 1117 0 1109.5 4 c 128,-1,35
 1102 8 1102 8 1097.5 15 c 128,-1,36
 1093 22 1093 22 1091.5 30.5 c 128,-1,37
 1090 39 1090 39 1090 47 c 2,38,-1
 1090 76 l 1,39,40
 1058 53 1058 53 1019 32 c 128,-1,41
 980 11 980 11 933.5 -5 c 128,-1,42
 887 -21 887 -21 833 -30 c 128,-1,43
 779 -39 779 -39 717 -39 c 0,44,45
 644 -39 644 -39 567 -26 c 128,-1,46
 490 -13 490 -13 417.5 20.5 c 128,-1,47
 345 54 345 54 280 112 c 128,-1,48
 215 170 215 170 166.5 259 c 128,-1,49
 118 348 118 348 89.5 472.5 c 128,-1,50
 61 597 61 597 61 764 c 0,51,52
 61 906 61 906 89.5 1014.5 c 128,-1,53
 118 1123 118 1123 167 1203 c 128,-1,54
 216 1283 216 1283 281.5 1337 c 128,-1,55
 347 1391 347 1391 421 1423.5 c 128,-1,56
 495 1456 495 1456 573.5 1469.5 c 128,-1,57
 652 1483 652 1483 727 1483 c 0,58,59
 809 1483 809 1483 883 1470 c 128,-1,60
 957 1457 957 1457 1018.5 1437 c 128,-1,61
 1080 1417 1080 1417 1128 1392 c 128,-1,62
 1176 1367 1176 1367 1207 1343 c 0,63,64
 1210 1340 1210 1340 1214 1336.5 c 128,-1,65
 1218 1333 1218 1333 1218 1328 c 0,66,67
 1218 1324 1218 1324 1215 1318 c 2,68,-1
 1172 1250 l 2,69,70
 1166 1241 1166 1241 1158 1241 c 0,71,72
 1152 1241 1152 1241 1141.5 1247.5 c 128,-1,73
 1131 1254 1131 1254 1115 1262.5 c 128,-1,74
 1099 1271 1099 1271 1079 1277.5 c 128,-1,75
 1059 1284 1059 1284 1034 1284 c 0,0,1
EndSplineSet
EndChar

StartChar: H
Encoding: 72 72 7
Width: 1356
Flags: W
LayerCount: 2
Fore
SplineSet
1008 524 m 1,0,-1
 838 524 l 1,1,-1
 838 162 l 2,2,3
 838 139 838 139 834 111 c 128,-1,4
 830 83 830 83 814 58.5 c 128,-1,5
 798 34 798 34 765 17 c 128,-1,6
 732 0 732 0 674 0 c 2,7,-1
 246 0 l 2,8,9
 198 0 198 0 168 9 c 128,-1,10
 138 18 138 18 121 35 c 128,-1,11
 104 52 104 52 98 78 c 128,-1,12
 92 104 92 104 92 139 c 2,13,-1
 92 1296 l 2,14,15
 92 1331 92 1331 98 1357 c 128,-1,16
 104 1383 104 1383 121 1400.5 c 128,-1,17
 138 1418 138 1418 168 1427 c 128,-1,18
 198 1436 198 1436 246 1436 c 2,19,-1
 692 1436 l 2,20,21
 750 1436 750 1436 780.5 1419 c 128,-1,22
 811 1402 811 1402 823.5 1376.5 c 128,-1,23
 836 1351 836 1351 837 1322.5 c 128,-1,24
 838 1294 838 1294 838 1270 c 2,25,-1
 838 668 l 1,26,-1
 1008 668 l 1,27,-1
 1008 1389 l 2,28,29
 1008 1406 1008 1406 1017 1421 c 128,-1,30
 1026 1436 1026 1436 1052 1436 c 2,31,-1
 1156 1436 l 2,32,33
 1165 1436 1165 1436 1173.5 1435 c 128,-1,34
 1182 1434 1182 1434 1188.5 1429.5 c 128,-1,35
 1195 1425 1195 1425 1198.5 1415.5 c 128,-1,36
 1202 1406 1202 1406 1202 1389 c 2,37,-1
 1202 668 l 1,38,-1
 1298 668 l 2,39,40
 1319 668 1319 668 1319 647 c 2,41,-1
 1319 546 l 2,42,43
 1319 524 1319 524 1298 524 c 2,44,-1
 1202 524 l 1,45,-1
 1202 47 l 2,46,47
 1202 30 1202 30 1198.5 20.5 c 128,-1,48
 1195 11 1195 11 1188.5 6.5 c 128,-1,49
 1182 2 1182 2 1173.5 1 c 128,-1,50
 1165 0 1165 0 1156 0 c 2,51,-1
 1049 0 l 2,52,53
 1023 0 1023 0 1015.5 15 c 128,-1,54
 1008 30 1008 30 1008 47 c 2,55,-1
 1008 524 l 1,0,-1
EndSplineSet
EndChar

StartChar: I
Encoding: 73 73 8
Width: 931
Flags: W
LayerCount: 2
Fore
SplineSet
92 1296 m 2,0,1
 92 1331 92 1331 98 1357 c 128,-1,2
 104 1383 104 1383 121 1400.5 c 128,-1,3
 138 1418 138 1418 168 1427 c 128,-1,4
 198 1436 198 1436 246 1436 c 2,5,-1
 692 1436 l 2,6,7
 750 1436 750 1436 780.5 1419 c 128,-1,8
 811 1402 811 1402 823.5 1376.5 c 128,-1,9
 836 1351 836 1351 837 1322.5 c 128,-1,10
 838 1294 838 1294 838 1270 c 2,11,-1
 838 162 l 2,12,13
 838 139 838 139 834 111 c 128,-1,14
 830 83 830 83 814 58.5 c 128,-1,15
 798 34 798 34 765 17 c 128,-1,16
 732 0 732 0 674 0 c 2,17,-1
 246 0 l 2,18,19
 198 0 198 0 168 9 c 128,-1,20
 138 18 138 18 121 35 c 128,-1,21
 104 52 104 52 98 78 c 128,-1,22
 92 104 92 104 92 139 c 2,23,-1
 92 1296 l 2,0,1
EndSplineSet
EndChar

StartChar: J
Encoding: 74 74 9
Width: 1106
Flags: W
LayerCount: 2
Fore
SplineSet
20 137 m 2,0,1
 20 150 20 150 24 153.5 c 128,-1,2
 28 157 28 157 34 157 c 0,3,4
 46 157 46 157 72.5 148 c 128,-1,5
 99 139 99 139 143 139 c 0,6,7
 268 139 268 139 268 294 c 2,8,-1
 268 1297 l 2,9,10
 268 1320 268 1320 271.5 1344.5 c 128,-1,11
 275 1369 275 1369 289.5 1389.5 c 128,-1,12
 304 1410 304 1410 333 1423 c 128,-1,13
 362 1436 362 1436 414 1436 c 2,14,-1
 860 1436 l 2,15,16
 908 1436 908 1436 938 1427 c 128,-1,17
 968 1418 968 1418 985 1400.5 c 128,-1,18
 1002 1383 1002 1383 1008 1357 c 128,-1,19
 1014 1331 1014 1331 1014 1296 c 2,20,-1
 1014 503 l 2,21,22
 1014 383 1014 383 987 295.5 c 128,-1,23
 960 208 960 208 914.5 148 c 128,-1,24
 869 88 869 88 809 51 c 128,-1,25
 749 14 749 14 684 -6 c 128,-1,26
 619 -26 619 -26 552.5 -32.5 c 128,-1,27
 486 -39 486 -39 427 -39 c 0,28,29
 294 -39 294 -39 197.5 -21.5 c 128,-1,30
 101 -4 101 -4 38 28 c 0,31,32
 33 30 33 30 26.5 36.5 c 128,-1,33
 20 43 20 43 20 60 c 2,34,-1
 20 137 l 2,0,1
EndSplineSet
EndChar

StartChar: K
Encoding: 75 75 10
Width: 1264
Flags: W
LayerCount: 2
Fore
SplineSet
92 1296 m 2,0,1
 92 1331 92 1331 98 1357 c 128,-1,2
 104 1383 104 1383 121 1400.5 c 128,-1,3
 138 1418 138 1418 168 1427 c 128,-1,4
 198 1436 198 1436 246 1436 c 2,5,-1
 692 1436 l 2,6,7
 744 1436 744 1436 773 1422.5 c 128,-1,8
 802 1409 802 1409 816.5 1388 c 128,-1,9
 831 1367 831 1367 834.5 1341.5 c 128,-1,10
 838 1316 838 1316 838 1293 c 2,11,-1
 838 1175 l 1,12,-1
 1088 1418 l 2,13,14
 1102 1432 1102 1432 1113 1439.5 c 128,-1,15
 1124 1447 1124 1447 1135 1447 c 0,16,17
 1145 1447 1145 1447 1152.5 1442 c 128,-1,18
 1160 1437 1160 1437 1169 1428 c 2,19,-1
 1225 1369 l 2,20,21
 1232 1361 1232 1361 1236 1354.5 c 128,-1,22
 1240 1348 1240 1348 1240 1340 c 0,23,24
 1240 1320 1240 1320 1216 1301 c 2,25,-1
 910 1062 l 1,26,27
 1052 1049 1052 1049 1117 980 c 128,-1,28
 1182 911 1182 911 1182 782 c 2,29,-1
 1182 47 l 2,30,31
 1182 30 1182 30 1177.5 20.5 c 128,-1,32
 1173 11 1173 11 1166.5 6.5 c 128,-1,33
 1160 2 1160 2 1151 1 c 128,-1,34
 1142 0 1142 0 1133 0 c 2,35,-1
 1049 0 l 2,36,37
 1023 0 1023 0 1015.5 15 c 128,-1,38
 1008 30 1008 30 1008 47 c 2,39,-1
 1008 793 l 2,40,41
 1008 839 1008 839 999.5 869 c 128,-1,42
 991 899 991 899 971 917.5 c 128,-1,43
 951 936 951 936 918.5 944.5 c 128,-1,44
 886 953 886 953 838 955 c 1,45,-1
 838 162 l 2,46,47
 838 139 838 139 834 111 c 128,-1,48
 830 83 830 83 814 58.5 c 128,-1,49
 798 34 798 34 765 17 c 128,-1,50
 732 0 732 0 674 0 c 2,51,-1
 246 0 l 2,52,53
 198 0 198 0 168 9 c 128,-1,54
 138 18 138 18 121 35 c 128,-1,55
 104 52 104 52 98 78 c 128,-1,56
 92 104 92 104 92 139 c 2,57,-1
 92 1296 l 2,0,1
EndSplineSet
EndChar

StartChar: L
Encoding: 76 76 11
Width: 1185
Flags: W
LayerCount: 2
Fore
SplineSet
92 1296 m 2,0,1
 92 1331 92 1331 98 1357 c 128,-1,2
 104 1383 104 1383 121 1400.5 c 128,-1,3
 138 1418 138 1418 168 1427 c 128,-1,4
 198 1436 198 1436 246 1436 c 2,5,-1
 692 1436 l 2,6,7
 750 1436 750 1436 780.5 1419 c 128,-1,8
 811 1402 811 1402 823.5 1376.5 c 128,-1,9
 836 1351 836 1351 837 1322.5 c 128,-1,10
 838 1294 838 1294 838 1270 c 2,11,-1
 838 137 l 1,12,13
 907 147 907 147 966 155 c 0,14,15
 991 158 991 158 1016.5 161.5 c 128,-1,16
 1042 165 1042 165 1063.5 168 c 128,-1,17
 1085 171 1085 171 1102 172.5 c 128,-1,18
 1119 174 1119 174 1127 174 c 0,19,20
 1144 174 1144 174 1154.5 167.5 c 128,-1,21
 1165 161 1165 161 1165 141 c 2,22,-1
 1165 49 l 2,23,24
 1165 31 1165 31 1149.5 15.5 c 128,-1,25
 1134 0 1134 0 1100 0 c 2,26,-1
 244 0 l 2,27,28
 197 0 197 0 167.5 9 c 128,-1,29
 138 18 138 18 121 35 c 128,-1,30
 104 52 104 52 98 78 c 128,-1,31
 92 104 92 104 92 139 c 2,32,-1
 92 1296 l 2,0,1
EndSplineSet
EndChar

StartChar: M
Encoding: 77 77 12
Width: 1790
Flags: W
LayerCount: 2
Fore
SplineSet
952 633 m 1,0,-1
 717 200 l 2,1,2
 702 172 702 172 681 153.5 c 128,-1,3
 660 135 660 135 623 135 c 0,4,5
 589 135 589 135 566.5 154 c 128,-1,6
 544 173 544 173 529 199 c 2,7,-1
 281 625 l 1,8,9
 287 490 287 490 292 376 c 0,10,11
 294 327 294 327 296 278 c 128,-1,12
 298 229 298 229 300 187 c 128,-1,13
 302 145 302 145 303.5 112.5 c 128,-1,14
 305 80 305 80 306 65 c 256,15,16
 307 50 307 50 305.5 38 c 128,-1,17
 304 26 304 26 298 17.5 c 128,-1,18
 292 9 292 9 281 4.5 c 128,-1,19
 270 0 270 0 251 0 c 2,20,-1
 141 0 l 2,21,22
 123 0 123 0 107.5 11.5 c 128,-1,23
 92 23 92 23 92 57 c 2,24,-1
 92 1329 l 2,25,26
 92 1348 92 1348 97.5 1367 c 128,-1,27
 103 1386 103 1386 116.5 1401.5 c 128,-1,28
 130 1417 130 1417 152 1426.5 c 128,-1,29
 174 1436 174 1436 206 1436 c 2,30,-1
 528 1436 l 2,31,32
 567 1436 567 1436 595 1422.5 c 128,-1,33
 623 1409 623 1409 643 1378 c 2,34,-1
 912 951 l 1,35,-1
 1092 1296 l 2,36,37
 1108 1327 1108 1327 1123 1352.5 c 128,-1,38
 1138 1378 1138 1378 1158.5 1396.5 c 128,-1,39
 1179 1415 1179 1415 1209.5 1425.5 c 128,-1,40
 1240 1436 1240 1436 1288 1436 c 2,41,-1
 1554 1436 l 2,42,43
 1592 1436 1592 1436 1619.5 1426 c 128,-1,44
 1647 1416 1647 1416 1664.5 1399 c 128,-1,45
 1682 1382 1682 1382 1690 1359 c 128,-1,46
 1698 1336 1698 1336 1698 1309 c 2,47,-1
 1698 139 l 2,48,49
 1698 108 1698 108 1693 82.5 c 128,-1,50
 1688 57 1688 57 1672.5 38.5 c 128,-1,51
 1657 20 1657 20 1628.5 10 c 128,-1,52
 1600 0 1600 0 1554 0 c 2,53,-1
 1092 0 l 2,54,55
 1051 0 1051 0 1024 9 c 128,-1,56
 997 18 997 18 981 35 c 128,-1,57
 965 52 965 52 958.5 78 c 128,-1,58
 952 104 952 104 952 139 c 2,59,-1
 952 633 l 1,0,-1
EndSplineSet
EndChar

StartChar: N
Encoding: 78 78 13
Width: 1380
Flags: W
LayerCount: 2
Fore
SplineSet
1239 1436 m 2,0,1
 1258 1436 1258 1436 1273 1424 c 128,-1,2
 1288 1412 1288 1412 1288 1378 c 2,3,-1
 1288 74 l 2,4,5
 1288 0 1288 0 1218 0 c 2,6,-1
 871 0 l 2,7,8
 838 0 838 0 816.5 13 c 128,-1,9
 795 26 795 26 778 43 c 2,10,-1
 266 578 l 1,11,12
 275 448 275 448 284 339 c 0,13,14
 287 292 287 292 291 246 c 128,-1,15
 295 200 295 200 298 160 c 128,-1,16
 301 120 301 120 303.5 90 c 128,-1,17
 306 60 306 60 307 47 c 0,18,19
 309 30 309 30 301.5 15 c 128,-1,20
 294 0 294 0 267 0 c 2,21,-1
 141 0 l 2,22,23
 123 0 123 0 107.5 11.5 c 128,-1,24
 92 23 92 23 92 57 c 2,25,-1
 92 1362 l 2,26,27
 92 1436 92 1436 174 1436 c 2,28,-1
 512 1436 l 2,29,30
 550 1436 550 1436 575.5 1420 c 128,-1,31
 601 1404 601 1404 627 1378 c 2,32,-1
 1114 895 l 1,33,34
 1104 1014 1104 1014 1096 1115 c 0,35,36
 1092 1158 1092 1158 1088.5 1201 c 128,-1,37
 1085 1244 1085 1244 1082 1281.5 c 128,-1,38
 1079 1319 1079 1319 1076.5 1347 c 128,-1,39
 1074 1375 1074 1375 1073 1389 c 0,40,41
 1071 1405 1071 1405 1079.5 1420.5 c 128,-1,42
 1088 1436 1088 1436 1119 1436 c 2,43,-1
 1239 1436 l 2,0,1
EndSplineSet
EndChar

StartChar: O
Encoding: 79 79 14
Width: 1454
Flags: W
LayerCount: 2
Fore
SplineSet
727 -39 m 256,0,1
 647 -39 647 -39 566.5 -25 c 128,-1,2
 486 -11 486 -11 412 23 c 128,-1,3
 338 57 338 57 274 113.5 c 128,-1,4
 210 170 210 170 162.5 254.5 c 128,-1,5
 115 339 115 339 88 454.5 c 128,-1,6
 61 570 61 570 61 723 c 0,7,8
 61 875 61 875 88 991 c 128,-1,9
 115 1107 115 1107 162.5 1191.5 c 128,-1,10
 210 1276 210 1276 274 1332 c 128,-1,11
 338 1388 338 1388 412 1421.5 c 128,-1,12
 486 1455 486 1455 566.5 1469 c 128,-1,13
 647 1483 647 1483 727 1483 c 256,14,15
 807 1483 807 1483 888 1469 c 128,-1,16
 969 1455 969 1455 1043 1421.5 c 128,-1,17
 1117 1388 1117 1388 1181 1332 c 128,-1,18
 1245 1276 1245 1276 1292 1191.5 c 128,-1,19
 1339 1107 1339 1107 1366 991 c 128,-1,20
 1393 875 1393 875 1393 723 c 256,21,22
 1393 571 1393 571 1366 455 c 128,-1,23
 1339 339 1339 339 1292 254.5 c 128,-1,24
 1245 170 1245 170 1181 113.5 c 128,-1,25
 1117 57 1117 57 1043 23 c 128,-1,26
 969 -11 969 -11 888 -25 c 128,-1,27
 807 -39 807 -39 727 -39 c 256,0,1
817 723 m 256,28,29
 817 598 817 598 835.5 514 c 128,-1,30
 854 430 854 430 885 379 c 128,-1,31
 916 328 916 328 954.5 306.5 c 128,-1,32
 993 285 993 285 1034 285 c 256,33,34
 1075 285 1075 285 1114 306.5 c 128,-1,35
 1153 328 1153 328 1183.5 379 c 128,-1,36
 1214 430 1214 430 1232.5 514 c 128,-1,37
 1251 598 1251 598 1251 723 c 256,38,39
 1251 848 1251 848 1232.5 932 c 128,-1,40
 1214 1016 1214 1016 1183.5 1067 c 128,-1,41
 1153 1118 1153 1118 1114 1139.5 c 128,-1,42
 1075 1161 1075 1161 1034 1161 c 256,43,44
 993 1161 993 1161 954.5 1139.5 c 128,-1,45
 916 1118 916 1118 885 1067 c 128,-1,46
 854 1016 854 1016 835.5 932 c 128,-1,47
 817 848 817 848 817 723 c 256,28,29
EndSplineSet
EndChar

StartChar: P
Encoding: 80 80 15
Width: 1294
Flags: W
LayerCount: 2
Fore
SplineSet
92 1296 m 2,0,1
 92 1331 92 1331 98 1357 c 128,-1,2
 104 1383 104 1383 121 1400.5 c 128,-1,3
 138 1418 138 1418 168 1427 c 128,-1,4
 198 1436 198 1436 246 1436 c 2,5,-1
 692 1436 l 2,6,7
 761 1436 761 1436 829 1427.5 c 128,-1,8
 897 1419 897 1419 959.5 1399 c 128,-1,9
 1022 1379 1022 1379 1075.5 1347 c 128,-1,10
 1129 1315 1129 1315 1168.5 1267.5 c 128,-1,11
 1208 1220 1208 1220 1230.5 1156.5 c 128,-1,12
 1253 1093 1253 1093 1253 1010 c 0,13,14
 1253 887 1253 887 1219.5 802.5 c 128,-1,15
 1186 718 1186 718 1129 663 c 128,-1,16
 1072 608 1072 608 996.5 579 c 128,-1,17
 921 550 921 550 838 537 c 1,18,-1
 838 162 l 2,19,20
 838 139 838 139 834 111 c 128,-1,21
 830 83 830 83 814 58.5 c 128,-1,22
 798 34 798 34 765 17 c 128,-1,23
 732 0 732 0 674 0 c 2,24,-1
 246 0 l 2,25,26
 198 0 198 0 168 9 c 128,-1,27
 138 18 138 18 121 35 c 128,-1,28
 104 52 104 52 98 78 c 128,-1,29
 92 104 92 104 92 139 c 2,30,-1
 92 1296 l 2,0,1
1112 995 m 0,31,32
 1112 1055 1112 1055 1096 1105.5 c 128,-1,33
 1080 1156 1080 1156 1047 1194 c 128,-1,34
 1014 1232 1014 1232 962 1257 c 128,-1,35
 910 1282 910 1282 838 1291 c 1,36,-1
 838 670 l 1,37,38
 910 681 910 681 962 710 c 128,-1,39
 1014 739 1014 739 1047 782 c 128,-1,40
 1080 825 1080 825 1096 879.5 c 128,-1,41
 1112 934 1112 934 1112 995 c 0,31,32
EndSplineSet
EndChar

StartChar: Q
Encoding: 81 81 16
Width: 1454
Flags: W
LayerCount: 2
Fore
SplineSet
727 -39 m 0,0,1
 647 -39 647 -39 566.5 -25 c 128,-1,2
 486 -11 486 -11 412 23 c 128,-1,3
 338 57 338 57 274 113.5 c 128,-1,4
 210 170 210 170 162.5 254.5 c 128,-1,5
 115 339 115 339 88 454.5 c 128,-1,6
 61 570 61 570 61 723 c 0,7,8
 61 875 61 875 88 991 c 128,-1,9
 115 1107 115 1107 162.5 1191.5 c 128,-1,10
 210 1276 210 1276 274 1332 c 128,-1,11
 338 1388 338 1388 412 1421.5 c 128,-1,12
 486 1455 486 1455 566.5 1469 c 128,-1,13
 647 1483 647 1483 727 1483 c 256,14,15
 807 1483 807 1483 888 1469 c 128,-1,16
 969 1455 969 1455 1043 1421.5 c 128,-1,17
 1117 1388 1117 1388 1181 1332 c 128,-1,18
 1245 1276 1245 1276 1292 1191.5 c 128,-1,19
 1339 1107 1339 1107 1366 991 c 128,-1,20
 1393 875 1393 875 1393 723 c 0,21,22
 1393 555 1393 555 1361 432.5 c 128,-1,23
 1329 310 1329 310 1273 223 c 1,24,-1
 1414 22 l 2,25,26
 1425 5 1425 5 1425 -7 c 0,27,28
 1425 -21 1425 -21 1415.5 -31.5 c 128,-1,29
 1406 -42 1406 -42 1394 -49 c 2,30,-1
 1331 -84 l 2,31,32
 1324 -88 1324 -88 1317 -90.5 c 128,-1,33
 1310 -93 1310 -93 1302 -93 c 0,34,35
 1290 -93 1290 -93 1279 -86 c 128,-1,36
 1268 -79 1268 -79 1259 -62 c 2,37,-1
 1169 103 l 1,38,39
 1122 63 1122 63 1069 36 c 128,-1,40
 1016 9 1016 9 959.5 -7.5 c 128,-1,41
 903 -24 903 -24 844 -31.5 c 128,-1,42
 785 -39 785 -39 727 -39 c 0,0,1
1078 449 m 2,43,44
 1102 464 1102 464 1122 437 c 2,45,-1
 1173 364 l 1,46,47
 1207 413 1207 413 1229 500.5 c 128,-1,48
 1251 588 1251 588 1251 723 c 0,49,50
 1251 848 1251 848 1232.5 932 c 128,-1,51
 1214 1016 1214 1016 1183.5 1067 c 128,-1,52
 1153 1118 1153 1118 1114 1139.5 c 128,-1,53
 1075 1161 1075 1161 1034 1161 c 256,54,55
 993 1161 993 1161 954.5 1139.5 c 128,-1,56
 916 1118 916 1118 885 1067 c 128,-1,57
 854 1016 854 1016 835.5 932 c 128,-1,58
 817 848 817 848 817 723 c 256,59,60
 817 598 817 598 835.5 514 c 128,-1,61
 854 430 854 430 885 379 c 128,-1,62
 916 328 916 328 954.5 306.5 c 128,-1,63
 993 285 993 285 1034 285 c 0,64,65
 1053 285 1053 285 1069 289 c 1,66,-1
 1020 380 l 2,67,68
 1013 393 1013 393 1015 404.5 c 128,-1,69
 1017 416 1017 416 1031 424 c 2,70,-1
 1078 449 l 2,43,44
EndSplineSet
EndChar

StartChar: R
Encoding: 82 82 17
Width: 1322
Flags: W
LayerCount: 2
Fore
SplineSet
997 272 m 1,0,1
 959 251 959 251 919.5 237 c 128,-1,2
 880 223 880 223 838 214 c 1,3,-1
 838 139 l 2,4,5
 838 107 838 107 831 81.5 c 128,-1,6
 824 56 824 56 806.5 38 c 128,-1,7
 789 20 789 20 760.5 10 c 128,-1,8
 732 0 732 0 689 0 c 2,9,-1
 246 0 l 2,10,11
 198 0 198 0 168 9 c 128,-1,12
 138 18 138 18 121 35 c 128,-1,13
 104 52 104 52 98 78 c 128,-1,14
 92 104 92 104 92 139 c 2,15,-1
 92 1296 l 2,16,17
 92 1331 92 1331 98 1357 c 128,-1,18
 104 1383 104 1383 121 1400.5 c 128,-1,19
 138 1418 138 1418 168 1427 c 128,-1,20
 198 1436 198 1436 246 1436 c 2,21,-1
 692 1436 l 2,22,23
 764 1436 764 1436 833.5 1424 c 128,-1,24
 903 1412 903 1412 965.5 1385.5 c 128,-1,25
 1028 1359 1028 1359 1080.5 1315 c 128,-1,26
 1133 1271 1133 1271 1171.5 1206.5 c 128,-1,27
 1210 1142 1210 1142 1231.5 1056 c 128,-1,28
 1253 970 1253 970 1253 858 c 0,29,30
 1253 762 1253 762 1241 684 c 128,-1,31
 1229 606 1229 606 1208 543 c 128,-1,32
 1187 480 1187 480 1157.5 431.5 c 128,-1,33
 1128 383 1128 383 1092 346 c 1,34,-1
 1292 82 l 2,35,36
 1302 68 1302 68 1302 55 c 0,37,38
 1302 40 1302 40 1291.5 29 c 128,-1,39
 1281 18 1281 18 1269 11 c 2,40,-1
 1209 -24 l 2,41,42
 1202 -28 1202 -28 1194.5 -30.5 c 128,-1,43
 1187 -33 1187 -33 1179 -33 c 0,44,45
 1168 -33 1168 -33 1157 -26 c 128,-1,46
 1146 -19 1146 -19 1137 -2 c 2,47,-1
 997 272 l 1,0,1
1112 840 m 0,48,49
 1112 930 1112 930 1096 1006 c 128,-1,50
 1080 1082 1080 1082 1047 1140 c 128,-1,51
 1014 1198 1014 1198 962 1236 c 128,-1,52
 910 1274 910 1274 838 1288 c 1,53,-1
 838 345 l 1,54,55
 910 361 910 361 962 403.5 c 128,-1,56
 1014 446 1014 446 1047 510 c 128,-1,57
 1080 574 1080 574 1096 657.5 c 128,-1,58
 1112 741 1112 741 1112 840 c 0,48,49
EndSplineSet
EndChar

StartChar: S
Encoding: 83 83 18
Width: 1293
Flags: W
LayerCount: 2
Fore
SplineSet
326 1092 m 2,0,1
 337 1201 337 1201 385 1274 c 128,-1,2
 433 1347 433 1347 504 1390.5 c 128,-1,3
 575 1434 575 1434 662 1452 c 128,-1,4
 749 1470 749 1470 838 1470 c 0,5,6
 911 1470 911 1470 981 1464 c 128,-1,7
 1051 1458 1051 1458 1110 1450 c 128,-1,8
 1169 1442 1169 1442 1212 1434 c 128,-1,9
 1255 1426 1255 1426 1275 1422 c 0,10,11
 1287 1419 1287 1419 1287 1411 c 0,12,13
 1287 1409 1287 1409 1285 1399 c 2,14,-1
 1270 1327 l 2,15,16
 1268 1320 1268 1320 1264.5 1318.5 c 128,-1,17
 1261 1317 1261 1317 1258 1317 c 0,18,19
 1214 1317 1214 1317 1182 1302 c 128,-1,20
 1150 1287 1150 1287 1129 1260 c 128,-1,21
 1108 1233 1108 1233 1097 1196 c 128,-1,22
 1086 1159 1086 1159 1082 1116 c 2,23,-1
 1022 389 l 2,24,25
 1014 301 1014 301 977 223 c 128,-1,26
 940 145 940 145 874 87 c 128,-1,27
 808 29 808 29 712 -5 c 128,-1,28
 616 -39 616 -39 492 -39 c 0,29,30
 409 -39 409 -39 332 -31 c 128,-1,31
 255 -23 255 -23 192 -12 c 128,-1,32
 129 -1 129 -1 83.5 9.5 c 128,-1,33
 38 20 38 20 18 25 c 0,34,35
 6 28 6 28 6 36 c 0,36,37
 6 37 6 37 8 47 c 2,38,-1
 25 123 l 2,39,40
 27 130 27 130 30.5 131.5 c 128,-1,41
 34 133 34 133 37 133 c 0,42,43
 81 133 81 133 118.5 146 c 128,-1,44
 156 159 156 159 184 189 c 128,-1,45
 212 219 212 219 230.5 267 c 128,-1,46
 249 315 249 315 256 385 c 2,47,-1
 326 1092 l 2,0,1
EndSplineSet
EndChar

StartChar: T
Encoding: 84 84 19
Width: 1413
Flags: W
LayerCount: 2
Fore
SplineSet
334 1290 m 1,0,1
 269 1276 269 1276 214 1265 c 0,2,3
 190 1260 190 1260 166.5 1256 c 128,-1,4
 143 1252 143 1252 122 1248.5 c 128,-1,5
 101 1245 101 1245 84.5 1243 c 128,-1,6
 68 1241 68 1241 60 1241 c 0,7,8
 43 1241 43 1241 31.5 1247.5 c 128,-1,9
 20 1254 20 1254 20 1274 c 2,10,-1
 20 1386 l 2,11,12
 20 1405 20 1405 36 1420.5 c 128,-1,13
 52 1436 52 1436 86 1436 c 2,14,-1
 1327 1436 l 2,15,16
 1361 1436 1361 1436 1377 1420.5 c 128,-1,17
 1393 1405 1393 1405 1393 1386 c 2,18,-1
 1393 1274 l 2,19,20
 1393 1254 1393 1254 1381.5 1247.5 c 128,-1,21
 1370 1241 1370 1241 1353 1241 c 0,22,23
 1344 1241 1344 1241 1328 1243 c 128,-1,24
 1312 1245 1312 1245 1291 1248.5 c 128,-1,25
 1270 1252 1270 1252 1246.5 1256 c 128,-1,26
 1223 1260 1223 1260 1199 1265 c 0,27,28
 1144 1276 1144 1276 1079 1290 c 1,29,-1
 1079 137 l 2,30,31
 1079 103 1079 103 1073 77.5 c 128,-1,32
 1067 52 1067 52 1050.5 34.5 c 128,-1,33
 1034 17 1034 17 1005 8.5 c 128,-1,34
 976 0 976 0 931 0 c 2,35,-1
 485 0 l 2,36,37
 438 0 438 0 408.5 9 c 128,-1,38
 379 18 379 18 362.5 35 c 128,-1,39
 346 52 346 52 340 78 c 128,-1,40
 334 104 334 104 334 139 c 2,41,-1
 334 1290 l 1,0,1
EndSplineSet
EndChar

StartChar: U
Encoding: 85 85 20
Width: 1294
Flags: W
LayerCount: 2
Fore
SplineSet
1202 517 m 2,0,1
 1202 403 1202 403 1180 317.5 c 128,-1,2
 1158 232 1158 232 1119 170 c 128,-1,3
 1080 108 1080 108 1027 68 c 128,-1,4
 974 28 974 28 911.5 4 c 128,-1,5
 849 -20 849 -20 779.5 -29.5 c 128,-1,6
 710 -39 710 -39 639 -39 c 0,7,8
 571 -39 571 -39 503.5 -30.5 c 128,-1,9
 436 -22 436 -22 375.5 0 c 128,-1,10
 315 22 315 22 263 61 c 128,-1,11
 211 100 211 100 173 162 c 128,-1,12
 135 224 135 224 113.5 311 c 128,-1,13
 92 398 92 398 92 517 c 2,14,-1
 92 1296 l 2,15,16
 92 1331 92 1331 98 1357 c 128,-1,17
 104 1383 104 1383 121 1400.5 c 128,-1,18
 138 1418 138 1418 168 1427 c 128,-1,19
 198 1436 198 1436 246 1436 c 2,20,-1
 692 1436 l 2,21,22
 750 1436 750 1436 780.5 1419 c 128,-1,23
 811 1402 811 1402 823.5 1376.5 c 128,-1,24
 836 1351 836 1351 837 1322.5 c 128,-1,25
 838 1294 838 1294 838 1270 c 2,26,-1
 838 243 l 2,27,28
 838 228 838 228 846.5 221.5 c 128,-1,29
 855 215 855 215 863 215 c 0,30,31
 899 215 899 215 926 234.5 c 128,-1,32
 953 254 953 254 971 288 c 128,-1,33
 989 322 989 322 998.5 368 c 128,-1,34
 1008 414 1008 414 1008 467 c 2,35,-1
 1008 1389 l 2,36,37
 1008 1406 1008 1406 1015.5 1421 c 128,-1,38
 1023 1436 1023 1436 1049 1436 c 2,39,-1
 1153 1436 l 2,40,41
 1162 1436 1162 1436 1171 1435 c 128,-1,42
 1180 1434 1180 1434 1187 1429.5 c 128,-1,43
 1194 1425 1194 1425 1198 1415.5 c 128,-1,44
 1202 1406 1202 1406 1202 1389 c 2,45,-1
 1202 517 l 2,0,1
EndSplineSet
EndChar

StartChar: V
Encoding: 86 86 21
Width: 1229
Flags: W
LayerCount: 2
Fore
SplineSet
891 827 m 1,0,-1
 1029 1354 l 2,1,2
 1033 1372 1033 1372 1037 1387 c 128,-1,3
 1041 1402 1041 1402 1047.5 1413 c 128,-1,4
 1054 1424 1054 1424 1064.5 1430 c 128,-1,5
 1075 1436 1075 1436 1093 1436 c 2,6,-1
 1194 1436 l 2,7,8
 1209 1436 1209 1436 1218 1430 c 128,-1,9
 1227 1424 1227 1424 1227 1410 c 0,10,11
 1227 1391 1227 1391 1217 1360 c 2,12,-1
 799 94 l 2,13,14
 784 48 784 48 763.5 24 c 128,-1,15
 743 0 743 0 700 0 c 2,16,-1
 561 0 l 2,17,18
 538 0 538 0 523 9 c 128,-1,19
 508 18 508 18 497.5 31.5 c 128,-1,20
 487 45 487 45 480.5 61 c 128,-1,21
 474 77 474 77 469 92 c 2,22,-1
 10 1319 l 2,23,24
 0 1345 0 1345 0 1366 c 0,25,26
 0 1401 0 1401 22 1418.5 c 128,-1,27
 44 1436 44 1436 68 1436 c 2,28,-1
 635 1436 l 2,29,30
 660 1436 660 1436 677.5 1430.5 c 128,-1,31
 695 1425 695 1425 707 1414.5 c 128,-1,32
 719 1404 719 1404 727 1389.5 c 128,-1,33
 735 1375 735 1375 740 1358 c 2,34,-1
 891 827 l 1,0,-1
EndSplineSet
EndChar

StartChar: W
Encoding: 87 87 22
Width: 1884
Flags: W
LayerCount: 2
Fore
SplineSet
1524 729 m 1,0,-1
 1686 1354 l 2,1,2
 1690 1372 1690 1372 1694 1387 c 128,-1,3
 1698 1402 1698 1402 1704 1413 c 128,-1,4
 1710 1424 1710 1424 1720 1430 c 128,-1,5
 1730 1436 1730 1436 1747 1436 c 2,6,-1
 1846 1436 l 2,7,8
 1882 1436 1882 1436 1882 1410 c 0,9,10
 1882 1391 1882 1391 1872 1360 c 2,11,-1
 1475 94 l 2,12,13
 1461 47 1461 47 1438 23.5 c 128,-1,14
 1415 0 1415 0 1379 0 c 2,15,-1
 1237 0 l 2,16,17
 1215 0 1215 0 1199.5 9 c 128,-1,18
 1184 18 1184 18 1173.5 31.5 c 128,-1,19
 1163 45 1163 45 1156 61 c 128,-1,20
 1149 77 1149 77 1145 92 c 2,21,-1
 964 681 l 1,22,-1
 799 94 l 2,23,24
 786 47 786 47 764.5 23.5 c 128,-1,25
 743 0 743 0 708 0 c 2,26,-1
 541 0 l 2,27,28
 518 0 518 0 503 9 c 128,-1,29
 488 18 488 18 477.5 31.5 c 128,-1,30
 467 45 467 45 460.5 61.5 c 128,-1,31
 454 78 454 78 449 92 c 2,32,-1
 10 1319 l 2,33,34
 0 1345 0 1345 0 1368 c 0,35,36
 0 1403 0 1403 20 1419.5 c 128,-1,37
 40 1436 40 1436 69 1436 c 2,38,-1
 492 1436 l 2,39,40
 517 1436 517 1436 535 1429.5 c 128,-1,41
 553 1423 553 1423 565 1414 c 128,-1,42
 577 1405 577 1405 583 1394.5 c 128,-1,43
 589 1384 589 1384 592 1376 c 2,44,-1
 805 729 l 1,45,-1
 871 982 l 1,46,-1
 768 1319 l 2,47,48
 763 1333 763 1333 760.5 1346 c 128,-1,49
 758 1359 758 1359 758 1370 c 0,50,51
 758 1405 758 1405 777 1420.5 c 128,-1,52
 796 1436 796 1436 825 1436 c 2,53,-1
 1249 1436 l 2,54,55
 1274 1436 1274 1436 1291.5 1432 c 128,-1,56
 1309 1428 1309 1428 1320 1420.5 c 128,-1,57
 1331 1413 1331 1413 1338 1401.5 c 128,-1,58
 1345 1390 1345 1390 1350 1376 c 2,59,-1
 1524 729 l 1,0,-1
EndSplineSet
EndChar

StartChar: X
Encoding: 88 88 23
Width: 1368
Flags: W
LayerCount: 2
Fore
SplineSet
443 427 m 1,0,-1
 264 82 l 2,1,2
 255 65 255 65 247 50.5 c 128,-1,3
 239 36 239 36 228.5 24.5 c 128,-1,4
 218 13 218 13 204 6.5 c 128,-1,5
 190 0 190 0 170 0 c 2,6,-1
 55 0 l 2,7,8
 40 0 40 0 30.5 7.5 c 128,-1,9
 21 15 21 15 21 30 c 0,10,11
 21 48 21 48 37 76 c 2,12,-1
 349 634 l 1,13,-1
 39 1319 l 2,14,15
 27 1346 27 1346 27 1367 c 0,16,17
 27 1402 27 1402 49.5 1419 c 128,-1,18
 72 1436 72 1436 96 1436 c 2,19,-1
 664 1436 l 2,20,21
 689 1436 689 1436 706.5 1429.5 c 128,-1,22
 724 1423 724 1423 735.5 1414 c 128,-1,23
 747 1405 747 1405 753.5 1394.5 c 128,-1,24
 760 1384 760 1384 764 1376 c 2,25,-1
 888 1102 l 1,26,-1
 1018 1354 l 2,27,28
 1027 1370 1027 1370 1035 1385 c 128,-1,29
 1043 1400 1043 1400 1053.5 1411.5 c 128,-1,30
 1064 1423 1064 1423 1078 1429.5 c 128,-1,31
 1092 1436 1092 1436 1112 1436 c 2,32,-1
 1227 1436 l 2,33,34
 1243 1436 1243 1436 1252.5 1428.5 c 128,-1,35
 1262 1421 1262 1421 1262 1406 c 0,36,37
 1262 1389 1262 1389 1245 1360 c 2,38,-1
 983 891 l 1,39,-1
 1335 117 l 2,40,41
 1347 90 1347 90 1347 69 c 0,42,43
 1347 52 1347 52 1340.5 39 c 128,-1,44
 1334 26 1334 26 1324 17.5 c 128,-1,45
 1314 9 1314 9 1302 4.5 c 128,-1,46
 1290 0 1290 0 1278 0 c 2,47,-1
 711 0 l 2,48,49
 685 0 685 0 668 6.5 c 128,-1,50
 651 13 651 13 639.5 22 c 128,-1,51
 628 31 628 31 621 41 c 128,-1,52
 614 51 614 51 610 59 c 2,53,-1
 443 427 l 1,0,-1
EndSplineSet
EndChar

StartChar: Y
Encoding: 89 89 24
Width: 1229
Flags: W
LayerCount: 2
Fore
SplineSet
264 760 m 1,0,-1
 10 1319 l 2,1,2
 4 1333 4 1333 2 1344 c 128,-1,3
 0 1355 0 1355 0 1366 c 0,4,5
 0 1401 0 1401 22 1418.5 c 128,-1,6
 44 1436 44 1436 68 1436 c 2,7,-1
 614 1436 l 2,8,9
 639 1436 639 1436 657 1429.5 c 128,-1,10
 675 1423 675 1423 687 1414 c 128,-1,11
 699 1405 699 1405 705.5 1394.5 c 128,-1,12
 712 1384 712 1384 715 1376 c 2,13,-1
 891 893 l 1,14,-1
 1051 1354 l 2,15,16
 1057 1371 1057 1371 1062.5 1386 c 128,-1,17
 1068 1401 1068 1401 1075.5 1412 c 128,-1,18
 1083 1423 1083 1423 1094 1429.5 c 128,-1,19
 1105 1436 1105 1436 1123 1436 c 2,20,-1
 1215 1436 l 2,21,22
 1229 1436 1229 1436 1239 1430 c 128,-1,23
 1249 1424 1249 1424 1249 1410 c 0,24,25
 1249 1391 1249 1391 1237 1360 c 2,26,-1
 1010 782 l 1,27,-1
 1010 140 l 2,28,29
 1010 105 1010 105 1003 79 c 128,-1,30
 996 53 996 53 979.5 35.5 c 128,-1,31
 963 18 963 18 935.5 9 c 128,-1,32
 908 0 908 0 866 0 c 2,33,-1
 394 0 l 2,34,35
 355 0 355 0 330 9 c 128,-1,36
 305 18 305 18 290.5 35 c 128,-1,37
 276 52 276 52 270 78 c 128,-1,38
 264 104 264 104 264 139 c 2,39,-1
 264 760 l 1,0,-1
EndSplineSet
EndChar

StartChar: Z
Encoding: 90 90 25
Width: 1323
Flags: W
LayerCount: 2
Fore
SplineSet
106 1386 m 2,0,1
 106 1405 106 1405 118 1420.5 c 128,-1,2
 130 1436 130 1436 164 1436 c 2,3,-1
 1187 1436 l 2,4,5
 1225 1436 1225 1436 1245.5 1424 c 128,-1,6
 1266 1412 1266 1412 1266 1378 c 0,7,8
 1266 1358 1266 1358 1258 1332.5 c 128,-1,9
 1250 1307 1250 1307 1241 1284 c 2,10,-1
 807 154 l 1,11,12
 913 171 913 171 999 184 c 0,13,14
 1036 190 1036 190 1072 195.5 c 128,-1,15
 1108 201 1108 201 1138.5 205.5 c 128,-1,16
 1169 210 1169 210 1190.5 212.5 c 128,-1,17
 1212 215 1212 215 1219 215 c 0,18,19
 1236 215 1236 215 1249 208.5 c 128,-1,20
 1262 202 1262 202 1262 182 c 2,21,-1
 1262 49 l 2,22,23
 1262 31 1262 31 1250 15.5 c 128,-1,24
 1238 0 1238 0 1204 0 c 2,25,-1
 137 0 l 2,26,27
 88 0 88 0 71.5 18.5 c 128,-1,28
 55 37 55 37 55 61 c 0,29,30
 55 90 55 90 65 119.5 c 128,-1,31
 75 149 75 149 92 193 c 2,32,-1
 512 1282 l 1,33,34
 422 1264 422 1264 347 1251 c 0,35,36
 315 1245 315 1245 283 1240 c 128,-1,37
 251 1235 251 1235 224 1230.5 c 128,-1,38
 197 1226 197 1226 177 1223.5 c 128,-1,39
 157 1221 157 1221 149 1221 c 0,40,41
 132 1221 132 1221 119 1227 c 128,-1,42
 106 1233 106 1233 106 1253 c 2,43,-1
 106 1386 l 2,0,1
EndSplineSet
EndChar

StartChar: a
Encoding: 97 97 26
Width: 1290
Flags: W
LayerCount: 2
Fore
SplineSet
510 0 m 2,0,1
 456 0 456 0 401.5 7 c 128,-1,2
 347 14 347 14 297.5 29.5 c 128,-1,3
 248 45 248 45 205 70 c 128,-1,4
 162 95 162 95 130.5 132 c 128,-1,5
 99 169 99 169 81 219 c 128,-1,6
 63 269 63 269 63 334 c 0,7,8
 63 421 63 421 96 483 c 128,-1,9
 129 545 129 545 184.5 586 c 128,-1,10
 240 627 240 627 312 649 c 128,-1,11
 384 671 384 671 461 677 c 1,12,-1
 461 746 l 2,13,14
 461 785 461 785 451 808 c 128,-1,15
 441 831 441 831 425.5 842.5 c 128,-1,16
 410 854 410 854 391.5 857.5 c 128,-1,17
 373 861 373 861 356 861 c 0,18,19
 336 861 336 861 313.5 855 c 128,-1,20
 291 849 291 849 270 840.5 c 128,-1,21
 249 832 249 832 230 822 c 128,-1,22
 211 812 211 812 198 804 c 0,23,24
 192 800 192 800 187 797 c 128,-1,25
 182 794 182 794 177 794 c 0,26,27
 168 794 168 794 160 807 c 2,28,-1
 126 861 l 2,29,30
 121 868 121 868 121 876 c 256,31,32
 121 884 121 884 127.5 890 c 128,-1,33
 134 896 134 896 140 900 c 0,34,35
 173 923 173 923 224 947 c 128,-1,36
 275 971 275 971 338.5 990 c 128,-1,37
 402 1009 402 1009 476 1021 c 128,-1,38
 550 1033 550 1033 629 1033 c 0,39,40
 704 1033 704 1033 775.5 1028 c 128,-1,41
 847 1023 847 1023 910.5 1006.5 c 128,-1,42
 974 990 974 990 1026.5 959.5 c 128,-1,43
 1079 929 1079 929 1117.5 879 c 128,-1,44
 1156 829 1156 829 1177 756 c 128,-1,45
 1198 683 1198 683 1198 581 c 2,46,-1
 1198 135 l 2,47,48
 1198 102 1198 102 1192 76.5 c 128,-1,49
 1186 51 1186 51 1169 34 c 128,-1,50
 1152 17 1152 17 1122 8.5 c 128,-1,51
 1092 0 1092 0 1044 0 c 2,52,-1
 510 0 l 2,0,1
461 550 m 1,53,54
 389 550 389 550 340 532 c 128,-1,55
 291 514 291 514 261 484 c 128,-1,56
 231 454 231 454 218 414.5 c 128,-1,57
 205 375 205 375 205 333 c 256,58,59
 205 291 205 291 218 253.5 c 128,-1,60
 231 216 231 216 261 188 c 128,-1,61
 291 160 291 160 340 144 c 128,-1,62
 389 128 389 128 461 128 c 1,63,-1
 461 550 l 1,53,54
EndSplineSet
Substitution2: "Single Substitution lookup 6 subtable" ordfeminine
Substitution2: "'aalt' Access All Alternates in Latin lookup 0 subtable" ordfeminine
EndChar

StartChar: b
Encoding: 98 98 27
Width: 1319
Flags: W
LayerCount: 2
Fore
SplineSet
651 -20 m 0,0,1
 520 -20 520 -20 416 15 c 128,-1,2
 312 50 312 50 240 116.5 c 128,-1,3
 168 183 168 183 130 281 c 128,-1,4
 92 379 92 379 92 505 c 2,5,-1
 92 1501 l 2,6,7
 92 1535 92 1535 98 1561.5 c 128,-1,8
 104 1588 104 1588 121 1605 c 128,-1,9
 138 1622 138 1622 168 1631 c 128,-1,10
 198 1640 198 1640 246 1640 c 2,11,-1
 684 1640 l 2,12,13
 727 1640 727 1640 755 1631 c 128,-1,14
 783 1622 783 1622 799.5 1604.5 c 128,-1,15
 816 1587 816 1587 822.5 1560.5 c 128,-1,16
 829 1534 829 1534 829 1498 c 2,17,-1
 829 1024 l 1,18,19
 917 1008 917 1008 996.5 972.5 c 128,-1,20
 1076 937 1076 937 1136 875.5 c 128,-1,21
 1196 814 1196 814 1231 724 c 128,-1,22
 1266 634 1266 634 1266 508 c 0,23,24
 1266 403 1266 403 1241.5 323.5 c 128,-1,25
 1217 244 1217 244 1173.5 185 c 128,-1,26
 1130 126 1130 126 1071.5 87 c 128,-1,27
 1013 48 1013 48 944.5 24 c 128,-1,28
 876 0 876 0 801 -10 c 128,-1,29
 726 -20 726 -20 651 -20 c 0,0,1
829 122 m 1,30,31
 907 132 907 132 963 164.5 c 128,-1,32
 1019 197 1019 197 1054.5 248 c 128,-1,33
 1090 299 1090 299 1107 365 c 128,-1,34
 1124 431 1124 431 1124 508 c 0,35,36
 1124 584 1124 584 1107 651 c 128,-1,37
 1090 718 1090 718 1054 769 c 128,-1,38
 1018 820 1018 820 962.5 853 c 128,-1,39
 907 886 907 886 829 896 c 1,40,-1
 829 122 l 1,30,31
EndSplineSet
EndChar

StartChar: c
Encoding: 99 99 28
Width: 1206
Flags: W
LayerCount: 2
Fore
SplineSet
780 506 m 256,0,1
 780 405 780 405 801.5 338 c 128,-1,2
 823 271 823 271 856 231.5 c 128,-1,3
 889 192 889 192 927 176 c 128,-1,4
 965 160 965 160 998 160 c 0,5,6
 1023 160 1023 160 1044 166.5 c 128,-1,7
 1065 173 1065 173 1081 181.5 c 128,-1,8
 1097 190 1097 190 1108 196.5 c 128,-1,9
 1119 203 1119 203 1125 203 c 0,10,11
 1134 203 1134 203 1137.5 200 c 128,-1,12
 1141 197 1141 197 1146 189 c 2,13,-1
 1181 135 l 2,14,15
 1186 127 1186 127 1186 121 c 0,16,17
 1186 114 1186 114 1182 110 c 128,-1,18
 1178 106 1178 106 1174 103 c 0,19,20
 1141 80 1141 80 1093 54.5 c 128,-1,21
 1045 29 1045 29 981.5 8 c 128,-1,22
 918 -13 918 -13 840 -27 c 128,-1,23
 762 -41 762 -41 670 -41 c 0,24,25
 595 -41 595 -41 520 -29 c 128,-1,26
 445 -17 445 -17 376.5 10 c 128,-1,27
 308 37 308 37 249 79.5 c 128,-1,28
 190 122 190 122 146.5 182.5 c 128,-1,29
 103 243 103 243 78 323.5 c 128,-1,30
 53 404 53 404 53 506 c 256,31,32
 53 608 53 608 78 688.5 c 128,-1,33
 103 769 103 769 146.5 829.5 c 128,-1,34
 190 890 190 890 249 932.5 c 128,-1,35
 308 975 308 975 376.5 1002 c 128,-1,36
 445 1029 445 1029 520 1041 c 128,-1,37
 595 1053 595 1053 670 1053 c 0,38,39
 752 1053 752 1053 828 1040.5 c 128,-1,40
 904 1028 904 1028 968.5 1007.5 c 128,-1,41
 1033 987 1033 987 1084.5 962.5 c 128,-1,42
 1136 938 1136 938 1168 914 c 0,43,44
 1172 911 1172 911 1176 907 c 128,-1,45
 1180 903 1180 903 1180 896 c 256,46,47
 1180 889 1180 889 1175 882 c 2,48,-1
 1140 828 l 2,49,50
 1135 820 1135 820 1131.5 817 c 128,-1,51
 1128 814 1128 814 1119 814 c 0,52,53
 1113 814 1113 814 1103 820 c 128,-1,54
 1093 826 1093 826 1078 833.5 c 128,-1,55
 1063 841 1063 841 1043 847.5 c 128,-1,56
 1023 854 1023 854 998 854 c 0,57,58
 965 854 965 854 927 837.5 c 128,-1,59
 889 821 889 821 856 781 c 128,-1,60
 823 741 823 741 801.5 674 c 128,-1,61
 780 607 780 607 780 506 c 256,0,1
EndSplineSet
EndChar

StartChar: d
Encoding: 100 100 29
Width: 1319
Flags: W
LayerCount: 2
Fore
SplineSet
1227 139 m 2,0,1
 1227 104 1227 104 1221 78 c 128,-1,2
 1215 52 1215 52 1198 35 c 128,-1,3
 1181 18 1181 18 1151 9 c 128,-1,4
 1121 0 1121 0 1073 0 c 2,5,-1
 636 0 l 2,6,7
 563 2 563 2 491.5 13.5 c 128,-1,8
 420 25 420 25 355.5 49.5 c 128,-1,9
 291 74 291 74 235.5 113.5 c 128,-1,10
 180 153 180 153 139.5 209.5 c 128,-1,11
 99 266 99 266 76 342.5 c 128,-1,12
 53 419 53 419 53 518 c 0,13,14
 53 641 53 641 88 729.5 c 128,-1,15
 123 818 123 818 183 878 c 128,-1,16
 243 938 243 938 322.5 973 c 128,-1,17
 402 1008 402 1008 490 1024 c 1,18,-1
 490 1498 l 2,19,20
 490 1533 490 1533 495 1559.5 c 128,-1,21
 500 1586 500 1586 516 1603.5 c 128,-1,22
 532 1621 532 1621 560 1629.5 c 128,-1,23
 588 1638 588 1638 635 1638 c 2,24,-1
 1073 1638 l 2,25,26
 1121 1638 1121 1638 1151 1629 c 128,-1,27
 1181 1620 1181 1620 1198 1603 c 128,-1,28
 1215 1586 1215 1586 1221 1559.5 c 128,-1,29
 1227 1533 1227 1533 1227 1499 c 2,30,-1
 1227 139 l 2,0,1
195 517 m 0,31,32
 195 443 195 443 212 378.5 c 128,-1,33
 229 314 229 314 264.5 264.5 c 128,-1,34
 300 215 300 215 356 183 c 128,-1,35
 412 151 412 151 490 142 c 1,36,-1
 490 896 l 1,37,38
 412 887 412 887 356 854.5 c 128,-1,39
 300 822 300 822 264.5 772 c 128,-1,40
 229 722 229 722 212 657 c 128,-1,41
 195 592 195 592 195 517 c 0,31,32
EndSplineSet
EndChar

StartChar: e
Encoding: 101 101 30
Width: 1311
Flags: W
LayerCount: 2
Fore
SplineSet
998 166 m 0,0,1
 1025 166 1025 166 1047 173.5 c 128,-1,2
 1069 181 1069 181 1086.5 190 c 128,-1,3
 1104 199 1104 199 1115.5 206.5 c 128,-1,4
 1127 214 1127 214 1133 214 c 0,5,6
 1142 214 1142 214 1145.5 211 c 128,-1,7
 1149 208 1149 208 1154 200 c 2,8,-1
 1189 146 l 2,9,10
 1194 138 1194 138 1194 132 c 0,11,12
 1194 125 1194 125 1190 121 c 128,-1,13
 1186 117 1186 117 1182 114 c 0,14,15
 1149 91 1149 91 1101 64.5 c 128,-1,16
 1053 38 1053 38 989.5 16 c 128,-1,17
 926 -6 926 -6 846 -20.5 c 128,-1,18
 766 -35 766 -35 670 -35 c 0,19,20
 595 -35 595 -35 520 -23 c 128,-1,21
 445 -11 445 -11 376.5 15 c 128,-1,22
 308 41 308 41 249 83 c 128,-1,23
 190 125 190 125 146.5 186 c 128,-1,24
 103 247 103 247 78 327.5 c 128,-1,25
 53 408 53 408 53 512 c 0,26,27
 53 614 53 614 78 694.5 c 128,-1,28
 103 775 103 775 146.5 836 c 128,-1,29
 190 897 190 897 249 939.5 c 128,-1,30
 308 982 308 982 376.5 1008.5 c 128,-1,31
 445 1035 445 1035 520 1047 c 128,-1,32
 595 1059 595 1059 670 1059 c 0,33,34
 795 1059 795 1059 902.5 1031 c 128,-1,35
 1010 1003 1010 1003 1089 939 c 128,-1,36
 1168 875 1168 875 1213 771 c 128,-1,37
 1258 667 1258 667 1258 516 c 2,38,-1
 1258 460 l 2,39,40
 1258 442 1258 442 1249 432 c 128,-1,41
 1240 422 1240 422 1219 422 c 2,42,-1
 805 422 l 1,43,44
 813 348 813 348 833.5 298.5 c 128,-1,45
 854 249 854 249 880.5 219.5 c 128,-1,46
 907 190 907 190 938 178 c 128,-1,47
 969 166 969 166 998 166 c 0,0,1
1116 545 m 1,48,49
 1116 625 1116 625 1103.5 677.5 c 128,-1,50
 1091 730 1091 730 1070 761.5 c 128,-1,51
 1049 793 1049 793 1020.5 806 c 128,-1,52
 992 819 992 819 961 819 c 0,53,54
 938 819 938 819 911 810 c 128,-1,55
 884 801 884 801 860.5 772 c 128,-1,56
 837 743 837 743 820.5 689 c 128,-1,57
 804 635 804 635 801 545 c 1,58,-1
 1116 545 l 1,48,49
EndSplineSet
EndChar

StartChar: f
Encoding: 102 102 31
Width: 1121
Flags: W
LayerCount: 2
Fore
SplineSet
873 416 m 1,0,-1
 873 140 l 2,1,2
 873 104 873 104 868 77.5 c 128,-1,3
 863 51 863 51 847 34 c 128,-1,4
 831 17 831 17 801.5 8.5 c 128,-1,5
 772 0 772 0 723 0 c 2,6,-1
 289 0 l 2,7,8
 241 0 241 0 211 9 c 128,-1,9
 181 18 181 18 164 35 c 128,-1,10
 147 52 147 52 141 78 c 128,-1,11
 135 104 135 104 135 139 c 2,12,-1
 135 416 l 1,13,-1
 52 416 l 2,14,15
 31 416 31 416 31 438 c 2,16,-1
 31 518 l 2,17,18
 31 539 31 539 52 539 c 2,19,-1
 135 539 l 1,20,-1
 135 1143 l 2,21,22
 135 1251 135 1251 157.5 1331 c 128,-1,23
 180 1411 180 1411 218.5 1468.5 c 128,-1,24
 257 1526 257 1526 309 1563 c 128,-1,25
 361 1600 361 1600 421 1621.5 c 128,-1,26
 481 1643 481 1643 545.5 1651 c 128,-1,27
 610 1659 610 1659 674 1659 c 0,28,29
 729 1659 729 1659 789.5 1652 c 128,-1,30
 850 1645 850 1645 906.5 1633.5 c 128,-1,31
 963 1622 963 1622 1012 1606.5 c 128,-1,32
 1061 1591 1061 1591 1095 1575 c 0,33,34
 1103 1571 1103 1571 1112 1563 c 128,-1,35
 1121 1555 1121 1555 1121 1535 c 2,36,-1
 1121 1465 l 2,37,38
 1121 1452 1121 1452 1116 1449.5 c 128,-1,39
 1111 1447 1111 1447 1107 1447 c 0,40,41
 1094 1447 1094 1447 1079 1453 c 128,-1,42
 1064 1459 1064 1459 1034 1459 c 0,43,44
 1001 1459 1001 1459 971.5 1445.5 c 128,-1,45
 942 1432 942 1432 920 1398 c 128,-1,46
 898 1364 898 1364 885.5 1306 c 128,-1,47
 873 1248 873 1248 873 1160 c 2,48,-1
 873 539 l 1,49,-1
 1073 539 l 2,50,51
 1094 539 1094 539 1094 518 c 2,52,-1
 1094 438 l 2,53,54
 1094 416 1094 416 1073 416 c 2,55,-1
 873 416 l 1,0,-1
EndSplineSet
EndChar

StartChar: g
Encoding: 103 103 32
Width: 1372
Flags: W
LayerCount: 2
Fore
SplineSet
670 100 m 0,0,1
 594 100 594 100 519 110.5 c 128,-1,2
 444 121 444 121 375 144 c 1,3,4
 374 139 374 139 374 134.5 c 128,-1,5
 374 130 374 130 374 125 c 0,6,7
 374 95 374 95 384 69.5 c 128,-1,8
 394 44 394 44 415.5 25 c 128,-1,9
 437 6 437 6 472 -5 c 128,-1,10
 507 -16 507 -16 557 -16 c 0,11,12
 612 -16 612 -16 659 -9.5 c 128,-1,13
 706 -3 706 -3 751 4.5 c 128,-1,14
 796 12 796 12 841.5 18.5 c 128,-1,15
 887 25 887 25 938 25 c 0,16,17
 987 25 987 25 1034 7.5 c 128,-1,18
 1081 -10 1081 -10 1117.5 -43.5 c 128,-1,19
 1154 -77 1154 -77 1176 -126 c 128,-1,20
 1198 -175 1198 -175 1198 -238 c 0,21,22
 1198 -294 1198 -294 1187.5 -336 c 128,-1,23
 1177 -378 1177 -378 1166 -416 c 0,24,25
 1164 -421 1164 -421 1158.5 -428 c 128,-1,26
 1153 -435 1153 -435 1138 -435 c 2,27,-1
 1064 -435 l 2,28,29
 1050 -435 1050 -435 1046 -428.5 c 128,-1,30
 1042 -422 1042 -422 1040 -418 c 0,31,32
 1021 -371 1021 -371 893 -371 c 0,33,34
 838 -371 838 -371 784 -377.5 c 128,-1,35
 730 -384 730 -384 674 -391.5 c 128,-1,36
 618 -399 618 -399 557.5 -405.5 c 128,-1,37
 497 -412 497 -412 430 -412 c 0,38,39
 337 -412 337 -412 272.5 -381 c 128,-1,40
 208 -350 208 -350 168 -302.5 c 128,-1,41
 128 -255 128 -255 110 -198 c 128,-1,42
 92 -141 92 -141 92 -90 c 0,43,44
 92 -35 92 -35 104.5 10.5 c 128,-1,45
 117 56 117 56 137 93 c 128,-1,46
 157 130 157 130 183 159.5 c 128,-1,47
 209 189 209 189 235 213 c 1,48,49
 153 269 153 269 103 359 c 128,-1,50
 53 449 53 449 53 580 c 0,51,52
 53 669 53 669 78 739.5 c 128,-1,53
 103 810 103 810 146.5 863.5 c 128,-1,54
 190 917 190 917 249 954 c 128,-1,55
 308 991 308 991 376.5 1014.5 c 128,-1,56
 445 1038 445 1038 520 1048.5 c 128,-1,57
 595 1059 595 1059 670 1059 c 0,58,59
 737 1059 737 1059 807 1052 c 128,-1,60
 877 1045 877 1045 943.5 1026.5 c 128,-1,61
 1010 1008 1010 1008 1069.5 977 c 128,-1,62
 1129 946 1129 946 1175 898 c 1,63,-1
 1284 1009 l 2,64,65
 1295 1020 1295 1020 1305.5 1025 c 128,-1,66
 1316 1030 1316 1030 1325 1030 c 0,67,68
 1341 1030 1341 1030 1354 1017 c 2,69,-1
 1403 965 l 2,70,71
 1415 951 1415 951 1415 936 c 0,72,73
 1415 914 1415 914 1390 896 c 2,74,-1
 1245 794 l 1,75,76
 1265 751 1265 751 1275.5 700 c 128,-1,77
 1286 649 1286 649 1286 588 c 0,78,79
 1286 486 1286 486 1260 410 c 128,-1,80
 1234 334 1234 334 1188.5 280 c 128,-1,81
 1143 226 1143 226 1083 191 c 128,-1,82
 1023 156 1023 156 954.5 136 c 128,-1,83
 886 116 886 116 813 108 c 128,-1,84
 740 100 740 100 670 100 c 0,0,1
1004 690 m 2,85,86
 999 695 999 695 999 705 c 0,87,88
 999 717 999 717 1008 726 c 2,89,-1
 1072 792 l 1,90,91
 1052 807 1052 807 1028.5 813 c 128,-1,92
 1005 819 1005 819 981 819 c 256,93,94
 957 819 957 819 927.5 811.5 c 128,-1,95
 898 804 898 804 871.5 779 c 128,-1,96
 845 754 845 754 827 706.5 c 128,-1,97
 809 659 809 659 809 580 c 256,98,99
 809 501 809 501 823.5 453.5 c 128,-1,100
 838 406 838 406 862 381 c 128,-1,101
 886 356 886 356 917 348 c 128,-1,102
 948 340 948 340 981 340 c 0,103,104
 1012 340 1012 340 1042 350.5 c 128,-1,105
 1072 361 1072 361 1094.5 388.5 c 128,-1,106
 1117 416 1117 416 1131 463.5 c 128,-1,107
 1145 511 1145 511 1145 586 c 256,108,109
 1145 661 1145 661 1128 710 c 1,110,-1
 1061 663 l 2,111,112
 1053 658 1053 658 1045 658 c 0,113,114
 1032 658 1032 658 1024 668 c 2,115,-1
 1004 690 l 2,85,86
EndSplineSet
EndChar

StartChar: h
Encoding: 104 104 33
Width: 1245
Flags: W
LayerCount: 2
Fore
SplineSet
829 1005 m 1,0,1
 851 1022 851 1022 882 1033 c 128,-1,2
 913 1044 913 1044 950 1044 c 0,3,4
 1046 1044 1046 1044 1099.5 978 c 128,-1,5
 1153 912 1153 912 1153 784 c 2,6,-1
 1153 47 l 2,7,8
 1153 30 1153 30 1148.5 20.5 c 128,-1,9
 1144 11 1144 11 1137.5 6.5 c 128,-1,10
 1131 2 1131 2 1122 1 c 128,-1,11
 1113 0 1113 0 1104 0 c 2,12,-1
 1040 0 l 2,13,14
 1014 0 1014 0 1006.5 15 c 128,-1,15
 999 30 999 30 999 47 c 2,16,-1
 999 794 l 2,17,18
 999 851 999 851 978.5 881 c 128,-1,19
 958 911 958 911 913 911 c 0,20,21
 890 911 890 911 866.5 898.5 c 128,-1,22
 843 886 843 886 829 872 c 1,23,-1
 829 140 l 2,24,25
 829 105 829 105 825 79 c 128,-1,26
 821 53 821 53 806 35.5 c 128,-1,27
 791 18 791 18 763 9 c 128,-1,28
 735 0 735 0 687 0 c 2,29,-1
 224 0 l 2,30,31
 185 0 185 0 159.5 9 c 128,-1,32
 134 18 134 18 119 35 c 128,-1,33
 104 52 104 52 98 78 c 128,-1,34
 92 104 92 104 92 139 c 2,35,-1
 92 1499 l 2,36,37
 92 1533 92 1533 98 1559.5 c 128,-1,38
 104 1586 104 1586 121 1603 c 128,-1,39
 138 1620 138 1620 168 1629 c 128,-1,40
 198 1638 198 1638 246 1638 c 2,41,-1
 684 1638 l 2,42,43
 729 1638 729 1638 757.5 1630 c 128,-1,44
 786 1622 786 1622 802 1604.5 c 128,-1,45
 818 1587 818 1587 823.5 1561 c 128,-1,46
 829 1535 829 1535 829 1499 c 2,47,-1
 829 1005 l 1,0,1
EndSplineSet
EndChar

StartChar: i
Encoding: 105 105 34
Width: 921
Flags: W
LayerCount: 2
Fore
SplineSet
92 885 m 2,0,1
 92 919 92 919 98 945.5 c 128,-1,2
 104 972 104 972 121 989 c 128,-1,3
 138 1006 138 1006 168 1015 c 128,-1,4
 198 1024 198 1024 246 1024 c 2,5,-1
 684 1024 l 2,6,7
 730 1024 730 1024 758.5 1015.5 c 128,-1,8
 787 1007 787 1007 803 990 c 128,-1,9
 819 973 819 973 824 947 c 128,-1,10
 829 921 829 921 829 885 c 2,11,-1
 829 137 l 2,12,13
 829 103 829 103 824 77.5 c 128,-1,14
 819 52 819 52 803 34.5 c 128,-1,15
 787 17 787 17 758.5 8.5 c 128,-1,16
 730 0 730 0 684 0 c 2,17,-1
 246 0 l 2,18,19
 198 0 198 0 168 9 c 128,-1,20
 138 18 138 18 121 35 c 128,-1,21
 104 52 104 52 98 78 c 128,-1,22
 92 104 92 104 92 139 c 2,23,-1
 92 885 l 2,0,1
129 1452 m 0,24,25
 129 1521 129 1521 155.5 1582 c 128,-1,26
 182 1643 182 1643 227 1688 c 128,-1,27
 272 1733 272 1733 333 1759.5 c 128,-1,28
 394 1786 394 1786 463 1786 c 0,29,30
 531 1786 531 1786 591.5 1759.5 c 128,-1,31
 652 1733 652 1733 697 1688 c 128,-1,32
 742 1643 742 1643 768.5 1582 c 128,-1,33
 795 1521 795 1521 795 1452 c 0,34,35
 795 1384 795 1384 768.5 1323.5 c 128,-1,36
 742 1263 742 1263 697 1218 c 128,-1,37
 652 1173 652 1173 591.5 1146.5 c 128,-1,38
 531 1120 531 1120 463 1120 c 0,39,40
 394 1120 394 1120 333 1146.5 c 128,-1,41
 272 1173 272 1173 227 1218 c 128,-1,42
 182 1263 182 1263 155.5 1323.5 c 128,-1,43
 129 1384 129 1384 129 1452 c 0,24,25
EndSplineSet
Substitution2: "'salt' Stylistic Alternatives in Latin lookup 3 subtable" i.alt
Substitution2: "'aalt' Access All Alternates in Latin lookup 0 subtable" i.alt
EndChar

StartChar: j
Encoding: 106 106 35
Width: 921
Flags: W
LayerCount: 2
Fore
SplineSet
129 1452 m 0,0,1
 129 1521 129 1521 155.5 1582 c 128,-1,2
 182 1643 182 1643 227 1688 c 128,-1,3
 272 1733 272 1733 333 1759.5 c 128,-1,4
 394 1786 394 1786 463 1786 c 0,5,6
 531 1786 531 1786 591.5 1759.5 c 128,-1,7
 652 1733 652 1733 697 1688 c 128,-1,8
 742 1643 742 1643 768.5 1582 c 128,-1,9
 795 1521 795 1521 795 1452 c 0,10,11
 795 1384 795 1384 768.5 1323.5 c 128,-1,12
 742 1263 742 1263 697 1218 c 128,-1,13
 652 1173 652 1173 591.5 1146.5 c 128,-1,14
 531 1120 531 1120 463 1120 c 0,15,16
 394 1120 394 1120 333 1146.5 c 128,-1,17
 272 1173 272 1173 227 1218 c 128,-1,18
 182 1263 182 1263 155.5 1323.5 c 128,-1,19
 129 1384 129 1384 129 1452 c 0,0,1
-135 -262 m 2,20,21
 -135 -249 -135 -249 -131 -245.5 c 128,-1,22
 -127 -242 -127 -242 -121 -242 c 256,23,24
 -115 -242 -115 -242 -108.5 -244 c 128,-1,25
 -102 -246 -102 -246 -92.5 -248 c 128,-1,26
 -83 -250 -83 -250 -69 -252 c 128,-1,27
 -55 -254 -55 -254 -33 -254 c 0,28,29
 92 -254 92 -254 92 -99 c 2,30,-1
 92 885 l 2,31,32
 92 908 92 908 95.5 932.5 c 128,-1,33
 99 957 99 957 113.5 977.5 c 128,-1,34
 128 998 128 998 157 1011 c 128,-1,35
 186 1024 186 1024 238 1024 c 2,36,-1
 675 1024 l 2,37,38
 723 1024 723 1024 753 1015 c 128,-1,39
 783 1006 783 1006 800 988.5 c 128,-1,40
 817 971 817 971 823 945 c 128,-1,41
 829 919 829 919 829 884 c 2,42,-1
 829 109 l 2,43,44
 829 -11 829 -11 802.5 -98.5 c 128,-1,45
 776 -186 776 -186 731.5 -246 c 128,-1,46
 687 -306 687 -306 628.5 -343 c 128,-1,47
 570 -380 570 -380 506 -400.5 c 128,-1,48
 442 -421 442 -421 376 -427.5 c 128,-1,49
 310 -434 310 -434 251 -434 c 0,50,51
 119 -434 119 -434 30 -416.5 c 128,-1,52
 -59 -399 -59 -399 -117 -368 c 0,53,54
 -122 -366 -122 -366 -128.5 -359.5 c 128,-1,55
 -135 -353 -135 -353 -135 -336 c 2,56,-1
 -135 -262 l 2,20,21
EndSplineSet
Substitution2: "'salt' Stylistic Alternatives in Latin lookup 3 subtable" j.alt
Substitution2: "'aalt' Access All Alternates in Latin lookup 0 subtable" j.alt
EndChar

StartChar: k
Encoding: 107 107 36
Width: 1217
Flags: W
LayerCount: 2
Fore
SplineSet
92 1499 m 2,0,1
 92 1533 92 1533 98 1559.5 c 128,-1,2
 104 1586 104 1586 121 1603 c 128,-1,3
 138 1620 138 1620 168 1629 c 128,-1,4
 198 1638 198 1638 246 1638 c 2,5,-1
 684 1638 l 2,6,7
 730 1638 730 1638 758 1629 c 128,-1,8
 786 1620 786 1620 802 1603 c 128,-1,9
 818 1586 818 1586 823.5 1559.5 c 128,-1,10
 829 1533 829 1533 829 1499 c 2,11,-1
 829 777 l 1,12,-1
 1069 1015 l 2,13,14
 1080 1026 1080 1026 1090 1030.5 c 128,-1,15
 1100 1035 1100 1035 1108 1035 c 0,16,17
 1126 1035 1126 1035 1139 1020 c 2,18,-1
 1189 968 l 2,19,20
 1200 955 1200 955 1200 943 c 0,21,22
 1200 932 1200 932 1192.5 921 c 128,-1,23
 1185 910 1185 910 1168 897 c 2,24,-1
 855 666 l 1,25,26
 938 663 938 663 995 644.5 c 128,-1,27
 1052 626 1052 626 1087 591 c 128,-1,28
 1122 556 1122 556 1137.5 504 c 128,-1,29
 1153 452 1153 452 1153 383 c 2,30,-1
 1153 47 l 2,31,32
 1153 30 1153 30 1148.5 20.5 c 128,-1,33
 1144 11 1144 11 1137.5 6.5 c 128,-1,34
 1131 2 1131 2 1122 1 c 128,-1,35
 1113 0 1113 0 1104 0 c 2,36,-1
 1040 0 l 2,37,38
 1014 0 1014 0 1006.5 15 c 128,-1,39
 999 30 999 30 999 47 c 2,40,-1
 999 393 l 2,41,42
 999 439 999 439 990.5 469.5 c 128,-1,43
 982 500 982 500 962 518.5 c 128,-1,44
 942 537 942 537 909.5 545.5 c 128,-1,45
 877 554 877 554 829 556 c 1,46,-1
 829 137 l 2,47,48
 829 103 829 103 822.5 77.5 c 128,-1,49
 816 52 816 52 798 34.5 c 128,-1,50
 780 17 780 17 748 8.5 c 128,-1,51
 716 0 716 0 666 0 c 2,52,-1
 246 0 l 2,53,54
 198 0 198 0 168 9 c 128,-1,55
 138 18 138 18 121 35 c 128,-1,56
 104 52 104 52 98 78 c 128,-1,57
 92 104 92 104 92 139 c 2,58,-1
 92 1499 l 2,0,1
EndSplineSet
EndChar

StartChar: l
Encoding: 108 108 37
Width: 921
Flags: W
LayerCount: 2
Fore
SplineSet
92 1499 m 2,0,1
 92 1533 92 1533 98 1559.5 c 128,-1,2
 104 1586 104 1586 121 1603 c 128,-1,3
 138 1620 138 1620 168 1629 c 128,-1,4
 198 1638 198 1638 246 1638 c 2,5,-1
 684 1638 l 2,6,7
 730 1638 730 1638 758 1629.5 c 128,-1,8
 786 1621 786 1621 802 1604 c 128,-1,9
 818 1587 818 1587 823.5 1561 c 128,-1,10
 829 1535 829 1535 829 1500 c 2,11,-1
 829 137 l 2,12,13
 829 103 829 103 823 77.5 c 128,-1,14
 817 52 817 52 801 34.5 c 128,-1,15
 785 17 785 17 756.5 8.5 c 128,-1,16
 728 0 728 0 682 0 c 2,17,-1
 246 0 l 2,18,19
 198 0 198 0 168 9 c 128,-1,20
 138 18 138 18 121 35 c 128,-1,21
 104 52 104 52 98 78 c 128,-1,22
 92 104 92 104 92 139 c 2,23,-1
 92 1499 l 2,0,1
EndSplineSet
EndChar

StartChar: m
Encoding: 109 109 38
Width: 1569
Flags: W
LayerCount: 2
Fore
SplineSet
92 885 m 2,0,1
 92 919 92 919 98 945.5 c 128,-1,2
 104 972 104 972 121 989 c 128,-1,3
 138 1006 138 1006 168 1015 c 128,-1,4
 198 1024 198 1024 246 1024 c 2,5,-1
 655 1024 l 2,6,7
 700 1024 700 1024 731 1015 c 128,-1,8
 762 1006 762 1006 776 984 c 1,9,10
 789 994 789 994 808 1004.5 c 128,-1,11
 827 1015 827 1015 849.5 1024 c 128,-1,12
 872 1033 872 1033 897.5 1038.5 c 128,-1,13
 923 1044 923 1044 950 1044 c 0,14,15
 1042 1044 1042 1044 1095 983 c 1,16,17
 1109 993 1109 993 1125 1003 c 0,18,19
 1145 1015 1145 1015 1169 1024 c 128,-1,20
 1193 1033 1193 1033 1220 1038.5 c 128,-1,21
 1247 1044 1247 1044 1274 1044 c 0,22,23
 1370 1044 1370 1044 1423.5 978 c 128,-1,24
 1477 912 1477 912 1477 784 c 2,25,-1
 1477 47 l 2,26,27
 1477 30 1477 30 1472.5 20.5 c 128,-1,28
 1468 11 1468 11 1461 6.5 c 128,-1,29
 1454 2 1454 2 1445 1 c 128,-1,30
 1436 0 1436 0 1427 0 c 2,31,-1
 1364 0 l 2,32,33
 1338 0 1338 0 1330.5 15 c 128,-1,34
 1323 30 1323 30 1323 47 c 2,35,-1
 1323 794 l 2,36,37
 1323 851 1323 851 1302.5 881 c 128,-1,38
 1282 911 1282 911 1237 911 c 0,39,40
 1225 911 1225 911 1212 906.5 c 128,-1,41
 1199 902 1199 902 1186 895 c 128,-1,42
 1173 888 1173 888 1162 880 c 0,43,44
 1153 873 1153 873 1146 867 c 1,45,46
 1153 829 1153 829 1153 784 c 2,47,-1
 1153 47 l 2,48,49
 1153 30 1153 30 1148.5 20.5 c 128,-1,50
 1144 11 1144 11 1137.5 6.5 c 128,-1,51
 1131 2 1131 2 1122 1 c 128,-1,52
 1113 0 1113 0 1104 0 c 2,53,-1
 1040 0 l 2,54,55
 1014 0 1014 0 1006.5 15 c 128,-1,56
 999 30 999 30 999 47 c 2,57,-1
 999 794 l 2,58,59
 999 851 999 851 978.5 881 c 128,-1,60
 958 911 958 911 913 911 c 0,61,62
 890 911 890 911 866.5 898.5 c 128,-1,63
 843 886 843 886 829 872 c 1,64,-1
 829 140 l 2,65,66
 829 105 829 105 823 79 c 128,-1,67
 817 53 817 53 800 35.5 c 128,-1,68
 783 18 783 18 753 9 c 128,-1,69
 723 0 723 0 675 0 c 2,70,-1
 246 0 l 2,71,72
 198 0 198 0 168 9 c 128,-1,73
 138 18 138 18 121 35 c 128,-1,74
 104 52 104 52 98 78 c 128,-1,75
 92 104 92 104 92 139 c 2,76,-1
 92 885 l 2,0,1
EndSplineSet
EndChar

StartChar: n
Encoding: 110 110 39
Width: 1245
Flags: W
LayerCount: 2
Fore
SplineSet
92 885 m 2,0,1
 92 919 92 919 98 945.5 c 128,-1,2
 104 972 104 972 121 989 c 128,-1,3
 138 1006 138 1006 168 1015 c 128,-1,4
 198 1024 198 1024 246 1024 c 2,5,-1
 655 1024 l 2,6,7
 700 1024 700 1024 732.5 1015 c 128,-1,8
 765 1006 765 1006 779 984 c 1,9,10
 792 993 792 993 810.5 1003.5 c 128,-1,11
 829 1014 829 1014 851 1023 c 128,-1,12
 873 1032 873 1032 898 1038 c 128,-1,13
 923 1044 923 1044 950 1044 c 0,14,15
 1046 1044 1046 1044 1099.5 978 c 128,-1,16
 1153 912 1153 912 1153 784 c 2,17,-1
 1153 47 l 2,18,19
 1153 30 1153 30 1148.5 20.5 c 128,-1,20
 1144 11 1144 11 1137.5 6.5 c 128,-1,21
 1131 2 1131 2 1122 1 c 128,-1,22
 1113 0 1113 0 1104 0 c 2,23,-1
 1040 0 l 2,24,25
 1014 0 1014 0 1006.5 15 c 128,-1,26
 999 30 999 30 999 47 c 2,27,-1
 999 794 l 2,28,29
 999 851 999 851 978.5 881 c 128,-1,30
 958 911 958 911 913 911 c 0,31,32
 890 911 890 911 866.5 898.5 c 128,-1,33
 843 886 843 886 829 872 c 1,34,-1
 829 140 l 2,35,36
 829 105 829 105 823 79 c 128,-1,37
 817 53 817 53 800 35.5 c 128,-1,38
 783 18 783 18 753 9 c 128,-1,39
 723 0 723 0 675 0 c 2,40,-1
 246 0 l 2,41,42
 198 0 198 0 168 9 c 128,-1,43
 138 18 138 18 121 35 c 128,-1,44
 104 52 104 52 98 78 c 128,-1,45
 92 104 92 104 92 139 c 2,46,-1
 92 885 l 2,0,1
EndSplineSet
EndChar

StartChar: o
Encoding: 111 111 40
Width: 1339
Flags: W
LayerCount: 2
Fore
SplineSet
670 -35 m 0,0,1
 595 -35 595 -35 520 -23 c 128,-1,2
 445 -11 445 -11 376.5 15 c 128,-1,3
 308 41 308 41 249 83 c 128,-1,4
 190 125 190 125 146.5 186 c 128,-1,5
 103 247 103 247 78 327.5 c 128,-1,6
 53 408 53 408 53 512 c 0,7,8
 53 614 53 614 78 694.5 c 128,-1,9
 103 775 103 775 146.5 836 c 128,-1,10
 190 897 190 897 249 939.5 c 128,-1,11
 308 982 308 982 376.5 1008.5 c 128,-1,12
 445 1035 445 1035 520 1047 c 128,-1,13
 595 1059 595 1059 670 1059 c 0,14,15
 739 1059 739 1059 811.5 1050.5 c 128,-1,16
 884 1042 884 1042 952.5 1019.5 c 128,-1,17
 1021 997 1021 997 1081.5 958.5 c 128,-1,18
 1142 920 1142 920 1187.5 860 c 128,-1,19
 1233 800 1233 800 1259.5 716.5 c 128,-1,20
 1286 633 1286 633 1286 520 c 0,21,22
 1286 404 1286 404 1260 317.5 c 128,-1,23
 1234 231 1234 231 1188.5 169.5 c 128,-1,24
 1143 108 1143 108 1083 68 c 128,-1,25
 1023 28 1023 28 954.5 5.5 c 128,-1,26
 886 -17 886 -17 813 -26 c 128,-1,27
 740 -35 740 -35 670 -35 c 0,0,1
977 205 m 0,28,29
 1008 205 1008 205 1038.5 218.5 c 128,-1,30
 1069 232 1069 232 1092.5 267 c 128,-1,31
 1116 302 1116 302 1130.5 363.5 c 128,-1,32
 1145 425 1145 425 1145 520 c 0,33,34
 1145 610 1145 610 1130.5 668 c 128,-1,35
 1116 726 1116 726 1092 759.5 c 128,-1,36
 1068 793 1068 793 1038 806 c 128,-1,37
 1008 819 1008 819 977 819 c 0,38,39
 953 819 953 819 923.5 809 c 128,-1,40
 894 799 894 799 868.5 766.5 c 128,-1,41
 843 734 843 734 826 673.5 c 128,-1,42
 809 613 809 613 809 512 c 256,43,44
 809 411 809 411 823 350 c 128,-1,45
 837 289 837 289 860 257 c 128,-1,46
 883 225 883 225 913.5 215 c 128,-1,47
 944 205 944 205 977 205 c 0,28,29
EndSplineSet
Substitution2: "Single Substitution lookup 6 subtable" ordmasculine
Substitution2: "'aalt' Access All Alternates in Latin lookup 0 subtable" ordmasculine
EndChar

StartChar: p
Encoding: 112 112 41
Width: 1319
Flags: W
LayerCount: 2
Fore
SplineSet
666 1047 m 0,0,1
 740 1047 740 1047 813 1036 c 128,-1,2
 886 1025 886 1025 953 1000 c 128,-1,3
 1020 975 1020 975 1077 935 c 128,-1,4
 1134 895 1134 895 1176 836 c 128,-1,5
 1218 777 1218 777 1242 698.5 c 128,-1,6
 1266 620 1266 620 1266 518 c 0,7,8
 1266 392 1266 392 1230 300.5 c 128,-1,9
 1194 209 1194 209 1134 147 c 128,-1,10
 1074 85 1074 85 995 49.5 c 128,-1,11
 916 14 916 14 829 0 c 1,12,-1
 829 -272 l 2,13,14
 829 -308 829 -308 823 -334 c 128,-1,15
 817 -360 817 -360 801.5 -377.5 c 128,-1,16
 786 -395 786 -395 757.5 -403.5 c 128,-1,17
 729 -412 729 -412 684 -412 c 2,18,-1
 246 -412 l 2,19,20
 198 -412 198 -412 168 -403 c 128,-1,21
 138 -394 138 -394 121 -376.5 c 128,-1,22
 104 -359 104 -359 98 -333 c 128,-1,23
 92 -307 92 -307 92 -272 c 2,24,-1
 92 528 l 2,25,26
 92 652 92 652 130.5 749 c 128,-1,27
 169 846 169 846 242.5 912 c 128,-1,28
 316 978 316 978 422.5 1012.5 c 128,-1,29
 529 1047 529 1047 666 1047 c 0,0,1
1124 519 m 256,30,31
 1124 596 1124 596 1107 662 c 128,-1,32
 1090 728 1090 728 1054 779 c 128,-1,33
 1018 830 1018 830 962.5 862.5 c 128,-1,34
 907 895 907 895 829 904 c 1,35,-1
 829 128 l 1,36,37
 907 138 907 138 962.5 171 c 128,-1,38
 1018 204 1018 204 1054 256 c 128,-1,39
 1090 308 1090 308 1107 375 c 128,-1,40
 1124 442 1124 442 1124 519 c 256,30,31
EndSplineSet
EndChar

StartChar: q
Encoding: 113 113 42
Width: 1319
Flags: W
LayerCount: 2
Fore
SplineSet
1227 -272 m 2,0,1
 1227 -307 1227 -307 1221 -333 c 128,-1,2
 1215 -359 1215 -359 1198 -376.5 c 128,-1,3
 1181 -394 1181 -394 1151 -403 c 128,-1,4
 1121 -412 1121 -412 1073 -412 c 2,5,-1
 635 -412 l 2,6,7
 593 -412 593 -412 565 -404 c 128,-1,8
 537 -396 537 -396 520.5 -378.5 c 128,-1,9
 504 -361 504 -361 497 -335 c 128,-1,10
 490 -309 490 -309 490 -273 c 2,11,-1
 490 0 l 1,12,13
 402 16 402 16 322.5 51 c 128,-1,14
 243 86 243 86 183 146.5 c 128,-1,15
 123 207 123 207 88 295.5 c 128,-1,16
 53 384 53 384 53 507 c 0,17,18
 53 605 53 605 76.5 682 c 128,-1,19
 100 759 100 759 141 816.5 c 128,-1,20
 182 874 182 874 238.5 913.5 c 128,-1,21
 295 953 295 953 361 977.5 c 128,-1,22
 427 1002 427 1002 499 1013 c 128,-1,23
 571 1024 571 1024 645 1024 c 2,24,-1
 1073 1024 l 2,25,26
 1121 1024 1121 1024 1151 1015 c 128,-1,27
 1181 1006 1181 1006 1198 989 c 128,-1,28
 1215 972 1215 972 1221 945.5 c 128,-1,29
 1227 919 1227 919 1227 885 c 2,30,-1
 1227 -272 l 2,0,1
195 507 m 256,31,32
 195 432 195 432 212 367 c 128,-1,33
 229 302 229 302 264.5 252 c 128,-1,34
 300 202 300 202 356 169.5 c 128,-1,35
 412 137 412 137 490 128 c 1,36,-1
 490 881 l 1,37,38
 412 872 412 872 356 840.5 c 128,-1,39
 300 809 300 809 264.5 759.5 c 128,-1,40
 229 710 229 710 212 646 c 128,-1,41
 195 582 195 582 195 507 c 256,31,32
EndSplineSet
EndChar

StartChar: r
Encoding: 114 114 43
Width: 1111
Flags: W
LayerCount: 2
Fore
SplineSet
92 885 m 2,0,1
 92 919 92 919 98 945.5 c 128,-1,2
 104 972 104 972 121 989 c 128,-1,3
 138 1006 138 1006 168 1015 c 128,-1,4
 198 1024 198 1024 246 1024 c 2,5,-1
 684 1024 l 2,6,7
 730 1024 730 1024 758 1015 c 128,-1,8
 786 1006 786 1006 802 988 c 128,-1,9
 818 970 818 970 823.5 943 c 128,-1,10
 829 916 829 916 829 880 c 2,11,-1
 829 806 l 1,12,-1
 1051 1022 l 2,13,14
 1073 1043 1073 1043 1092 1043 c 0,15,16
 1103 1043 1103 1043 1111.5 1038.5 c 128,-1,17
 1120 1034 1120 1034 1126 1028 c 2,18,-1
 1171 981 l 2,19,20
 1186 966 1186 966 1186 948 c 0,21,22
 1186 937 1186 937 1179.5 925.5 c 128,-1,23
 1173 914 1173 914 1159 903 c 2,24,-1
 829 647 l 1,25,-1
 829 141 l 2,26,27
 829 106 829 106 824 79.5 c 128,-1,28
 819 53 819 53 802 35.5 c 128,-1,29
 785 18 785 18 753 9 c 128,-1,30
 721 0 721 0 666 0 c 2,31,-1
 246 0 l 2,32,33
 198 0 198 0 168 9 c 128,-1,34
 138 18 138 18 121 35 c 128,-1,35
 104 52 104 52 98 78 c 128,-1,36
 92 104 92 104 92 139 c 2,37,-1
 92 885 l 2,0,1
EndSplineSet
EndChar

StartChar: s
Encoding: 115 115 44
Width: 1248
Flags: W
LayerCount: 2
Fore
SplineSet
805 1059 m 0,0,1
 869 1059 869 1059 933 1051.5 c 128,-1,2
 997 1044 997 1044 1054.5 1032 c 128,-1,3
 1112 1020 1112 1020 1159.5 1005.5 c 128,-1,4
 1207 991 1207 991 1237 977 c 0,5,6
 1242 975 1242 975 1247.5 971 c 128,-1,7
 1253 967 1253 967 1253 956 c 0,8,9
 1253 953 1253 953 1252 948 c 128,-1,10
 1251 943 1251 943 1250 938 c 2,11,-1
 1238 879 l 2,12,13
 1236 867 1236 867 1232.5 864.5 c 128,-1,14
 1229 862 1229 862 1226 862 c 0,15,16
 1221 862 1221 862 1207 865 c 128,-1,17
 1193 868 1193 868 1177 868 c 0,18,19
 1120 868 1120 868 1087 837.5 c 128,-1,20
 1054 807 1054 807 1045 731 c 2,21,-1
 989 264 l 2,22,23
 981 202 981 202 947.5 148 c 128,-1,24
 914 94 914 94 851 53 c 128,-1,25
 788 12 788 12 695.5 -11.5 c 128,-1,26
 603 -35 603 -35 479 -35 c 0,27,28
 401 -35 401 -35 327 -25.5 c 128,-1,29
 253 -16 253 -16 190.5 -2.5 c 128,-1,30
 128 11 128 11 81.5 24.5 c 128,-1,31
 35 38 35 38 12 46 c 0,32,33
 4 48 4 48 -0.5 51.5 c 128,-1,34
 -5 55 -5 55 -5 63 c 0,35,36
 -5 67 -5 67 -4 72 c 128,-1,37
 -3 77 -3 77 -1 84 c 2,38,-1
 11 140 l 2,39,40
 13 148 13 148 18 153 c 128,-1,41
 23 158 23 158 36 158 c 0,42,43
 69 158 69 158 102.5 161.5 c 128,-1,44
 136 165 136 165 164.5 180 c 128,-1,45
 193 195 193 195 214.5 226 c 128,-1,46
 236 257 236 257 244 313 c 2,47,-1
 314 795 l 2,48,49
 325 871 325 871 370 922 c 128,-1,50
 415 973 415 973 481.5 1003.5 c 128,-1,51
 548 1034 548 1034 632 1046.5 c 128,-1,52
 716 1059 716 1059 805 1059 c 0,0,1
EndSplineSet
EndChar

StartChar: t
Encoding: 116 116 45
Width: 1124
Flags: W
LayerCount: 2
Fore
SplineSet
21 696 m 2,0,1
 0 696 0 696 0 718 c 2,2,-1
 0 798 l 2,3,4
 0 819 0 819 21 819 c 2,5,-1
 125 819 l 1,6,-1
 125 1046 l 2,7,8
 125 1061 125 1061 129.5 1076 c 128,-1,9
 134 1091 134 1091 154 1099 c 2,10,-1
 706 1303 l 2,11,12
 744 1317 744 1317 769 1324 c 128,-1,13
 794 1331 794 1331 813 1331 c 0,14,15
 820 1331 820 1331 828.5 1328.5 c 128,-1,16
 837 1326 837 1326 844.5 1320 c 128,-1,17
 852 1314 852 1314 857 1303.5 c 128,-1,18
 862 1293 862 1293 862 1278 c 2,19,-1
 862 819 l 1,20,-1
 1042 819 l 2,21,22
 1063 819 1063 819 1063 798 c 2,23,-1
 1063 718 l 2,24,25
 1063 696 1063 696 1042 696 c 2,26,-1
 862 696 l 1,27,-1
 862 293 l 2,28,29
 862 222 862 222 885.5 193 c 128,-1,30
 909 164 909 164 958 164 c 0,31,32
 969 164 969 164 981 166.5 c 128,-1,33
 993 169 993 169 1003.5 171.5 c 128,-1,34
 1014 174 1014 174 1023 176.5 c 128,-1,35
 1032 179 1032 179 1038 179 c 0,36,37
 1049 179 1049 179 1049 166 c 2,38,-1
 1049 89 l 2,39,40
 1049 69 1049 69 1041 62 c 128,-1,41
 1033 55 1033 55 1027 53 c 0,42,43
 989 37 989 37 937.5 21 c 128,-1,44
 886 5 886 5 826.5 -7.5 c 128,-1,45
 767 -20 767 -20 701 -27.5 c 128,-1,46
 635 -35 635 -35 569 -35 c 0,47,48
 474 -35 474 -35 392.5 -25.5 c 128,-1,49
 311 -16 311 -16 251.5 18 c 128,-1,50
 192 52 192 52 158.5 119 c 128,-1,51
 125 186 125 186 125 301 c 2,52,-1
 125 696 l 1,53,-1
 21 696 l 2,0,1
EndSplineSet
EndChar

StartChar: u
Encoding: 117 117 46
Width: 1245
Flags: W
LayerCount: 2
Fore
SplineSet
829 244 m 2,0,1
 829 187 829 187 847.5 160 c 128,-1,2
 866 133 866 133 911 133 c 0,3,4
 934 133 934 133 959.5 143 c 128,-1,5
 985 153 985 153 999 162 c 1,6,-1
 999 977 l 2,7,8
 999 994 999 994 1006.5 1009 c 128,-1,9
 1014 1024 1014 1024 1040 1024 c 2,10,-1
 1104 1024 l 2,11,12
 1113 1024 1113 1024 1122 1023 c 128,-1,13
 1131 1022 1131 1022 1137.5 1017.5 c 128,-1,14
 1144 1013 1144 1013 1148.5 1003.5 c 128,-1,15
 1153 994 1153 994 1153 977 c 2,16,-1
 1153 47 l 2,17,18
 1153 30 1153 30 1148.5 20.5 c 128,-1,19
 1144 11 1144 11 1137.5 6.5 c 128,-1,20
 1131 2 1131 2 1122 1 c 128,-1,21
 1113 0 1113 0 1104 0 c 2,22,-1
 1040 0 l 2,23,24
 1014 0 1014 0 1006.5 15 c 128,-1,25
 999 30 999 30 999 63 c 1,26,27
 977 55 977 55 937.5 41 c 128,-1,28
 898 27 898 27 838 13.5 c 128,-1,29
 778 0 778 0 696.5 -10 c 128,-1,30
 615 -20 615 -20 510 -20 c 0,31,32
 402 -20 402 -20 323.5 -2 c 128,-1,33
 245 16 245 16 193.5 56.5 c 128,-1,34
 142 97 142 97 117 162 c 128,-1,35
 92 227 92 227 92 322 c 2,36,-1
 92 885 l 2,37,38
 92 919 92 919 98 945.5 c 128,-1,39
 104 972 104 972 121 989 c 128,-1,40
 138 1006 138 1006 168 1015 c 128,-1,41
 198 1024 198 1024 246 1024 c 2,42,-1
 684 1024 l 2,43,44
 742 1024 742 1024 772 1007 c 128,-1,45
 802 990 802 990 815 965 c 128,-1,46
 828 940 828 940 828.5 911 c 128,-1,47
 829 882 829 882 829 858 c 2,48,-1
 829 244 l 2,0,1
EndSplineSet
EndChar

StartChar: v
Encoding: 118 118 47
Width: 1140
Flags: W
LayerCount: 2
Fore
SplineSet
803 590 m 1,0,-1
 942 965 l 2,1,2
 951 991 951 991 961.5 1007.5 c 128,-1,3
 972 1024 972 1024 1004 1024 c 2,4,-1
 1110 1024 l 2,5,6
 1139 1024 1139 1024 1139 1007 c 0,7,8
 1139 996 1139 996 1128 971 c 2,9,-1
 745 68 l 2,10,11
 731 34 731 34 713.5 17 c 128,-1,12
 696 0 696 0 664 0 c 2,13,-1
 506 0 l 2,14,15
 485 0 485 0 471 6.5 c 128,-1,16
 457 13 457 13 447.5 23 c 128,-1,17
 438 33 438 33 432 44.5 c 128,-1,18
 426 56 426 56 422 66 c 2,19,-1
 10 940 l 2,20,21
 1 959 1 959 1 975 c 0,22,23
 1 1001 1 1001 20 1012.5 c 128,-1,24
 39 1024 39 1024 59 1024 c 2,25,-1
 547 1024 l 2,26,27
 572 1024 572 1024 589 1022 c 128,-1,28
 606 1020 606 1020 617 1014.5 c 128,-1,29
 628 1009 628 1009 635 1001 c 128,-1,30
 642 993 642 993 647 981 c 2,31,-1
 803 590 l 1,0,-1
EndSplineSet
EndChar

StartChar: w
Encoding: 119 119 48
Width: 1764
Flags: W
LayerCount: 2
Fore
SplineSet
1397 535 m 1,0,-1
 1540 967 l 2,1,2
 1544 979 1544 979 1548 989.5 c 128,-1,3
 1552 1000 1552 1000 1559 1007.5 c 128,-1,4
 1566 1015 1566 1015 1578 1019.5 c 128,-1,5
 1590 1024 1590 1024 1610 1024 c 2,6,-1
 1718 1024 l 2,7,8
 1738 1024 1738 1024 1746 1017 c 128,-1,9
 1754 1010 1754 1010 1754 999 c 256,10,11
 1754 988 1754 988 1747 971 c 2,12,-1
 1382 94 l 2,13,14
 1363 48 1363 48 1341 24 c 128,-1,15
 1319 0 1319 0 1282 0 c 2,16,-1
 1122 0 l 2,17,18
 1100 0 1100 0 1083.5 9 c 128,-1,19
 1067 18 1067 18 1055 32 c 128,-1,20
 1043 46 1043 46 1035 62 c 128,-1,21
 1027 78 1027 78 1022 92 c 2,22,-1
 877 480 l 1,23,-1
 717 94 l 2,24,25
 698 48 698 48 676 24 c 128,-1,26
 654 0 654 0 616 0 c 2,27,-1
 457 0 l 2,28,29
 434 0 434 0 418 9 c 128,-1,30
 402 18 402 18 390 32 c 128,-1,31
 378 46 378 46 370 62 c 128,-1,32
 362 78 362 78 356 92 c 2,33,-1
 18 942 l 2,34,35
 10 961 10 961 10 977 c 0,36,37
 10 1003 10 1003 27 1013.5 c 128,-1,38
 44 1024 44 1024 63 1024 c 2,39,-1
 459 1024 l 2,40,41
 484 1024 484 1024 501.5 1021 c 128,-1,42
 519 1018 519 1018 531.5 1011 c 128,-1,43
 544 1004 544 1004 552 992.5 c 128,-1,44
 560 981 560 981 567 963 c 2,45,-1
 731 535 l 1,46,-1
 790 714 l 1,47,-1
 705 942 l 2,48,49
 697 964 697 964 697 978 c 0,50,51
 697 1004 697 1004 713.5 1014 c 128,-1,52
 730 1024 730 1024 750 1024 c 2,53,-1
 1145 1024 l 2,54,55
 1195 1024 1195 1024 1218 1011.5 c 128,-1,56
 1241 999 1241 999 1253 963 c 2,57,-1
 1397 535 l 1,0,-1
EndSplineSet
EndChar

StartChar: x
Encoding: 120 120 49
Width: 1302
Flags: W
LayerCount: 2
Fore
SplineSet
393 317 m 1,0,-1
 257 82 l 2,1,2
 248 66 248 66 239.5 51 c 128,-1,3
 231 36 231 36 220.5 25 c 128,-1,4
 210 14 210 14 196.5 7 c 128,-1,5
 183 0 183 0 163 0 c 2,6,-1
 48 0 l 2,7,8
 33 0 33 0 23.5 7.5 c 128,-1,9
 14 15 14 15 14 30 c 0,10,11
 14 39 14 39 17.5 50.5 c 128,-1,12
 21 62 21 62 30 76 c 2,13,-1
 288 498 l 1,14,-1
 32 942 l 2,15,16
 20 961 20 961 20 978 c 0,17,18
 20 1024 20 1024 80 1024 c 2,19,-1
 657 1024 l 2,20,21
 707 1024 707 1024 726.5 1013 c 128,-1,22
 746 1002 746 1002 757 983 c 2,23,-1
 886 763 l 1,24,-1
 990 942 l 2,25,26
 999 958 999 958 1007.5 973 c 128,-1,27
 1016 988 1016 988 1026.5 999 c 128,-1,28
 1037 1010 1037 1010 1051 1017 c 128,-1,29
 1065 1024 1065 1024 1085 1024 c 2,30,-1
 1199 1024 l 2,31,32
 1215 1024 1215 1024 1224.5 1016.5 c 128,-1,33
 1234 1009 1234 1009 1234 994 c 0,34,35
 1234 974 1234 974 1218 948 c 2,36,-1
 993 581 l 1,37,-1
 1277 95 l 2,38,39
 1285 82 1285 82 1290.5 69.5 c 128,-1,40
 1296 57 1296 57 1296 46 c 0,41,42
 1296 29 1296 29 1290 19.5 c 128,-1,43
 1284 10 1284 10 1274 5.5 c 128,-1,44
 1264 1 1264 1 1252.5 0.5 c 128,-1,45
 1241 0 1241 0 1229 0 c 2,46,-1
 642 0 l 2,47,48
 617 0 617 0 599.5 6.5 c 128,-1,49
 582 13 582 13 570.5 22 c 128,-1,50
 559 31 559 31 552.5 41 c 128,-1,51
 546 51 546 51 542 59 c 2,52,-1
 393 317 l 1,0,-1
EndSplineSet
EndChar

StartChar: y
Encoding: 121 121 50
Width: 1148
Flags: W
LayerCount: 2
Fore
SplineSet
802 599 m 1,0,-1
 942 965 l 2,1,2
 947 978 947 978 951 988.5 c 128,-1,3
 955 999 955 999 961 1007 c 128,-1,4
 967 1015 967 1015 977 1019.5 c 128,-1,5
 987 1024 987 1024 1003 1024 c 2,6,-1
 1120 1024 l 2,7,8
 1148 1024 1148 1024 1148 1008 c 0,9,10
 1148 995 1148 995 1138 971 c 2,11,-1
 573 -362 l 2,12,13
 567 -375 567 -375 563 -384.5 c 128,-1,14
 559 -394 559 -394 553.5 -400 c 128,-1,15
 548 -406 548 -406 540 -409 c 128,-1,16
 532 -412 532 -412 518 -412 c 2,17,-1
 389 -412 l 2,18,19
 359 -412 359 -412 359 -394 c 0,20,21
 359 -382 359 -382 371 -358 c 2,22,-1
 519 -38 l 1,23,-1
 10 940 l 2,24,25
 5 950 5 950 2.5 960 c 128,-1,26
 0 970 0 970 0 978 c 0,27,28
 0 1003 0 1003 19.5 1013.5 c 128,-1,29
 39 1024 39 1024 59 1024 c 2,30,-1
 566 1024 l 2,31,32
 602 1024 602 1024 621.5 1009.5 c 128,-1,33
 641 995 641 995 647 981 c 2,34,-1
 802 599 l 1,0,-1
EndSplineSet
EndChar

StartChar: z
Encoding: 122 122 51
Width: 1151
Flags: W
LayerCount: 2
Fore
SplineSet
66 991 m 2,0,1
 66 1008 66 1008 73 1016 c 128,-1,2
 80 1024 80 1024 103 1024 c 2,3,-1
 1069 1024 l 2,4,5
 1107 1024 1107 1024 1122 1015 c 128,-1,6
 1137 1006 1137 1006 1137 983 c 0,7,8
 1137 955 1137 955 1119 922 c 2,9,-1
 720 141 l 1,10,11
 813 144 813 144 890 147 c 0,12,13
 923 148 923 148 955.5 149.5 c 128,-1,14
 988 151 988 151 1016 152 c 128,-1,15
 1044 153 1044 153 1064 153.5 c 128,-1,16
 1084 154 1084 154 1092 154 c 0,17,18
 1109 154 1109 154 1124 147.5 c 128,-1,19
 1139 141 1139 141 1139 121 c 2,20,-1
 1139 49 l 2,21,22
 1139 31 1139 31 1127.5 15.5 c 128,-1,23
 1116 0 1116 0 1082 0 c 2,24,-1
 77 0 l 2,25,26
 48 0 48 0 34 12.5 c 128,-1,27
 20 25 20 25 20 41 c 0,28,29
 20 61 20 61 27.5 80 c 128,-1,30
 35 99 35 99 52 131 c 2,31,-1
 440 884 l 1,32,33
 362 880 362 880 295 877 c 0,34,35
 266 875 266 875 237 874 c 128,-1,36
 208 873 208 873 181.5 872 c 128,-1,37
 155 871 155 871 134 870.5 c 128,-1,38
 113 870 113 870 101 870 c 256,39,40
 89 870 89 870 77.5 875.5 c 128,-1,41
 66 881 66 881 66 901 c 2,42,-1
 66 991 l 2,0,1
EndSplineSet
EndChar

StartChar: germandbls
Encoding: 223 223 52
Width: 1411
Flags: W
LayerCount: 2
Fore
SplineSet
889 117 m 2,0,1
 889 129 889 129 896 131 c 128,-1,2
 903 133 903 133 908 133 c 0,3,4
 961 134 961 134 1005.5 140.5 c 128,-1,5
 1050 147 1050 147 1082.5 162.5 c 128,-1,6
 1115 178 1115 178 1133 204.5 c 128,-1,7
 1151 231 1151 231 1151 272 c 0,8,9
 1151 323 1151 323 1133 352 c 128,-1,10
 1115 381 1115 381 1083 395.5 c 128,-1,11
 1051 410 1051 410 1007 413 c 128,-1,12
 963 416 963 416 911 416 c 0,13,14
 906 416 906 416 897.5 417.5 c 128,-1,15
 889 419 889 419 889 435 c 2,16,-1
 889 521 l 2,17,18
 889 535 889 535 896 537 c 128,-1,19
 903 539 903 539 908 539 c 0,20,21
 998 543 998 543 1065.5 583.5 c 128,-1,22
 1133 624 1133 624 1178.5 691.5 c 128,-1,23
 1224 759 1224 759 1247 850 c 128,-1,24
 1270 941 1270 941 1270 1047 c 0,25,26
 1270 1140 1270 1140 1251 1223 c 128,-1,27
 1232 1306 1232 1306 1195.5 1367.5 c 128,-1,28
 1159 1429 1159 1429 1105.5 1465 c 128,-1,29
 1052 1501 1052 1501 983 1501 c 0,30,31
 953 1501 953 1501 927 1494.5 c 128,-1,32
 901 1488 901 1488 882.5 1472 c 128,-1,33
 864 1456 864 1456 853 1430.5 c 128,-1,34
 842 1405 842 1405 842 1367 c 2,35,-1
 842 136 l 2,36,37
 842 104 842 104 835 79 c 128,-1,38
 828 54 828 54 811 36.5 c 128,-1,39
 794 19 794 19 766 9.5 c 128,-1,40
 738 0 738 0 696 0 c 2,41,-1
 258 0 l 2,42,43
 210 0 210 0 180 9 c 128,-1,44
 150 18 150 18 133 35 c 128,-1,45
 116 52 116 52 110 78 c 128,-1,46
 104 104 104 104 104 139 c 2,47,-1
 104 1199 l 2,48,49
 104 1293 104 1293 134.5 1363.5 c 128,-1,50
 165 1434 165 1434 216 1485 c 128,-1,51
 267 1536 267 1536 334.5 1570 c 128,-1,52
 402 1604 402 1604 476 1623.5 c 128,-1,53
 550 1643 550 1643 625.5 1651 c 128,-1,54
 701 1659 701 1659 769 1659 c 0,55,56
 848 1659 848 1659 926.5 1650 c 128,-1,57
 1005 1641 1005 1641 1076 1616 c 128,-1,58
 1147 1591 1147 1591 1208.5 1548 c 128,-1,59
 1270 1505 1270 1505 1315 1437 c 128,-1,60
 1360 1369 1360 1369 1385.5 1273 c 128,-1,61
 1411 1177 1411 1177 1411 1047 c 0,62,63
 1411 915 1411 915 1386 822.5 c 128,-1,64
 1361 730 1361 730 1322 666.5 c 128,-1,65
 1283 603 1283 603 1234.5 562.5 c 128,-1,66
 1186 522 1186 522 1139 494 c 1,67,68
 1166 482 1166 482 1193.5 464 c 128,-1,69
 1221 446 1221 446 1243 420.5 c 128,-1,70
 1265 395 1265 395 1278.5 361 c 128,-1,71
 1292 327 1292 327 1292 281 c 0,72,73
 1292 204 1292 204 1262.5 151 c 128,-1,74
 1233 98 1233 98 1181 65 c 128,-1,75
 1129 32 1129 32 1059.5 16.5 c 128,-1,76
 990 1 990 1 910 0 c 0,77,78
 905 0 905 0 896.5 2 c 128,-1,79
 888 4 888 4 889 20 c 2,80,-1
 889 117 l 2,0,1
EndSplineSet
EndChar

StartChar: Acircumflex
Encoding: 194 194 57
Width: 1249
Flags: W
LayerCount: 2
Fore
SplineSet
603 1692 m 1
 379 1534 l 2
 375 1532 375 1532 372 1530 c 0
 369 1528 369 1528 366 1528 c 0
 356 1528 356 1528 349 1538 c 2
 282 1626 l 2
 276 1633 276 1633 276 1640 c 256
 276 1647 276 1647 285 1655 c 2
 589 1913 l 2
 592 1915 592 1915 595 1917 c 0
 598 1919 598 1919 603 1919 c 256
 608 1919 608 1919 611 1917 c 0
 614 1915 614 1915 617 1913 c 2
 921 1655 l 2
 930 1647 930 1647 930 1640 c 256
 930 1633 930 1633 924 1626 c 2
 857 1538 l 2
 849 1528 849 1528 840 1528 c 0
 837 1528 837 1528 834 1530 c 0
 831 1532 831 1532 827 1534 c 2
 603 1692 l 1
EndSplineSet
Refer: 0 65 N 1 0 0 1 0 0 3
EndChar

StartChar: acircumflex
Encoding: 226 226 58
Width: 1290
Flags: W
LayerCount: 2
Fore
SplineSet
668 1323 m 1
 444 1165 l 2
 440 1163 440 1163 437 1161 c 0
 434 1159 434 1159 431 1159 c 0
 421 1159 421 1159 414 1169 c 2
 347 1257 l 2
 341 1264 341 1264 341 1271 c 256
 341 1278 341 1278 350 1286 c 2
 654 1544 l 2
 657 1546 657 1546 660 1548 c 0
 663 1550 663 1550 668 1550 c 256
 673 1550 673 1550 676 1548 c 0
 679 1546 679 1546 682 1544 c 2
 986 1286 l 2
 995 1278 995 1278 995 1271 c 256
 995 1264 995 1264 989 1257 c 2
 922 1169 l 2
 914 1159 914 1159 905 1159 c 0
 902 1159 902 1159 899 1161 c 0
 896 1163 896 1163 892 1165 c 2
 668 1323 l 1
EndSplineSet
Refer: 26 97 N 1 0 0 1 0 0 3
EndChar

StartChar: Atilde
Encoding: 195 195 59
Width: 1249
Flags: W
LayerCount: 2
Fore
SplineSet
920 1852 m 2
 934 1852 934 1852 935.5 1842 c 0
 937 1832 937 1832 935 1821 c 0
 927 1770 927 1770 910 1724 c 0
 893 1678 893 1678 867.5 1643.5 c 0
 842 1609 842 1609 808.5 1588.5 c 0
 775 1568 775 1568 734 1568 c 0
 698 1568 698 1568 663 1583 c 0
 628 1598 628 1598 596.5 1616 c 0
 565 1634 565 1634 539 1649 c 0
 513 1664 513 1664 496 1664 c 0
 473 1664 473 1664 459.5 1657 c 0
 446 1650 446 1650 437.5 1638 c 0
 429 1626 429 1626 425.5 1610.5 c 0
 422 1595 422 1595 420 1579 c 0
 419 1573 419 1573 413.5 1570.5 c 0
 408 1568 408 1568 387 1568 c 2
 287 1568 l 2
 277 1568 277 1568 273.5 1572 c 0
 270 1576 270 1576 269.5 1582 c 0
 269 1588 269 1588 270.5 1593.5 c 0
 272 1599 272 1599 272 1602 c 0
 278 1652 278 1652 295 1697 c 0
 312 1742 312 1742 338 1775.5 c 0
 364 1809 364 1809 398 1829 c 0
 432 1849 432 1849 473 1849 c 0
 509 1849 509 1849 544 1834 c 0
 579 1819 579 1819 610.5 1801.5 c 0
 642 1784 642 1784 668 1769 c 0
 694 1754 694 1754 711 1754 c 0
 734 1754 734 1754 748 1761.5 c 0
 762 1769 762 1769 770.5 1781 c 0
 779 1793 779 1793 782.5 1808.5 c 0
 786 1824 786 1824 788 1841 c 0
 789 1847 789 1847 793 1849.5 c 0
 797 1852 797 1852 813 1852 c 2
 920 1852 l 2
EndSplineSet
Refer: 0 65 N 1 0 0 1 0 0 3
EndChar

StartChar: atilde
Encoding: 227 227 60
Width: 1290
Flags: W
LayerCount: 2
Fore
SplineSet
985 1483 m 2
 999 1483 999 1483 1000.5 1473 c 0
 1002 1463 1002 1463 1000 1452 c 0
 992 1401 992 1401 975 1355 c 0
 958 1309 958 1309 932.5 1274.5 c 0
 907 1240 907 1240 873.5 1219.5 c 0
 840 1199 840 1199 799 1199 c 0
 763 1199 763 1199 728 1214 c 0
 693 1229 693 1229 661.5 1247 c 0
 630 1265 630 1265 604 1280 c 0
 578 1295 578 1295 561 1295 c 0
 538 1295 538 1295 524.5 1288 c 0
 511 1281 511 1281 502.5 1269 c 0
 494 1257 494 1257 490.5 1241.5 c 0
 487 1226 487 1226 485 1210 c 0
 484 1204 484 1204 478.5 1201.5 c 0
 473 1199 473 1199 452 1199 c 2
 352 1199 l 2
 342 1199 342 1199 338.5 1203 c 0
 335 1207 335 1207 334.5 1213 c 0
 334 1219 334 1219 335.5 1224.5 c 0
 337 1230 337 1230 337 1233 c 0
 343 1283 343 1283 360 1328 c 0
 377 1373 377 1373 403 1406.5 c 0
 429 1440 429 1440 463 1460 c 0
 497 1480 497 1480 538 1480 c 0
 574 1480 574 1480 609 1465 c 0
 644 1450 644 1450 675.5 1432.5 c 0
 707 1415 707 1415 733 1400 c 0
 759 1385 759 1385 776 1385 c 0
 799 1385 799 1385 813 1392.5 c 0
 827 1400 827 1400 835.5 1412 c 0
 844 1424 844 1424 847.5 1439.5 c 0
 851 1455 851 1455 853 1472 c 0
 854 1478 854 1478 858 1480.5 c 0
 862 1483 862 1483 878 1483 c 2
 985 1483 l 2
EndSplineSet
Refer: 26 97 N 1 0 0 1 0 0 3
EndChar

StartChar: Aring
Encoding: 197 197 63
Width: 1249
Flags: W
LayerCount: 2
Fore
SplineSet
346 1640 m 0,0,1
 346 1693 346 1693 366 1740 c 128,-1,2
 386 1787 386 1787 421 1822 c 128,-1,3
 456 1857 456 1857 503 1877.5 c 128,-1,4
 550 1898 550 1898 603 1898 c 256,5,6
 656 1898 656 1898 702.5 1877.5 c 128,-1,7
 749 1857 749 1857 783.5 1822 c 128,-1,8
 818 1787 818 1787 838 1740 c 128,-1,9
 858 1693 858 1693 858 1640 c 0,10,11
 858 1568 858 1568 822.5 1509.5 c 128,-1,12
 787 1451 787 1451 730 1418 c 1,13,14
 741 1407 741 1407 750.5 1389 c 128,-1,15
 760 1371 760 1371 771 1343 c 2,16,-1
 1230 117 l 2,17,18
 1235 103 1235 103 1237 92 c 128,-1,19
 1239 81 1239 81 1239 70 c 0,20,21
 1239 34 1239 34 1217.5 17 c 128,-1,22
 1196 0 1196 0 1172 0 c 2,23,-1
 605 0 l 2,24,25
 579 0 579 0 561.5 6.5 c 128,-1,26
 544 13 544 13 532 22 c 128,-1,27
 520 31 520 31 513.5 41 c 128,-1,28
 507 51 507 51 505 59 c 2,29,-1
 494 94 l 1,30,-1
 213 94 l 1,31,-1
 206 64 l 2,32,33
 203 49 203 49 199 37.5 c 128,-1,34
 195 26 195 26 189 17.5 c 128,-1,35
 183 9 183 9 172.5 4.5 c 128,-1,36
 162 0 162 0 145 0 c 2,37,-1
 42 0 l 2,38,39
 10 0 10 0 10 25 c 0,40,41
 10 34 10 34 13.5 46.5 c 128,-1,42
 17 59 17 59 23 76 c 2,43,-1
 441 1341 l 2,44,45
 449 1367 449 1367 458 1385.5 c 128,-1,46
 467 1404 467 1404 479 1416 c 1,47,48
 419 1448 419 1448 382.5 1507.5 c 128,-1,49
 346 1567 346 1567 346 1640 c 0,0,1
244 217 m 1,50,-1
 460 217 l 1,51,-1
 349 608 l 1,52,-1
 244 217 l 1,50,-1
493 1642 m 256,53,54
 493 1619 493 1619 501.5 1599 c 128,-1,55
 510 1579 510 1579 525 1564 c 128,-1,56
 540 1549 540 1549 560 1540.5 c 128,-1,57
 580 1532 580 1532 603 1532 c 256,58,59
 626 1532 626 1532 645.5 1540.5 c 128,-1,60
 665 1549 665 1549 679.5 1564 c 128,-1,61
 694 1579 694 1579 702.5 1599 c 128,-1,62
 711 1619 711 1619 711 1642 c 256,63,64
 711 1665 711 1665 702.5 1685 c 128,-1,65
 694 1705 694 1705 679.5 1719.5 c 128,-1,66
 665 1734 665 1734 645.5 1742.5 c 128,-1,67
 626 1751 626 1751 603 1751 c 256,68,69
 580 1751 580 1751 560 1742.5 c 128,-1,70
 540 1734 540 1734 525 1719.5 c 128,-1,71
 510 1705 510 1705 501.5 1685 c 128,-1,72
 493 1665 493 1665 493 1642 c 256,53,54
EndSplineSet
EndChar

StartChar: aring
Encoding: 229 229 64
Width: 1290
Flags: W
LayerCount: 2
Fore
SplineSet
411 1404 m 256
 411 1457 411 1457 431 1504 c 0
 451 1551 451 1551 486 1586 c 0
 521 1621 521 1621 568 1641.5 c 0
 615 1662 615 1662 668 1662 c 256
 721 1662 721 1662 767.5 1641.5 c 0
 814 1621 814 1621 848.5 1586 c 0
 883 1551 883 1551 903 1504 c 0
 923 1457 923 1457 923 1404 c 256
 923 1351 923 1351 903 1304.5 c 0
 883 1258 883 1258 848.5 1223.5 c 0
 814 1189 814 1189 767.5 1169 c 0
 721 1149 721 1149 668 1149 c 256
 615 1149 615 1149 568 1169 c 0
 521 1189 521 1189 486 1223.5 c 0
 451 1258 451 1258 431 1304.5 c 0
 411 1351 411 1351 411 1404 c 256
558 1406 m 256
 558 1383 558 1383 566.5 1363 c 0
 575 1343 575 1343 590 1328 c 0
 605 1313 605 1313 625 1304.5 c 0
 645 1296 645 1296 668 1296 c 256
 691 1296 691 1296 710.5 1304.5 c 0
 730 1313 730 1313 744.5 1328 c 0
 759 1343 759 1343 767.5 1363 c 0
 776 1383 776 1383 776 1406 c 256
 776 1429 776 1429 767.5 1449 c 0
 759 1469 759 1469 744.5 1483.5 c 0
 730 1498 730 1498 710.5 1506.5 c 0
 691 1515 691 1515 668 1515 c 256
 645 1515 645 1515 625 1506.5 c 0
 605 1498 605 1498 590 1483.5 c 0
 575 1469 575 1469 566.5 1449 c 0
 558 1429 558 1429 558 1406 c 256
EndSplineSet
Refer: 26 97 N 1 0 0 1 0 0 3
EndChar

StartChar: AE
Encoding: 198 198 65
Width: 1702
Flags: W
LayerCount: 2
Fore
SplineSet
1231 123 m 2,0,1
 1231 122 1231 122 1256 125.5 c 128,-1,2
 1281 129 1281 129 1319.5 135 c 128,-1,3
 1358 141 1358 141 1405 147.5 c 128,-1,4
 1452 154 1452 154 1495.5 160 c 128,-1,5
 1539 166 1539 166 1574.5 170 c 128,-1,6
 1610 174 1610 174 1626 174 c 0,7,8
 1641 174 1641 174 1651 166.5 c 128,-1,9
 1661 159 1661 159 1661 141 c 2,10,-1
 1661 49 l 2,11,12
 1661 31 1661 31 1650.5 15.5 c 128,-1,13
 1640 0 1640 0 1606 0 c 2,14,-1
 637 0 l 2,15,16
 590 0 590 0 560.5 9 c 128,-1,17
 531 18 531 18 514 35 c 128,-1,18
 497 52 497 52 491 78 c 128,-1,19
 485 104 485 104 485 139 c 2,20,-1
 485 186 l 1,21,-1
 176 186 l 1,22,-1
 133 82 l 2,23,24
 126 65 126 65 119.5 50 c 128,-1,25
 113 35 113 35 104.5 24 c 128,-1,26
 96 13 96 13 83 6.5 c 128,-1,27
 70 0 70 0 50 0 c 2,28,-1
 -25 0 l 2,29,30
 -48 0 -48 0 -59.5 3 c 128,-1,31
 -71 6 -71 6 -71 19 c 0,32,33
 -71 30 -71 30 -57 63 c 2,34,-1
 500 1341 l 2,35,36
 520 1388 520 1388 545.5 1412 c 128,-1,37
 571 1436 571 1436 616 1436 c 2,38,-1
 1571 1436 l 2,39,40
 1600 1436 1600 1436 1612 1420.5 c 128,-1,41
 1624 1405 1624 1405 1624 1386 c 2,42,-1
 1624 1315 l 2,43,44
 1624 1296 1624 1296 1612.5 1289 c 128,-1,45
 1601 1282 1601 1282 1590 1282 c 0,46,47
 1573 1282 1573 1282 1540 1286 c 128,-1,48
 1507 1290 1507 1290 1467 1295.5 c 128,-1,49
 1427 1301 1427 1301 1385 1307.5 c 128,-1,50
 1343 1314 1343 1314 1309 1319.5 c 128,-1,51
 1275 1325 1275 1325 1253 1328 c 128,-1,52
 1231 1331 1231 1331 1231 1331 c 1,53,-1
 1231 1077 l 1,54,-1
 1603 1077 l 2,55,56
 1624 1077 1624 1077 1624 1056 c 2,57,-1
 1624 956 l 2,58,59
 1624 934 1624 934 1603 934 c 2,60,-1
 1231 934 l 1,61,-1
 1231 123 l 2,0,1
485 309 m 1,62,-1
 485 938 l 1,63,-1
 221 309 l 1,64,-1
 485 309 l 1,62,-1
EndSplineSet
EndChar

StartChar: ae
Encoding: 230 230 66
Width: 1692
Flags: W
LayerCount: 2
Fore
SplineSet
451 115 m 0,0,1
 489 115 489 115 524.5 120.5 c 128,-1,2
 560 126 560 126 586 137 c 1,3,4
 524 200 524 200 488.5 294 c 128,-1,5
 453 388 453 388 453 516 c 2,6,-1
 453 567 l 1,7,8
 381 562 381 562 332 541.5 c 128,-1,9
 283 521 283 521 252.5 490.5 c 128,-1,10
 222 460 222 460 208.5 422 c 128,-1,11
 195 384 195 384 195 342 c 0,12,13
 195 297 195 297 208.5 256 c 128,-1,14
 222 215 222 215 252.5 183.5 c 128,-1,15
 283 152 283 152 332 133.5 c 128,-1,16
 381 115 381 115 451 115 c 0,0,1
1342 819 m 0,17,18
 1319 819 1319 819 1292 810 c 128,-1,19
 1265 801 1265 801 1241.5 772 c 128,-1,20
 1218 743 1218 743 1201.5 689 c 128,-1,21
 1185 635 1185 635 1182 545 c 1,22,-1
 1497 545 l 1,23,24
 1497 625 1497 625 1484.5 677.5 c 128,-1,25
 1472 730 1472 730 1451 761.5 c 128,-1,26
 1430 793 1430 793 1401.5 806 c 128,-1,27
 1373 819 1373 819 1342 819 c 0,17,18
357 877 m 0,28,29
 336 877 336 877 312.5 870.5 c 128,-1,30
 289 864 289 864 266.5 855 c 128,-1,31
 244 846 244 846 224.5 835.5 c 128,-1,32
 205 825 205 825 191 817 c 0,33,34
 185 813 185 813 180 810 c 128,-1,35
 175 807 175 807 170 807 c 0,36,37
 161 807 161 807 153 820 c 2,38,-1
 119 875 l 2,39,40
 114 882 114 882 114 890 c 256,41,42
 114 898 114 898 120.5 904 c 128,-1,43
 127 910 127 910 133 914 c 0,44,45
 166 937 166 937 217 962.5 c 128,-1,46
 268 988 268 988 332 1009.5 c 128,-1,47
 396 1031 396 1031 471 1045 c 128,-1,48
 546 1059 546 1059 627 1059 c 0,49,50
 676 1059 676 1059 714 1054 c 128,-1,51
 752 1049 752 1049 782.5 1039 c 128,-1,52
 813 1029 813 1029 838 1015.5 c 128,-1,53
 863 1002 863 1002 887 985 c 1,54,55
 937 1016 937 1016 1007.5 1037.5 c 128,-1,56
 1078 1059 1078 1059 1163 1059 c 0,57,58
 1217 1059 1217 1059 1273.5 1048.5 c 128,-1,59
 1330 1038 1330 1038 1383 1013 c 128,-1,60
 1436 988 1436 988 1482.5 946 c 128,-1,61
 1529 904 1529 904 1564 842 c 128,-1,62
 1599 780 1599 780 1619 695 c 128,-1,63
 1639 610 1639 610 1639 499 c 2,64,-1
 1639 422 l 1,65,-1
 1186 422 l 1,66,67
 1195 347 1195 347 1215 298 c 128,-1,68
 1235 249 1235 249 1261.5 219.5 c 128,-1,69
 1288 190 1288 190 1318.5 178 c 128,-1,70
 1349 166 1349 166 1378 166 c 0,71,72
 1408 166 1408 166 1431.5 174 c 128,-1,73
 1455 182 1455 182 1472.5 192 c 128,-1,74
 1490 202 1490 202 1501 210 c 128,-1,75
 1512 218 1512 218 1517 218 c 0,76,77
 1525 218 1525 218 1533 206 c 2,78,-1
 1569 147 l 2,79,80
 1571 143 1571 143 1573 139.5 c 128,-1,81
 1575 136 1575 136 1575 133 c 0,82,83
 1575 126 1575 126 1570 121.5 c 128,-1,84
 1565 117 1565 117 1562 115 c 0,85,86
 1529 88 1529 88 1478 61 c 128,-1,87
 1427 34 1427 34 1361 12.5 c 128,-1,88
 1295 -9 1295 -9 1216.5 -22 c 128,-1,89
 1138 -35 1138 -35 1051 -35 c 0,90,91
 960 -35 960 -35 877.5 -17 c 128,-1,92
 795 1 795 1 717 41 c 1,93,94
 651 13 651 13 583 -0.5 c 128,-1,95
 515 -14 515 -14 449 -14 c 0,96,97
 362 -14 362 -14 289 9 c 128,-1,98
 216 32 216 32 163.5 77 c 128,-1,99
 111 122 111 122 82 188.5 c 128,-1,100
 53 255 53 255 53 342 c 0,101,102
 53 434 53 434 87 498 c 128,-1,103
 121 562 121 562 177 603 c 128,-1,104
 233 644 233 644 305 665 c 128,-1,105
 377 686 377 686 453 693 c 1,106,-1
 453 758 l 2,107,108
 453 797 453 797 445.5 820.5 c 128,-1,109
 438 844 438 844 425 856.5 c 128,-1,110
 412 869 412 869 394.5 873 c 128,-1,111
 377 877 377 877 357 877 c 0,28,29
EndSplineSet
EndChar

StartChar: Ccedilla
Encoding: 199 199 67
Width: 1282
Flags: W
LayerCount: 2
Fore
SplineSet
817 722 m 256,0,1
 817 599 817 599 827 509.5 c 128,-1,2
 837 420 837 420 853.5 357.5 c 128,-1,3
 870 295 870 295 892.5 256.5 c 128,-1,4
 915 218 915 218 939 196.5 c 128,-1,5
 963 175 963 175 987.5 167.5 c 128,-1,6
 1012 160 1012 160 1034 160 c 0,7,8
 1059 160 1059 160 1079 166.5 c 128,-1,9
 1099 173 1099 173 1115 181.5 c 128,-1,10
 1131 190 1131 190 1141.5 196.5 c 128,-1,11
 1152 203 1152 203 1158 203 c 0,12,13
 1166 203 1166 203 1172 194 c 2,14,-1
 1215 126 l 2,15,16
 1218 120 1218 120 1218 116 c 0,17,18
 1218 111 1218 111 1214 107.5 c 128,-1,19
 1210 104 1210 104 1207 101 c 0,20,21
 1178 78 1178 78 1133.5 54.5 c 128,-1,22
 1089 31 1089 31 1032.5 11.5 c 128,-1,23
 976 -8 976 -8 908 -21.5 c 128,-1,24
 840 -35 840 -35 764 -38 c 1,25,-1
 750 -107 l 1,26,27
 821 -118 821 -118 867.5 -140.5 c 128,-1,28
 914 -163 914 -163 942 -194 c 128,-1,29
 970 -225 970 -225 981 -261.5 c 128,-1,30
 992 -298 992 -298 992 -337 c 0,31,32
 992 -408 992 -408 962.5 -456.5 c 128,-1,33
 933 -505 933 -505 884 -535 c 128,-1,34
 835 -565 835 -565 772.5 -578 c 128,-1,35
 710 -591 710 -591 644 -591 c 0,36,37
 623 -591 623 -591 590 -588.5 c 128,-1,38
 557 -586 557 -586 525.5 -578 c 128,-1,39
 494 -570 494 -570 471.5 -556.5 c 128,-1,40
 449 -543 449 -543 449 -520 c 2,41,-1
 449 -424 l 2,42,43
 449 -414 449 -414 454 -410.5 c 128,-1,44
 459 -407 459 -407 464 -407 c 0,45,46
 476 -407 476 -407 491 -412 c 128,-1,47
 506 -417 506 -417 528 -423 c 128,-1,48
 550 -429 550 -429 580 -434 c 128,-1,49
 610 -439 610 -439 654 -439 c 0,50,51
 697 -439 697 -439 727 -430.5 c 128,-1,52
 757 -422 757 -422 776 -407 c 128,-1,53
 795 -392 795 -392 803 -373 c 128,-1,54
 811 -354 811 -354 811 -333 c 0,55,56
 811 -308 811 -308 800.5 -287.5 c 128,-1,57
 790 -267 790 -267 767 -252.5 c 128,-1,58
 744 -238 744 -238 707.5 -230 c 128,-1,59
 671 -222 671 -222 619 -222 c 0,60,61
 614 -222 614 -222 605.5 -220.5 c 128,-1,62
 597 -219 597 -219 597 -203 c 0,63,64
 597 -199 597 -199 600 -182.5 c 128,-1,65
 603 -166 603 -166 608 -142 c 128,-1,66
 613 -118 613 -118 618.5 -89.5 c 128,-1,67
 624 -61 624 -61 630 -33 c 1,68,69
 561 -25 561 -25 492 -3.5 c 128,-1,70
 423 18 423 18 359.5 57 c 128,-1,71
 296 96 296 96 241.5 154.5 c 128,-1,72
 187 213 187 213 147 294 c 128,-1,73
 107 375 107 375 84 481 c 128,-1,74
 61 587 61 587 61 722 c 0,75,76
 61 873 61 873 89.5 987.5 c 128,-1,77
 118 1102 118 1102 167 1186.5 c 128,-1,78
 216 1271 216 1271 281.5 1328 c 128,-1,79
 347 1385 347 1385 421 1419.5 c 128,-1,80
 495 1454 495 1454 573.5 1468.5 c 128,-1,81
 652 1483 652 1483 727 1483 c 0,82,83
 809 1483 809 1483 883 1470 c 128,-1,84
 957 1457 957 1457 1018.5 1437 c 128,-1,85
 1080 1417 1080 1417 1128 1392 c 128,-1,86
 1176 1367 1176 1367 1207 1343 c 0,87,88
 1210 1340 1210 1340 1214 1336.5 c 128,-1,89
 1218 1333 1218 1333 1218 1328 c 0,90,91
 1218 1324 1218 1324 1215 1318 c 2,92,-1
 1172 1250 l 2,93,94
 1166 1241 1166 1241 1158 1241 c 0,95,96
 1152 1241 1152 1241 1141.5 1247.5 c 128,-1,97
 1131 1254 1131 1254 1115 1262.5 c 128,-1,98
 1099 1271 1099 1271 1079 1277.5 c 128,-1,99
 1059 1284 1059 1284 1034 1284 c 0,100,101
 1012 1284 1012 1284 987.5 1276.5 c 128,-1,102
 963 1269 963 1269 939 1247.5 c 128,-1,103
 915 1226 915 1226 892.5 1187.5 c 128,-1,104
 870 1149 870 1149 853.5 1086.5 c 128,-1,105
 837 1024 837 1024 827 934.5 c 128,-1,106
 817 845 817 845 817 722 c 256,0,1
EndSplineSet
EndChar

StartChar: ccedilla
Encoding: 231 231 68
Width: 1206
Flags: W
LayerCount: 2
Fore
SplineSet
780 506 m 256,0,1
 780 405 780 405 801.5 338 c 128,-1,2
 823 271 823 271 856 231.5 c 128,-1,3
 889 192 889 192 927 176 c 128,-1,4
 965 160 965 160 998 160 c 0,5,6
 1023 160 1023 160 1044 166.5 c 128,-1,7
 1065 173 1065 173 1081 181.5 c 128,-1,8
 1097 190 1097 190 1108 196.5 c 128,-1,9
 1119 203 1119 203 1125 203 c 0,10,11
 1134 203 1134 203 1137.5 200 c 128,-1,12
 1141 197 1141 197 1146 189 c 2,13,-1
 1181 135 l 2,14,15
 1186 127 1186 127 1186 121 c 0,16,17
 1186 114 1186 114 1182 110 c 128,-1,18
 1178 106 1178 106 1174 103 c 0,19,20
 1143 81 1143 81 1099 57.5 c 128,-1,21
 1055 34 1055 34 997.5 13.5 c 128,-1,22
 940 -7 940 -7 869.5 -21.5 c 128,-1,23
 799 -36 799 -36 716 -40 c 1,24,-1
 702 -107 l 1,25,26
 773 -118 773 -118 819.5 -140.5 c 128,-1,27
 866 -163 866 -163 894 -194 c 128,-1,28
 922 -225 922 -225 933 -261.5 c 128,-1,29
 944 -298 944 -298 944 -337 c 0,30,31
 944 -408 944 -408 914.5 -456.5 c 128,-1,32
 885 -505 885 -505 836 -535 c 128,-1,33
 787 -565 787 -565 724.5 -578 c 128,-1,34
 662 -591 662 -591 596 -591 c 0,35,36
 575 -591 575 -591 542 -588.5 c 128,-1,37
 509 -586 509 -586 477.5 -578 c 128,-1,38
 446 -570 446 -570 423.5 -556.5 c 128,-1,39
 401 -543 401 -543 401 -520 c 2,40,-1
 401 -424 l 2,41,42
 401 -414 401 -414 406 -410.5 c 128,-1,43
 411 -407 411 -407 416 -407 c 0,44,45
 428 -407 428 -407 443 -412 c 128,-1,46
 458 -417 458 -417 480 -423 c 128,-1,47
 502 -429 502 -429 532 -434 c 128,-1,48
 562 -439 562 -439 606 -439 c 0,49,50
 649 -439 649 -439 679 -430.5 c 128,-1,51
 709 -422 709 -422 728 -407 c 128,-1,52
 747 -392 747 -392 755 -373 c 128,-1,53
 763 -354 763 -354 763 -333 c 0,54,55
 763 -308 763 -308 752.5 -287.5 c 128,-1,56
 742 -267 742 -267 719 -252.5 c 128,-1,57
 696 -238 696 -238 659.5 -230 c 128,-1,58
 623 -222 623 -222 571 -222 c 0,59,60
 566 -222 566 -222 557.5 -220.5 c 128,-1,61
 549 -219 549 -219 549 -203 c 0,62,63
 549 -199 549 -199 552 -183 c 128,-1,64
 555 -167 555 -167 560 -143.5 c 128,-1,65
 565 -120 565 -120 570.5 -92 c 128,-1,66
 576 -64 576 -64 582 -36 c 1,67,68
 480 -27 480 -27 384.5 7 c 128,-1,69
 289 41 289 41 215.5 106 c 128,-1,70
 142 171 142 171 97.5 269.5 c 128,-1,71
 53 368 53 368 53 506 c 0,72,73
 53 608 53 608 78 688.5 c 128,-1,74
 103 769 103 769 146.5 829.5 c 128,-1,75
 190 890 190 890 249 932.5 c 128,-1,76
 308 975 308 975 376.5 1002 c 128,-1,77
 445 1029 445 1029 520 1041 c 128,-1,78
 595 1053 595 1053 670 1053 c 0,79,80
 752 1053 752 1053 828 1040.5 c 128,-1,81
 904 1028 904 1028 968.5 1007.5 c 128,-1,82
 1033 987 1033 987 1084.5 962.5 c 128,-1,83
 1136 938 1136 938 1168 914 c 0,84,85
 1172 911 1172 911 1176 907 c 128,-1,86
 1180 903 1180 903 1180 896 c 256,87,88
 1180 889 1180 889 1175 882 c 2,89,-1
 1140 828 l 2,90,91
 1135 820 1135 820 1131.5 817 c 128,-1,92
 1128 814 1128 814 1119 814 c 0,93,94
 1113 814 1113 814 1103 820 c 128,-1,95
 1093 826 1093 826 1078 833.5 c 128,-1,96
 1063 841 1063 841 1043 847.5 c 128,-1,97
 1023 854 1023 854 998 854 c 0,98,99
 965 854 965 854 927 837.5 c 128,-1,100
 889 821 889 821 856 781 c 128,-1,101
 823 741 823 741 801.5 674 c 128,-1,102
 780 607 780 607 780 506 c 256,0,1
EndSplineSet
EndChar

StartChar: Eth
Encoding: 208 208 69
Width: 1423
Flags: W
LayerCount: 2
Fore
SplineSet
21 524 m 2,0,1
 0 524 0 524 0 546 c 2,2,-1
 0 647 l 2,3,4
 0 668 0 668 21 668 c 2,5,-1
 122 668 l 1,6,-1
 122 1296 l 2,7,8
 122 1331 122 1331 128 1357 c 128,-1,9
 134 1383 134 1383 151 1400.5 c 128,-1,10
 168 1418 168 1418 198 1427 c 128,-1,11
 228 1436 228 1436 276 1436 c 2,12,-1
 757 1436 l 2,13,14
 832 1436 832 1436 906 1425.5 c 128,-1,15
 980 1415 980 1415 1047 1388 c 128,-1,16
 1114 1361 1114 1361 1171.5 1313.5 c 128,-1,17
 1229 1266 1229 1266 1271 1191 c 128,-1,18
 1313 1116 1313 1116 1337 1011 c 128,-1,19
 1361 906 1361 906 1361 764 c 0,20,21
 1361 597 1361 597 1335.5 475.5 c 128,-1,22
 1310 354 1310 354 1266.5 269 c 128,-1,23
 1223 184 1223 184 1163.5 131.5 c 128,-1,24
 1104 79 1104 79 1035.5 49.5 c 128,-1,25
 967 20 967 20 893.5 10 c 128,-1,26
 820 0 820 0 747 0 c 2,27,-1
 276 0 l 2,28,29
 228 0 228 0 198 9 c 128,-1,30
 168 18 168 18 151 35 c 128,-1,31
 134 52 134 52 128 78 c 128,-1,32
 122 104 122 104 122 139 c 2,33,-1
 122 524 l 1,34,-1
 21 524 l 2,0,1
868 139 m 1,35,36
 961 140 961 140 1028 187.5 c 128,-1,37
 1095 235 1095 235 1137.5 317 c 128,-1,38
 1180 399 1180 399 1200 508.5 c 128,-1,39
 1220 618 1220 618 1220 743 c 0,40,41
 1220 867 1220 867 1200 969 c 128,-1,42
 1180 1071 1180 1071 1137 1143 c 128,-1,43
 1094 1215 1094 1215 1027.5 1255 c 128,-1,44
 961 1295 961 1295 868 1296 c 1,45,-1
 868 668 l 1,46,-1
 1027 668 l 2,47,48
 1048 668 1048 668 1048 647 c 2,49,-1
 1048 546 l 2,50,51
 1048 524 1048 524 1027 524 c 2,52,-1
 868 524 l 1,53,-1
 868 139 l 1,35,36
EndSplineSet
EndChar

StartChar: eth
Encoding: 240 240 70
Width: 1339
Flags: W
LayerCount: 2
Fore
SplineSet
509 1183 m 2,0,1
 503 1190 503 1190 503 1199 c 0,2,3
 503 1213 503 1213 517 1224 c 2,4,-1
 625 1311 l 1,5,6
 583 1342 583 1342 547 1364.5 c 128,-1,7
 511 1387 511 1387 483 1404 c 0,8,9
 478 1406 478 1406 473 1410 c 128,-1,10
 468 1414 468 1414 468 1422 c 0,11,12
 468 1429 468 1429 475 1440 c 2,13,-1
 540 1537 l 2,14,15
 551 1553 551 1553 562 1553 c 0,16,17
 567 1553 567 1553 571.5 1551.5 c 128,-1,18
 576 1550 576 1550 579 1548 c 0,19,20
 630 1523 630 1523 678.5 1494.5 c 128,-1,21
 727 1466 727 1466 775 1433 c 1,22,-1
 905 1538 l 2,23,24
 918 1548 918 1548 928 1548 c 256,25,26
 938 1548 938 1548 946 1538 c 2,27,-1
 1003 1470 l 2,28,29
 1006 1466 1006 1466 1008.5 1461 c 128,-1,30
 1011 1456 1011 1456 1011 1451 c 0,31,32
 1011 1440 1011 1440 1001 1433 c 2,33,-1
 889 1342 l 1,34,35
 975 1265 975 1265 1048 1173 c 128,-1,36
 1121 1081 1121 1081 1174 975 c 128,-1,37
 1227 869 1227 869 1256.5 750 c 128,-1,38
 1286 631 1286 631 1286 502 c 0,39,40
 1286 390 1286 390 1260 306.5 c 128,-1,41
 1234 223 1234 223 1188.5 163.5 c 128,-1,42
 1143 104 1143 104 1083 65.5 c 128,-1,43
 1023 27 1023 27 954.5 4.5 c 128,-1,44
 886 -18 886 -18 813 -26.5 c 128,-1,45
 740 -35 740 -35 670 -35 c 0,46,47
 595 -35 595 -35 520 -23.5 c 128,-1,48
 445 -12 445 -12 376.5 13.5 c 128,-1,49
 308 39 308 39 249 79.5 c 128,-1,50
 190 120 190 120 146.5 179 c 128,-1,51
 103 238 103 238 78 316 c 128,-1,52
 53 394 53 394 53 494 c 0,53,54
 53 593 53 593 78 671 c 128,-1,55
 103 749 103 749 146.5 808 c 128,-1,56
 190 867 190 867 249 908 c 128,-1,57
 308 949 308 949 376.5 975 c 128,-1,58
 445 1001 445 1001 520 1012.5 c 128,-1,59
 595 1024 595 1024 670 1024 c 0,60,61
 735 1024 735 1024 801 1016.5 c 128,-1,62
 867 1009 867 1009 933 990 c 1,63,64
 888 1058 888 1058 838 1115 c 128,-1,65
 788 1172 788 1172 737 1219 c 1,66,-1
 607 1113 l 2,67,68
 595 1104 595 1104 586 1104 c 0,69,70
 578 1104 578 1104 571.5 1108.5 c 128,-1,71
 565 1113 565 1113 560 1119 c 2,72,-1
 509 1183 l 2,0,1
977 205 m 0,73,74
 1008 205 1008 205 1038.5 217.5 c 128,-1,75
 1069 230 1069 230 1092.5 263.5 c 128,-1,76
 1116 297 1116 297 1130.5 354.5 c 128,-1,77
 1145 412 1145 412 1145 502 c 0,78,79
 1145 587 1145 587 1130.5 642 c 128,-1,80
 1116 697 1116 697 1092 728.5 c 128,-1,81
 1068 760 1068 760 1038 772 c 128,-1,82
 1008 784 1008 784 977 784 c 0,83,84
 953 784 953 784 923.5 774.5 c 128,-1,85
 894 765 894 765 868.5 735 c 128,-1,86
 843 705 843 705 826 647.5 c 128,-1,87
 809 590 809 590 809 494 c 0,88,89
 809 399 809 399 823 342 c 128,-1,90
 837 285 837 285 860 254.5 c 128,-1,91
 883 224 883 224 913.5 214.5 c 128,-1,92
 944 205 944 205 977 205 c 0,73,74
EndSplineSet
EndChar

StartChar: Ecircumflex
Encoding: 202 202 75
Width: 1309
Flags: W
LayerCount: 2
Fore
SplineSet
664 1692 m 1
 440 1534 l 2
 436 1532 436 1532 433 1530 c 0
 430 1528 430 1528 427 1528 c 0
 417 1528 417 1528 410 1538 c 2
 343 1626 l 2
 337 1633 337 1633 337 1640 c 256
 337 1647 337 1647 346 1655 c 2
 650 1913 l 2
 653 1915 653 1915 656 1917 c 0
 659 1919 659 1919 664 1919 c 256
 669 1919 669 1919 672 1917 c 0
 675 1915 675 1915 678 1913 c 2
 982 1655 l 2
 991 1647 991 1647 991 1640 c 256
 991 1633 991 1633 985 1626 c 2
 918 1538 l 2
 910 1528 910 1528 901 1528 c 0
 898 1528 898 1528 895 1530 c 0
 892 1532 892 1532 888 1534 c 2
 664 1692 l 1
EndSplineSet
Refer: 4 69 N 1 0 0 1 0 0 3
EndChar

StartChar: ecircumflex
Encoding: 234 234 76
Width: 1311
Flags: W
LayerCount: 2
Fore
SplineSet
654 1323 m 1
 430 1165 l 2
 426 1163 426 1163 423 1161 c 0
 420 1159 420 1159 417 1159 c 0
 407 1159 407 1159 400 1169 c 2
 333 1257 l 2
 327 1264 327 1264 327 1271 c 256
 327 1278 327 1278 336 1286 c 2
 640 1544 l 2
 643 1546 643 1546 646 1548 c 0
 649 1550 649 1550 654 1550 c 256
 659 1550 659 1550 662 1548 c 0
 665 1546 665 1546 668 1544 c 2
 972 1286 l 2
 981 1278 981 1278 981 1271 c 256
 981 1264 981 1264 975 1257 c 2
 908 1169 l 2
 900 1159 900 1159 891 1159 c 0
 888 1159 888 1159 885 1161 c 0
 882 1163 882 1163 878 1165 c 2
 654 1323 l 1
EndSplineSet
Refer: 30 101 N 1 0 0 1 0 0 3
EndChar

StartChar: igrave
Encoding: 236 236 80
Width: 921
Flags: W
LayerCount: 2
Fore
SplineSet
92 885 m 2
 92 919 92 919 98 945.5 c 0
 104 972 104 972 121 989 c 0
 138 1006 138 1006 168 1015 c 0
 198 1024 198 1024 246 1024 c 2
 684 1024 l 2
 730 1024 730 1024 758.5 1015.5 c 0
 787 1007 787 1007 803 990 c 0
 819 973 819 973 824 947 c 0
 829 921 829 921 829 885 c 2
 829 137 l 2
 829 103 829 103 824 77.5 c 0
 819 52 819 52 803 34.5 c 0
 787 17 787 17 758.5 8.5 c 0
 730 0 730 0 684 0 c 2
 246 0 l 2
 198 0 198 0 168 9 c 0
 138 18 138 18 121 35 c 0
 104 52 104 52 98 78 c 0
 92 104 92 104 92 139 c 2
 92 885 l 2
EndSplineSet
Refer: 183 96 N 1 0 0 1 58 0 2
EndChar

StartChar: iacute
Encoding: 237 237 82
Width: 921
Flags: W
LayerCount: 2
Fore
SplineSet
92 885 m 2
 92 919 92 919 98 945.5 c 0
 104 972 104 972 121 989 c 0
 138 1006 138 1006 168 1015 c 0
 198 1024 198 1024 246 1024 c 2
 684 1024 l 2
 730 1024 730 1024 758.5 1015.5 c 0
 787 1007 787 1007 803 990 c 0
 819 973 819 973 824 947 c 0
 829 921 829 921 829 885 c 2
 829 137 l 2
 829 103 829 103 824 77.5 c 0
 819 52 819 52 803 34.5 c 0
 787 17 787 17 758.5 8.5 c 0
 730 0 730 0 684 0 c 2
 246 0 l 2
 198 0 198 0 168 9 c 0
 138 18 138 18 121 35 c 0
 104 52 104 52 98 78 c 0
 92 104 92 104 92 139 c 2
 92 885 l 2
EndSplineSet
Refer: 184 180 N 1 0 0 1 58 0 2
EndChar

StartChar: Icircumflex
Encoding: 206 206 83
Width: 931
Flags: W
LayerCount: 2
Fore
SplineSet
469 1692 m 1
 245 1534 l 2
 241 1532 241 1532 238 1530 c 0
 235 1528 235 1528 232 1528 c 0
 222 1528 222 1528 215 1538 c 2
 148 1626 l 2
 142 1633 142 1633 142 1640 c 256
 142 1647 142 1647 151 1655 c 2
 455 1913 l 2
 458 1915 458 1915 461 1917 c 0
 464 1919 464 1919 469 1919 c 256
 474 1919 474 1919 477 1917 c 0
 480 1915 480 1915 483 1913 c 2
 787 1655 l 2
 796 1647 796 1647 796 1640 c 256
 796 1633 796 1633 790 1626 c 2
 723 1538 l 2
 715 1528 715 1528 706 1528 c 0
 703 1528 703 1528 700 1530 c 0
 697 1532 697 1532 693 1534 c 2
 469 1692 l 1
EndSplineSet
Refer: 8 73 N 1 0 0 1 0 0 3
EndChar

StartChar: icircumflex
Encoding: 238 238 84
Width: 921
Flags: W
LayerCount: 2
Fore
SplineSet
468 1323 m 1
 244 1165 l 2
 240 1163 240 1163 237 1161 c 0
 234 1159 234 1159 231 1159 c 0
 221 1159 221 1159 214 1169 c 2
 147 1257 l 2
 141 1264 141 1264 141 1271 c 256
 141 1278 141 1278 150 1286 c 2
 454 1544 l 2
 457 1546 457 1546 460 1548 c 0
 463 1550 463 1550 468 1550 c 256
 473 1550 473 1550 476 1548 c 0
 479 1546 479 1546 482 1544 c 2
 786 1286 l 2
 795 1278 795 1278 795 1271 c 256
 795 1264 795 1264 789 1257 c 2
 722 1169 l 2
 714 1159 714 1159 705 1159 c 0
 702 1159 702 1159 699 1161 c 0
 696 1163 696 1163 692 1165 c 2
 468 1323 l 1
92 885 m 2
 92 919 92 919 98 945.5 c 0
 104 972 104 972 121 989 c 0
 138 1006 138 1006 168 1015 c 0
 198 1024 198 1024 246 1024 c 2
 684 1024 l 2
 730 1024 730 1024 758.5 1015.5 c 0
 787 1007 787 1007 803 990 c 0
 819 973 819 973 824 947 c 0
 829 921 829 921 829 885 c 2
 829 137 l 2
 829 103 829 103 824 77.5 c 0
 819 52 819 52 803 34.5 c 0
 787 17 787 17 758.5 8.5 c 0
 730 0 730 0 684 0 c 2
 246 0 l 2
 198 0 198 0 168 9 c 0
 138 18 138 18 121 35 c 0
 104 52 104 52 98 78 c 0
 92 104 92 104 92 139 c 2
 92 885 l 2
EndSplineSet
EndChar

StartChar: idieresis
Encoding: 239 239 86
Width: 921
Flags: W
LayerCount: 2
Fore
SplineSet
92 885 m 2
 92 919 92 919 98 945.5 c 0
 104 972 104 972 121 989 c 0
 138 1006 138 1006 168 1015 c 0
 198 1024 198 1024 246 1024 c 2
 684 1024 l 2
 730 1024 730 1024 758.5 1015.5 c 0
 787 1007 787 1007 803 990 c 0
 819 973 819 973 824 947 c 0
 829 921 829 921 829 885 c 2
 829 137 l 2
 829 103 829 103 824 77.5 c 0
 819 52 819 52 803 34.5 c 0
 787 17 787 17 758.5 8.5 c 0
 730 0 730 0 684 0 c 2
 246 0 l 2
 198 0 198 0 168 9 c 0
 138 18 138 18 121 35 c 0
 104 52 104 52 98 78 c 0
 92 104 92 104 92 139 c 2
 92 885 l 2
EndSplineSet
Refer: 185 168 N 1 0 0 1 58 0 2
EndChar

StartChar: Ntilde
Encoding: 209 209 87
Width: 1380
Flags: W
LayerCount: 2
Fore
SplineSet
1010 1895 m 2
 1024 1895 1024 1895 1025.5 1885 c 0
 1027 1875 1027 1875 1025 1864 c 0
 1017 1813 1017 1813 1000 1767 c 0
 983 1721 983 1721 957.5 1686.5 c 0
 932 1652 932 1652 898.5 1631.5 c 0
 865 1611 865 1611 824 1611 c 0
 788 1611 788 1611 753 1626 c 0
 718 1641 718 1641 686.5 1659 c 0
 655 1677 655 1677 629 1692 c 0
 603 1707 603 1707 586 1707 c 0
 563 1707 563 1707 549.5 1700 c 0
 536 1693 536 1693 527.5 1681 c 0
 519 1669 519 1669 515.5 1653.5 c 0
 512 1638 512 1638 510 1622 c 0
 509 1616 509 1616 503.5 1613.5 c 0
 498 1611 498 1611 477 1611 c 2
 377 1611 l 2
 367 1611 367 1611 363.5 1615 c 0
 360 1619 360 1619 359.5 1625 c 0
 359 1631 359 1631 360.5 1636.5 c 0
 362 1642 362 1642 362 1645 c 0
 368 1695 368 1695 385 1740 c 0
 402 1785 402 1785 428 1818.5 c 0
 454 1852 454 1852 488 1872 c 0
 522 1892 522 1892 563 1892 c 0
 599 1892 599 1892 634 1877 c 0
 669 1862 669 1862 700.5 1844.5 c 0
 732 1827 732 1827 758 1812 c 0
 784 1797 784 1797 801 1797 c 0
 824 1797 824 1797 838 1804.5 c 0
 852 1812 852 1812 860.5 1824 c 0
 869 1836 869 1836 872.5 1851.5 c 0
 876 1867 876 1867 878 1884 c 0
 879 1890 879 1890 883 1892.5 c 0
 887 1895 887 1895 903 1895 c 2
 1010 1895 l 2
EndSplineSet
Refer: 13 78 N 1 0 0 1 0 0 3
EndChar

StartChar: ntilde
Encoding: 241 241 88
Width: 1245
Flags: W
LayerCount: 2
Fore
SplineSet
939 1483 m 2
 953 1483 953 1483 954.5 1473 c 0
 956 1463 956 1463 954 1452 c 0
 946 1401 946 1401 929 1355 c 0
 912 1309 912 1309 886.5 1274.5 c 0
 861 1240 861 1240 827.5 1219.5 c 0
 794 1199 794 1199 753 1199 c 0
 717 1199 717 1199 682 1214 c 0
 647 1229 647 1229 615.5 1247 c 0
 584 1265 584 1265 558 1280 c 0
 532 1295 532 1295 515 1295 c 0
 492 1295 492 1295 478.5 1288 c 0
 465 1281 465 1281 456.5 1269 c 0
 448 1257 448 1257 444.5 1241.5 c 0
 441 1226 441 1226 439 1210 c 0
 438 1204 438 1204 432.5 1201.5 c 0
 427 1199 427 1199 406 1199 c 2
 306 1199 l 2
 296 1199 296 1199 292.5 1203 c 0
 289 1207 289 1207 288.5 1213 c 0
 288 1219 288 1219 289.5 1224.5 c 0
 291 1230 291 1230 291 1233 c 0
 297 1283 297 1283 314 1328 c 0
 331 1373 331 1373 357 1406.5 c 0
 383 1440 383 1440 417 1460 c 0
 451 1480 451 1480 492 1480 c 0
 528 1480 528 1480 563 1465 c 0
 598 1450 598 1450 629.5 1432.5 c 0
 661 1415 661 1415 687 1400 c 0
 713 1385 713 1385 730 1385 c 0
 753 1385 753 1385 767 1392.5 c 0
 781 1400 781 1400 789.5 1412 c 0
 798 1424 798 1424 801.5 1439.5 c 0
 805 1455 805 1455 807 1472 c 0
 808 1478 808 1478 812 1480.5 c 0
 816 1483 816 1483 832 1483 c 2
 939 1483 l 2
EndSplineSet
Refer: 39 110 N 1 0 0 1 0 0 3
EndChar

StartChar: Ocircumflex
Encoding: 212 212 93
Width: 1454
Flags: W
LayerCount: 2
Fore
SplineSet
727 1735 m 1
 503 1577 l 2
 499 1575 499 1575 496 1573 c 0
 493 1571 493 1571 490 1571 c 0
 480 1571 480 1571 473 1581 c 2
 406 1669 l 2
 400 1676 400 1676 400 1683 c 256
 400 1690 400 1690 409 1698 c 2
 713 1956 l 2
 716 1958 716 1958 719 1960 c 0
 722 1962 722 1962 727 1962 c 256
 732 1962 732 1962 735 1960 c 0
 738 1958 738 1958 741 1956 c 2
 1045 1698 l 2
 1054 1690 1054 1690 1054 1683 c 256
 1054 1676 1054 1676 1048 1669 c 2
 981 1581 l 2
 973 1571 973 1571 964 1571 c 0
 961 1571 961 1571 958 1573 c 0
 955 1575 955 1575 951 1577 c 2
 727 1735 l 1
EndSplineSet
Refer: 14 79 N 1 0 0 1 0 0 3
EndChar

StartChar: ocircumflex
Encoding: 244 244 94
Width: 1339
Flags: W
LayerCount: 2
Fore
SplineSet
669 1323 m 1
 445 1165 l 2
 441 1163 441 1163 438 1161 c 0
 435 1159 435 1159 432 1159 c 0
 422 1159 422 1159 415 1169 c 2
 348 1257 l 2
 342 1264 342 1264 342 1271 c 256
 342 1278 342 1278 351 1286 c 2
 655 1544 l 2
 658 1546 658 1546 661 1548 c 0
 664 1550 664 1550 669 1550 c 256
 674 1550 674 1550 677 1548 c 0
 680 1546 680 1546 683 1544 c 2
 987 1286 l 2
 996 1278 996 1278 996 1271 c 256
 996 1264 996 1264 990 1257 c 2
 923 1169 l 2
 915 1159 915 1159 906 1159 c 0
 903 1159 903 1159 900 1161 c 0
 897 1163 897 1163 893 1165 c 2
 669 1323 l 1
EndSplineSet
Refer: 40 111 N 1 0 0 1 0 0 3
EndChar

StartChar: Otilde
Encoding: 213 213 95
Width: 1454
Flags: W
LayerCount: 2
Fore
SplineSet
1047 1895 m 2
 1061 1895 1061 1895 1062.5 1885 c 0
 1064 1875 1064 1875 1062 1864 c 0
 1054 1813 1054 1813 1037 1767 c 0
 1020 1721 1020 1721 994.5 1686.5 c 0
 969 1652 969 1652 935.5 1631.5 c 0
 902 1611 902 1611 861 1611 c 0
 825 1611 825 1611 790 1626 c 0
 755 1641 755 1641 723.5 1659 c 0
 692 1677 692 1677 666 1692 c 0
 640 1707 640 1707 623 1707 c 0
 600 1707 600 1707 586.5 1700 c 0
 573 1693 573 1693 564.5 1681 c 0
 556 1669 556 1669 552.5 1653.5 c 0
 549 1638 549 1638 547 1622 c 0
 546 1616 546 1616 540.5 1613.5 c 0
 535 1611 535 1611 514 1611 c 2
 414 1611 l 2
 404 1611 404 1611 400.5 1615 c 0
 397 1619 397 1619 396.5 1625 c 0
 396 1631 396 1631 397.5 1636.5 c 0
 399 1642 399 1642 399 1645 c 0
 405 1695 405 1695 422 1740 c 0
 439 1785 439 1785 465 1818.5 c 0
 491 1852 491 1852 525 1872 c 0
 559 1892 559 1892 600 1892 c 0
 636 1892 636 1892 671 1877 c 0
 706 1862 706 1862 737.5 1844.5 c 0
 769 1827 769 1827 795 1812 c 0
 821 1797 821 1797 838 1797 c 0
 861 1797 861 1797 875 1804.5 c 0
 889 1812 889 1812 897.5 1824 c 0
 906 1836 906 1836 909.5 1851.5 c 0
 913 1867 913 1867 915 1884 c 0
 916 1890 916 1890 920 1892.5 c 0
 924 1895 924 1895 940 1895 c 2
 1047 1895 l 2
EndSplineSet
Refer: 14 79 N 1 0 0 1 0 0 3
EndChar

StartChar: otilde
Encoding: 245 245 96
Width: 1339
Flags: W
LayerCount: 2
Fore
SplineSet
989 1483 m 2
 1003 1483 1003 1483 1004.5 1473 c 0
 1006 1463 1006 1463 1004 1452 c 0
 996 1401 996 1401 979 1355 c 0
 962 1309 962 1309 936.5 1274.5 c 0
 911 1240 911 1240 877.5 1219.5 c 0
 844 1199 844 1199 803 1199 c 0
 767 1199 767 1199 732 1214 c 0
 697 1229 697 1229 665.5 1247 c 0
 634 1265 634 1265 608 1280 c 0
 582 1295 582 1295 565 1295 c 0
 542 1295 542 1295 528.5 1288 c 0
 515 1281 515 1281 506.5 1269 c 0
 498 1257 498 1257 494.5 1241.5 c 0
 491 1226 491 1226 489 1210 c 0
 488 1204 488 1204 482.5 1201.5 c 0
 477 1199 477 1199 456 1199 c 2
 356 1199 l 2
 346 1199 346 1199 342.5 1203 c 0
 339 1207 339 1207 338.5 1213 c 0
 338 1219 338 1219 339.5 1224.5 c 0
 341 1230 341 1230 341 1233 c 0
 347 1283 347 1283 364 1328 c 0
 381 1373 381 1373 407 1406.5 c 0
 433 1440 433 1440 467 1460 c 0
 501 1480 501 1480 542 1480 c 0
 578 1480 578 1480 613 1465 c 0
 648 1450 648 1450 679.5 1432.5 c 0
 711 1415 711 1415 737 1400 c 0
 763 1385 763 1385 780 1385 c 0
 803 1385 803 1385 817 1392.5 c 0
 831 1400 831 1400 839.5 1412 c 0
 848 1424 848 1424 851.5 1439.5 c 0
 855 1455 855 1455 857 1472 c 0
 858 1478 858 1478 862 1480.5 c 0
 866 1483 866 1483 882 1483 c 2
 989 1483 l 2
EndSplineSet
Refer: 40 111 N 1 0 0 1 0 0 3
EndChar

StartChar: Oslash
Encoding: 216 216 99
Width: 1475
Flags: W
LayerCount: 2
Fore
SplineSet
1331 1107 m 1,0,1
 1360 1031 1360 1031 1376.5 936 c 128,-1,2
 1393 841 1393 841 1393 723 c 0,3,4
 1393 571 1393 571 1366 455 c 128,-1,5
 1339 339 1339 339 1292 254.5 c 128,-1,6
 1245 170 1245 170 1181 113.5 c 128,-1,7
 1117 57 1117 57 1043 23 c 128,-1,8
 969 -11 969 -11 888 -25 c 128,-1,9
 807 -39 807 -39 727 -39 c 0,10,11
 688 -39 688 -39 651 -36 c 1,12,-1
 483 -320 l 2,13,14
 476 -333 476 -333 462 -333 c 0,15,16
 452 -333 452 -333 446 -328 c 2,17,-1
 378 -281 l 2,18,19
 373 -277 373 -277 369.5 -272.5 c 128,-1,20
 366 -268 366 -268 366 -260 c 0,21,22
 366 -253 366 -253 372 -242 c 2,23,-1
 508 -12 l 1,24,25
 418 12 418 12 336.5 64 c 128,-1,26
 255 116 255 116 194 203.5 c 128,-1,27
 133 291 133 291 97 418.5 c 128,-1,28
 61 546 61 546 61 723 c 0,29,30
 61 875 61 875 88 991 c 128,-1,31
 115 1107 115 1107 162.5 1191.5 c 128,-1,32
 210 1276 210 1276 274 1332 c 128,-1,33
 338 1388 338 1388 412 1421.5 c 128,-1,34
 486 1455 486 1455 566.5 1469 c 128,-1,35
 647 1483 647 1483 727 1483 c 0,36,37
 800 1483 800 1483 873.5 1471.5 c 128,-1,38
 947 1460 947 1460 1016 1432.5 c 128,-1,39
 1085 1405 1085 1405 1146 1359.5 c 128,-1,40
 1207 1314 1207 1314 1256 1247 c 1,41,-1
 1399 1488 l 2,42,43
 1406 1501 1406 1501 1419 1501 c 0,44,45
 1427 1501 1427 1501 1435 1496 c 2,46,-1
 1506 1450 l 2,47,48
 1518 1442 1518 1442 1518 1431 c 0,49,50
 1518 1422 1518 1422 1512 1412 c 2,51,-1
 1331 1107 l 1,0,1
1251 723 m 0,52,53
 1251 789 1251 789 1245.5 842 c 128,-1,54
 1240 895 1240 895 1231 939 c 1,55,-1
 891 368 l 1,56,57
 921 323 921 323 958.5 304 c 128,-1,58
 996 285 996 285 1034 285 c 0,59,60
 1075 285 1075 285 1114 306.5 c 128,-1,61
 1153 328 1153 328 1183.5 379 c 128,-1,62
 1214 430 1214 430 1232.5 514 c 128,-1,63
 1251 598 1251 598 1251 723 c 0,52,53
817 723 m 0,64,65
 817 612 817 612 832 533 c 1,66,-1
 1165 1094 l 1,67,68
 1136 1130 1136 1130 1102.5 1145.5 c 128,-1,69
 1069 1161 1069 1161 1034 1161 c 0,70,71
 993 1161 993 1161 954.5 1139.5 c 128,-1,72
 916 1118 916 1118 885 1067 c 128,-1,73
 854 1016 854 1016 835.5 932 c 128,-1,74
 817 848 817 848 817 723 c 0,64,65
EndSplineSet
EndChar

StartChar: oslash
Encoding: 248 248 100
Width: 1339
Flags: W
LayerCount: 2
Fore
SplineSet
1224 803 m 1,0,1
 1253 748 1253 748 1269.5 678 c 128,-1,2
 1286 608 1286 608 1286 520 c 0,3,4
 1286 411 1286 411 1263 328.5 c 128,-1,5
 1240 246 1240 246 1200 185.5 c 128,-1,6
 1160 125 1160 125 1106 84.5 c 128,-1,7
 1052 44 1052 44 990 18.5 c 128,-1,8
 928 -7 928 -7 860.5 -19 c 128,-1,9
 793 -31 793 -31 726 -34 c 1,10,-1
 556 -320 l 2,11,12
 549 -333 549 -333 535 -333 c 0,13,14
 525 -333 525 -333 519 -328 c 2,15,-1
 451 -281 l 2,16,17
 446 -277 446 -277 442.5 -272.5 c 128,-1,18
 439 -268 439 -268 439 -260 c 0,19,20
 439 -253 439 -253 445 -242 c 2,21,-1
 571 -30 l 1,22,23
 504 -23 504 -23 439.5 -6 c 128,-1,24
 375 11 375 11 317.5 40.5 c 128,-1,25
 260 70 260 70 211.5 113 c 128,-1,26
 163 156 163 156 128 214 c 128,-1,27
 93 272 93 272 73 346 c 128,-1,28
 53 420 53 420 53 512 c 0,29,30
 53 614 53 614 78 694.5 c 128,-1,31
 103 775 103 775 146.5 836 c 128,-1,32
 190 897 190 897 249 939.5 c 128,-1,33
 308 982 308 982 376.5 1008.5 c 128,-1,34
 445 1035 445 1035 520 1047 c 128,-1,35
 595 1059 595 1059 670 1059 c 0,36,37
 730 1059 730 1059 792.5 1052.5 c 128,-1,38
 855 1046 855 1046 915.5 1030 c 128,-1,39
 976 1014 976 1014 1031.5 987 c 128,-1,40
 1087 960 1087 960 1134 918 c 1,41,-1
 1271 1148 l 2,42,43
 1278 1161 1278 1161 1291 1161 c 0,44,45
 1299 1161 1299 1161 1307 1156 c 2,46,-1
 1378 1110 l 2,47,48
 1390 1102 1390 1102 1390 1091 c 0,49,50
 1390 1082 1390 1082 1384 1072 c 2,51,-1
 1224 803 l 1,0,1
977 205 m 0,52,53
 1008 205 1008 205 1038.5 218.5 c 128,-1,54
 1069 232 1069 232 1092.5 267 c 128,-1,55
 1116 302 1116 302 1130.5 363.5 c 128,-1,56
 1145 425 1145 425 1145 520 c 0,57,58
 1145 559 1145 559 1142 591.5 c 128,-1,59
 1139 624 1139 624 1134 651 c 1,60,-1
 884 232 l 1,61,62
 904 215 904 215 927.5 210 c 128,-1,63
 951 205 951 205 977 205 c 0,52,53
809 512 m 0,64,65
 809 474 809 474 811 442 c 128,-1,66
 813 410 813 410 817 384 c 1,67,-1
 1060 792 l 1,68,69
 1040 807 1040 807 1019 813 c 128,-1,70
 998 819 998 819 977 819 c 0,71,72
 953 819 953 819 924 809 c 128,-1,73
 895 799 895 799 869.5 766.5 c 128,-1,74
 844 734 844 734 826.5 673.5 c 128,-1,75
 809 613 809 613 809 512 c 0,64,65
EndSplineSet
EndChar

StartChar: Thorn
Encoding: 222 222 101
Width: 1294
Flags: W
LayerCount: 2
Fore
SplineSet
92 1296 m 2,0,1
 92 1331 92 1331 98 1357 c 128,-1,2
 104 1383 104 1383 121 1400.5 c 128,-1,3
 138 1418 138 1418 168 1427 c 128,-1,4
 198 1436 198 1436 246 1436 c 2,5,-1
 692 1436 l 2,6,7
 738 1436 738 1436 767 1427.5 c 128,-1,8
 796 1419 796 1419 811.5 1402 c 128,-1,9
 827 1385 827 1385 832.5 1359 c 128,-1,10
 838 1333 838 1333 838 1298 c 2,11,-1
 838 1157 l 1,12,13
 923 1145 923 1145 998.5 1118.5 c 128,-1,14
 1074 1092 1074 1092 1130.5 1043.5 c 128,-1,15
 1187 995 1187 995 1220 921.5 c 128,-1,16
 1253 848 1253 848 1253 743 c 0,17,18
 1253 620 1253 620 1219.5 535.5 c 128,-1,19
 1186 451 1186 451 1129 396.5 c 128,-1,20
 1072 342 1072 342 996.5 312.5 c 128,-1,21
 921 283 921 283 838 271 c 1,22,-1
 838 133 l 2,23,24
 838 99 838 99 833 74 c 128,-1,25
 828 49 828 49 813 32.5 c 128,-1,26
 798 16 798 16 771.5 8 c 128,-1,27
 745 0 745 0 703 0 c 2,28,-1
 225 0 l 2,29,30
 185 0 185 0 159.5 9 c 128,-1,31
 134 18 134 18 119 35 c 128,-1,32
 104 52 104 52 98 78 c 128,-1,33
 92 104 92 104 92 139 c 2,34,-1
 92 1296 l 2,0,1
1112 729 m 0,35,36
 1112 789 1112 789 1096 839 c 128,-1,37
 1080 889 1080 889 1047 927.5 c 128,-1,38
 1014 966 1014 966 962 991 c 128,-1,39
 910 1016 910 1016 838 1025 c 1,40,-1
 838 403 l 1,41,42
 910 414 910 414 962 443.5 c 128,-1,43
 1014 473 1014 473 1047 516 c 128,-1,44
 1080 559 1080 559 1096 613.5 c 128,-1,45
 1112 668 1112 668 1112 729 c 0,35,36
EndSplineSet
EndChar

StartChar: thorn
Encoding: 254 254 102
Width: 1319
Flags: W
LayerCount: 2
Fore
SplineSet
92 1499 m 2,0,1
 92 1533 92 1533 98 1559.5 c 128,-1,2
 104 1586 104 1586 121 1603 c 128,-1,3
 138 1620 138 1620 168 1629 c 128,-1,4
 198 1638 198 1638 246 1638 c 2,5,-1
 687 1638 l 2,6,7
 766 1638 766 1638 797.5 1602 c 128,-1,8
 829 1566 829 1566 829 1493 c 2,9,-1
 829 1033 l 1,10,11
 917 1018 917 1018 996.5 982 c 128,-1,12
 1076 946 1076 946 1136 884.5 c 128,-1,13
 1196 823 1196 823 1231 732.5 c 128,-1,14
 1266 642 1266 642 1266 518 c 0,15,16
 1266 392 1266 392 1230 300.5 c 128,-1,17
 1194 209 1194 209 1134 147 c 128,-1,18
 1074 85 1074 85 995 49.5 c 128,-1,19
 916 14 916 14 829 0 c 1,20,-1
 829 -272 l 2,21,22
 829 -308 829 -308 823 -334 c 128,-1,23
 817 -360 817 -360 801.5 -377.5 c 128,-1,24
 786 -395 786 -395 757.5 -403.5 c 128,-1,25
 729 -412 729 -412 684 -412 c 2,26,-1
 246 -412 l 2,27,28
 198 -412 198 -412 168 -403 c 128,-1,29
 138 -394 138 -394 121 -376.5 c 128,-1,30
 104 -359 104 -359 98 -333 c 128,-1,31
 92 -307 92 -307 92 -272 c 2,32,-1
 92 1499 l 2,0,1
1124 519 m 256,33,34
 1124 596 1124 596 1107 662 c 128,-1,35
 1090 728 1090 728 1054 779 c 128,-1,36
 1018 830 1018 830 962.5 862.5 c 128,-1,37
 907 895 907 895 829 904 c 1,38,-1
 829 128 l 1,39,40
 907 138 907 138 962.5 171 c 128,-1,41
 1018 204 1018 204 1054 256 c 128,-1,42
 1090 308 1090 308 1107 375 c 128,-1,43
 1124 442 1124 442 1124 519 c 256,33,34
EndSplineSet
EndChar

StartChar: Ucircumflex
Encoding: 219 219 107
Width: 1294
Flags: W
LayerCount: 2
Fore
SplineSet
682 1692 m 1
 458 1534 l 2
 454 1532 454 1532 451 1530 c 0
 448 1528 448 1528 445 1528 c 0
 435 1528 435 1528 428 1538 c 2
 361 1626 l 2
 355 1633 355 1633 355 1640 c 256
 355 1647 355 1647 364 1655 c 2
 668 1913 l 2
 671 1915 671 1915 674 1917 c 0
 677 1919 677 1919 682 1919 c 256
 687 1919 687 1919 690 1917 c 0
 693 1915 693 1915 696 1913 c 2
 1000 1655 l 2
 1009 1647 1009 1647 1009 1640 c 256
 1009 1633 1009 1633 1003 1626 c 2
 936 1538 l 2
 928 1528 928 1528 919 1528 c 0
 916 1528 916 1528 913 1530 c 0
 910 1532 910 1532 906 1534 c 2
 682 1692 l 1
EndSplineSet
Refer: 20 85 N 1 0 0 1 0 0 3
EndChar

StartChar: ucircumflex
Encoding: 251 251 108
Width: 1245
Flags: W
LayerCount: 2
Fore
SplineSet
673 1323 m 1
 449 1165 l 2
 445 1163 445 1163 442 1161 c 0
 439 1159 439 1159 436 1159 c 0
 426 1159 426 1159 419 1169 c 2
 352 1257 l 2
 346 1264 346 1264 346 1271 c 256
 346 1278 346 1278 355 1286 c 2
 659 1544 l 2
 662 1546 662 1546 665 1548 c 0
 668 1550 668 1550 673 1550 c 256
 678 1550 678 1550 681 1548 c 0
 684 1546 684 1546 687 1544 c 2
 991 1286 l 2
 1000 1278 1000 1278 1000 1271 c 256
 1000 1264 1000 1264 994 1257 c 2
 927 1169 l 2
 919 1159 919 1159 910 1159 c 0
 907 1159 907 1159 904 1161 c 0
 901 1163 901 1163 897 1165 c 2
 673 1323 l 1
EndSplineSet
Refer: 46 117 N 1 0 0 1 0 0 3
EndChar

StartChar: zero
Encoding: 48 48 114
Width: 1220
Flags: W
LayerCount: 2
Fore
SplineSet
61 510 m 256,0,1
 61 624 61 624 104 724 c 128,-1,2
 147 824 147 824 221.5 898.5 c 128,-1,3
 296 973 296 973 396 1016 c 128,-1,4
 496 1059 496 1059 610 1059 c 256,5,6
 724 1059 724 1059 824 1016 c 128,-1,7
 924 973 924 973 998.5 898.5 c 128,-1,8
 1073 824 1073 824 1116 724 c 128,-1,9
 1159 624 1159 624 1159 510 c 256,10,11
 1159 396 1159 396 1116 296 c 128,-1,12
 1073 196 1073 196 998.5 121.5 c 128,-1,13
 924 47 924 47 824 4 c 128,-1,14
 724 -39 724 -39 610 -39 c 256,15,16
 496 -39 496 -39 396 4 c 128,-1,17
 296 47 296 47 221.5 121.5 c 128,-1,18
 147 196 147 196 104 296 c 128,-1,19
 61 396 61 396 61 510 c 256,0,1
850 233 m 256,20,21
 883 233 883 233 913.5 248.5 c 128,-1,22
 944 264 944 264 967 297 c 128,-1,23
 990 330 990 330 1004 382.5 c 128,-1,24
 1018 435 1018 435 1018 510 c 256,25,26
 1018 585 1018 585 1004 637.5 c 128,-1,27
 990 690 990 690 967 723 c 128,-1,28
 944 756 944 756 913.5 771 c 128,-1,29
 883 786 883 786 850 786 c 256,30,31
 817 786 817 786 786.5 771 c 128,-1,32
 756 756 756 756 733 723 c 128,-1,33
 710 690 710 690 696 637.5 c 128,-1,34
 682 585 682 585 682 510 c 256,35,36
 682 435 682 435 696 382.5 c 128,-1,37
 710 330 710 330 733 297 c 128,-1,38
 756 264 756 264 786.5 248.5 c 128,-1,39
 817 233 817 233 850 233 c 256,20,21
EndSplineSet
EndChar

StartChar: one
Encoding: 49 49 115
Width: 1010
Flags: W
LayerCount: 2
Fore
SplineSet
67 800 m 2,0,1
 64 799 64 799 58.5 797.5 c 128,-1,2
 53 796 53 796 47 796 c 0,3,4
 33 796 33 796 22.5 802.5 c 128,-1,5
 12 809 12 809 10 824 c 2,6,-1
 2 892 l 2,7,8
 1 897 1 897 1 901 c 0,9,10
 0 904 0 904 0 907 c 128,-1,11
 0 910 0 910 0 911 c 0,12,13
 0 928 0 928 6.5 938 c 128,-1,14
 13 948 13 948 42 953 c 2,15,-1
 726 1052 l 2,16,17
 742 1054 742 1054 764 1056.5 c 128,-1,18
 786 1059 786 1059 793 1059 c 0,19,20
 837 1059 837 1059 860 1041 c 128,-1,21
 883 1023 883 1023 893 997.5 c 128,-1,22
 903 972 903 972 904 943 c 128,-1,23
 905 914 905 914 905 893 c 2,24,-1
 905 138 l 2,25,26
 905 115 905 115 903.5 91 c 128,-1,27
 902 67 902 67 889 46.5 c 128,-1,28
 876 26 876 26 845 13 c 128,-1,29
 814 0 814 0 756 0 c 2,30,-1
 342 0 l 2,31,32
 299 0 299 0 271.5 9 c 128,-1,33
 244 18 244 18 228.5 35 c 128,-1,34
 213 52 213 52 207 78 c 128,-1,35
 201 104 201 104 201 139 c 2,36,-1
 201 846 l 1,37,-1
 67 800 l 2,0,1
EndSplineSet
Substitution2: "'sups' Superscript in Latin lookup 1 subtable" onesuperior
Substitution2: "'aalt' Access All Alternates in Latin lookup 0 subtable" onesuperior
EndChar

StartChar: two
Encoding: 50 50 116
Width: 1044
Flags: W
LayerCount: 2
Fore
SplineSet
86 0 m 2,0,1
 67 0 67 0 57.5 5 c 128,-1,2
 48 10 48 10 48 26 c 0,3,4
 48 37 48 37 55.5 49.5 c 128,-1,5
 63 62 63 62 74 76 c 0,6,7
 119 135 119 135 157 204.5 c 128,-1,8
 195 274 195 274 223 346 c 128,-1,9
 251 418 251 418 267 488 c 128,-1,10
 283 558 283 558 283 618 c 0,11,12
 283 687 283 687 274 733 c 128,-1,13
 265 779 265 779 249 807.5 c 128,-1,14
 233 836 233 836 210 848 c 128,-1,15
 187 860 187 860 160 860 c 0,16,17
 148 860 148 860 134.5 855 c 128,-1,18
 121 850 121 850 109 844.5 c 128,-1,19
 97 839 97 839 87.5 834 c 128,-1,20
 78 829 78 829 73 829 c 0,21,22
 64 829 64 829 61 836 c 2,23,-1
 18 903 l 2,24,25
 15 907 15 907 15 912 c 256,26,27
 15 917 15 917 17.5 920 c 128,-1,28
 20 923 20 923 22 925 c 0,29,30
 61 956 61 956 113.5 981 c 128,-1,31
 166 1006 166 1006 227.5 1023 c 128,-1,32
 289 1040 289 1040 356.5 1049.5 c 128,-1,33
 424 1059 424 1059 494 1059 c 0,34,35
 585 1059 585 1059 655.5 1044 c 128,-1,36
 726 1029 726 1029 778 1002.5 c 128,-1,37
 830 976 830 976 866 940 c 128,-1,38
 902 904 902 904 924 863.5 c 128,-1,39
 946 823 946 823 955.5 779 c 128,-1,40
 965 735 965 735 965 692 c 0,41,42
 965 624 965 624 939.5 553 c 128,-1,43
 914 482 914 482 859.5 411 c 128,-1,44
 805 340 805 340 719 270 c 128,-1,45
 633 200 633 200 512 134 c 1,46,47
 588 138 588 138 667 141 c 128,-1,48
 746 144 746 144 813 146.5 c 128,-1,49
 880 149 880 149 927.5 150.5 c 128,-1,50
 975 152 975 152 988 152 c 0,51,52
 1019 152 1019 152 1031.5 142.5 c 128,-1,53
 1044 133 1044 133 1044 108 c 2,54,-1
 1044 40 l 2,55,56
 1044 34 1044 34 1042.5 27 c 128,-1,57
 1041 20 1041 20 1036 14 c 128,-1,58
 1031 8 1031 8 1021 4 c 128,-1,59
 1011 0 1011 0 994 0 c 2,60,-1
 86 0 l 2,0,1
EndSplineSet
Substitution2: "'sups' Superscript in Latin lookup 1 subtable" twosuperior
Substitution2: "'aalt' Access All Alternates in Latin lookup 0 subtable" twosuperior
EndChar

StartChar: three
Encoding: 51 51 117
Width: 981
Flags: W
LayerCount: 2
Fore
SplineSet
186 316 m 2,0,1
 179 323 179 323 180 330.5 c 128,-1,2
 181 338 181 338 187 345 c 2,3,-1
 475 666 l 1,4,-1
 141 666 l 2,5,6
 117 666 117 666 103.5 671.5 c 128,-1,7
 90 677 90 677 83.5 686 c 128,-1,8
 77 695 77 695 75.5 706 c 128,-1,9
 74 717 74 717 74 727 c 2,10,-1
 74 975 l 2,11,12
 74 993 74 993 89.5 1008.5 c 128,-1,13
 105 1024 105 1024 139 1024 c 2,14,-1
 850 1024 l 2,15,16
 881 1024 881 1024 897.5 1011 c 128,-1,17
 914 998 914 998 918 979 c 128,-1,18
 922 960 922 960 915 937.5 c 128,-1,19
 908 915 908 915 891 897 c 2,20,-1
 496 477 l 1,21,22
 591 476 591 476 675.5 449 c 128,-1,23
 760 422 760 422 823.5 369 c 128,-1,24
 887 316 887 316 924 237 c 128,-1,25
 961 158 961 158 961 53 c 0,26,27
 961 -48 961 -48 917 -131 c 128,-1,28
 873 -214 873 -214 796.5 -273.5 c 128,-1,29
 720 -333 720 -333 616.5 -366 c 128,-1,30
 513 -399 513 -399 393 -399 c 0,31,32
 352 -399 352 -399 307.5 -395 c 128,-1,33
 263 -391 263 -391 217.5 -382.5 c 128,-1,34
 172 -374 172 -374 126 -361.5 c 128,-1,35
 80 -349 80 -349 38 -332 c 0,36,37
 31 -329 31 -329 26.5 -323 c 128,-1,38
 22 -317 22 -317 26 -306 c 2,39,-1
 52 -228 l 2,40,41
 56 -217 56 -217 60 -216 c 128,-1,42
 64 -215 64 -215 69 -215 c 256,43,44
 74 -215 74 -215 87 -220 c 128,-1,45
 100 -225 100 -225 119 -230.5 c 128,-1,46
 138 -236 138 -236 161 -241 c 128,-1,47
 184 -246 184 -246 209 -246 c 0,48,49
 254 -246 254 -246 292 -226 c 128,-1,50
 330 -206 330 -206 357 -168 c 128,-1,51
 384 -130 384 -130 399 -76.5 c 128,-1,52
 414 -23 414 -23 414 45 c 0,53,54
 414 169 414 169 386.5 232 c 128,-1,55
 359 295 359 295 299 295 c 0,56,57
 282 295 282 295 269 290 c 128,-1,58
 256 285 256 285 245 279 c 0,59,60
 241 277 241 277 234.5 275 c 128,-1,61
 228 273 228 273 220 281 c 2,62,-1
 186 316 l 2,0,1
EndSplineSet
Substitution2: "'sups' Superscript in Latin lookup 1 subtable" threesuperior
Substitution2: "'aalt' Access All Alternates in Latin lookup 0 subtable" threesuperior
EndChar

StartChar: four
Encoding: 52 52 118
Width: 1149
Flags: W
LayerCount: 2
Fore
SplineSet
1128 143 m 2,0,1
 1149 143 1149 143 1149 122 c 2,2,-1
 1149 22 l 2,3,4
 1149 0 1149 0 1128 0 c 2,5,-1
 991 0 l 1,6,-1
 991 -322 l 2,7,8
 991 -345 991 -345 981 -357 c 128,-1,9
 971 -369 971 -369 942 -369 c 2,10,-1
 838 -369 l 2,11,12
 812 -369 812 -369 804.5 -354 c 128,-1,13
 797 -339 797 -339 797 -322 c 2,14,-1
 797 0 l 1,15,-1
 168 0 l 2,16,17
 93 0 93 0 62 21.5 c 128,-1,18
 31 43 31 43 31 87 c 0,19,20
 31 109 31 109 39 139 c 2,21,-1
 223 885 l 2,22,23
 232 919 232 919 242.5 945.5 c 128,-1,24
 253 972 253 972 272 989 c 128,-1,25
 291 1006 291 1006 321 1015 c 128,-1,26
 351 1024 351 1024 399 1024 c 2,27,-1
 682 1024 l 2,28,29
 721 1024 721 1024 746.5 1016 c 128,-1,30
 772 1008 772 1008 786 994.5 c 128,-1,31
 800 981 800 981 805.5 964 c 128,-1,32
 811 947 811 947 811 928 c 0,33,34
 811 910 811 910 808 892 c 128,-1,35
 805 874 805 874 801 858 c 2,36,-1
 636 143 l 1,37,-1
 797 143 l 1,38,-1
 797 429 l 2,39,40
 797 446 797 446 804.5 459.5 c 128,-1,41
 812 473 812 473 838 473 c 2,42,-1
 946 473 l 2,43,44
 972 473 972 473 981.5 462.5 c 128,-1,45
 991 452 991 452 991 429 c 2,46,-1
 991 143 l 1,47,-1
 1128 143 l 2,0,1
EndSplineSet
EndChar

StartChar: five
Encoding: 53 53 119
Width: 1012
Flags: W
LayerCount: 2
Fore
SplineSet
101 289 m 2,0,1
 90 289 90 289 86 295 c 128,-1,2
 82 301 82 301 84 309 c 2,3,-1
 188 982 l 2,4,5
 189 989 189 989 191 996.5 c 128,-1,6
 193 1004 193 1004 198.5 1010 c 128,-1,7
 204 1016 204 1016 214.5 1020 c 128,-1,8
 225 1024 225 1024 244 1024 c 2,9,-1
 817 1024 l 2,10,11
 883 1024 883 1024 883 973 c 2,12,-1
 883 727 l 2,13,14
 883 696 883 696 864 681 c 128,-1,15
 845 666 845 666 817 666 c 2,16,-1
 272 666 l 1,17,-1
 237 471 l 1,18,19
 256 478 256 478 280.5 486 c 128,-1,20
 305 494 305 494 336.5 501 c 128,-1,21
 368 508 368 508 406.5 513 c 128,-1,22
 445 518 445 518 492 518 c 0,23,24
 595 518 595 518 684.5 488 c 128,-1,25
 774 458 774 458 840 401 c 128,-1,26
 906 344 906 344 943.5 261.5 c 128,-1,27
 981 179 981 179 981 74 c 0,28,29
 981 -43 981 -43 937 -132 c 128,-1,30
 893 -221 893 -221 814.5 -280 c 128,-1,31
 736 -339 736 -339 628 -369 c 128,-1,32
 520 -399 520 -399 393 -399 c 0,33,34
 303 -399 303 -399 204 -384 c 128,-1,35
 105 -369 105 -369 17 -332 c 0,36,37
 13 -330 13 -330 7 -325 c 128,-1,38
 1 -320 1 -320 6 -306 c 2,39,-1
 33 -217 l 2,40,41
 36 -207 36 -207 39.5 -201.5 c 128,-1,42
 43 -196 43 -196 53 -196 c 0,43,44
 60 -196 60 -196 71.5 -201.5 c 128,-1,45
 83 -207 83 -207 99.5 -213.5 c 128,-1,46
 116 -220 116 -220 137.5 -225.5 c 128,-1,47
 159 -231 159 -231 186 -231 c 0,48,49
 225 -231 225 -231 262 -210 c 128,-1,50
 299 -189 299 -189 328 -150.5 c 128,-1,51
 357 -112 357 -112 375 -57 c 128,-1,52
 393 -2 393 -2 393 66 c 0,53,54
 393 127 393 127 384 176 c 128,-1,55
 375 225 375 225 359 259 c 128,-1,56
 343 293 343 293 319.5 311 c 128,-1,57
 296 329 296 329 268 329 c 0,58,59
 254 329 254 329 240 325 c 128,-1,60
 226 321 226 321 206 303 c 0,61,62
 200 298 200 298 194 293.5 c 128,-1,63
 188 289 188 289 177 289 c 2,64,-1
 101 289 l 2,0,1
EndSplineSet
EndChar

StartChar: six
Encoding: 54 54 120
Width: 1200
Flags: W
LayerCount: 2
Fore
SplineSet
1139 479 m 0,0,1
 1139 365 1139 365 1098.5 270 c 128,-1,2
 1058 175 1058 175 986.5 106.5 c 128,-1,3
 915 38 915 38 816 -0.5 c 128,-1,4
 717 -39 717 -39 600 -39 c 0,5,6
 488 -39 488 -39 389.5 1 c 128,-1,7
 291 41 291 41 218 112 c 128,-1,8
 145 183 145 183 103 282 c 128,-1,9
 61 381 61 381 61 500 c 0,10,11
 61 602 61 602 87 698 c 128,-1,12
 113 794 113 794 159.5 883.5 c 128,-1,13
 206 973 206 973 271 1054.5 c 128,-1,14
 336 1136 336 1136 413.5 1207.5 c 128,-1,15
 491 1279 491 1279 579.5 1339.5 c 128,-1,16
 668 1400 668 1400 762 1448 c 0,17,18
 767 1450 767 1450 772.5 1453 c 128,-1,19
 778 1456 778 1456 785 1456 c 0,20,21
 799 1456 799 1456 811 1437 c 2,22,-1
 869 1343 l 2,23,24
 874 1334 874 1334 874 1326 c 0,25,26
 874 1315 874 1315 866 1309 c 128,-1,27
 858 1303 858 1303 850 1299 c 0,28,29
 814 1279 814 1279 767 1249.5 c 128,-1,30
 720 1220 720 1220 669 1180 c 128,-1,31
 618 1140 618 1140 564.5 1089.5 c 128,-1,32
 511 1039 511 1039 461 979 c 1,33,34
 490 988 490 988 519 992.5 c 128,-1,35
 548 997 548 997 588 997 c 0,36,37
 710 997 710 997 811.5 956.5 c 128,-1,38
 913 916 913 916 985.5 845.5 c 128,-1,39
 1058 775 1058 775 1098.5 681 c 128,-1,40
 1139 587 1139 587 1139 479 c 0,0,1
829 766 m 256,41,42
 796 766 796 766 766 750.5 c 128,-1,43
 736 735 736 735 712.5 702 c 128,-1,44
 689 669 689 669 675.5 616.5 c 128,-1,45
 662 564 662 564 662 489 c 0,46,47
 662 415 662 415 675.5 363.5 c 128,-1,48
 689 312 689 312 712.5 280 c 128,-1,49
 736 248 736 248 766 233.5 c 128,-1,50
 796 219 796 219 829 219 c 256,51,52
 862 219 862 219 892.5 233.5 c 128,-1,53
 923 248 923 248 946.5 280 c 128,-1,54
 970 312 970 312 983.5 363.5 c 128,-1,55
 997 415 997 415 997 489 c 0,56,57
 997 564 997 564 983.5 616.5 c 128,-1,58
 970 669 970 669 946.5 702 c 128,-1,59
 923 735 923 735 892.5 750.5 c 128,-1,60
 862 766 862 766 829 766 c 256,41,42
EndSplineSet
EndChar

StartChar: seven
Encoding: 55 55 121
Width: 1030
Flags: W
LayerCount: 2
Fore
SplineSet
189 -278 m 2,0,1
 140 -278 140 -278 115.5 -243.5 c 128,-1,2
 91 -209 91 -209 105 -153 c 2,3,-1
 367 863 l 1,4,-1
 58 848 l 2,5,6
 34 848 34 848 22 854 c 128,-1,7
 10 860 10 860 5 869 c 128,-1,8
 0 878 0 878 0 888.5 c 128,-1,9
 0 899 0 899 0 909 c 2,10,-1
 0 975 l 2,11,12
 0 984 0 984 2.5 993 c 128,-1,13
 5 1002 5 1002 11 1008.5 c 128,-1,14
 17 1015 17 1015 28 1019.5 c 128,-1,15
 39 1024 39 1024 56 1024 c 2,16,-1
 913 1024 l 2,17,18
 958 1024 958 1024 977 1003.5 c 128,-1,19
 996 983 996 983 996 949 c 0,20,21
 996 937 996 937 993 920.5 c 128,-1,22
 990 904 990 904 985 887 c 2,23,-1
 711 -169 l 2,24,25
 696 -227 696 -227 664 -252.5 c 128,-1,26
 632 -278 632 -278 587 -278 c 2,27,-1
 189 -278 l 2,0,1
EndSplineSet
EndChar

StartChar: eight
Encoding: 56 56 122
Width: 1182
Flags: W
LayerCount: 2
Fore
SplineSet
547 -37 m 0,0,1
 458 -37 458 -37 371 -15.5 c 128,-1,2
 284 6 284 6 215 52.5 c 128,-1,3
 146 99 146 99 103.5 173 c 128,-1,4
 61 247 61 247 61 352 c 0,5,6
 61 423 61 423 80 478.5 c 128,-1,7
 99 534 99 534 132.5 578 c 128,-1,8
 166 622 166 622 212.5 655.5 c 128,-1,9
 259 689 259 689 313 715 c 1,10,11
 278 744 278 744 243.5 781.5 c 128,-1,12
 209 819 209 819 180.5 863 c 128,-1,13
 152 907 152 907 134.5 956 c 128,-1,14
 117 1005 117 1005 117 1057 c 0,15,16
 117 1152 117 1152 150.5 1227.5 c 128,-1,17
 184 1303 184 1303 245.5 1355.5 c 128,-1,18
 307 1408 307 1408 394.5 1436 c 128,-1,19
 482 1464 482 1464 590 1464 c 0,20,21
 681 1464 681 1464 767.5 1443.5 c 128,-1,22
 854 1423 854 1423 921 1377.5 c 128,-1,23
 988 1332 988 1332 1028.5 1260 c 128,-1,24
 1069 1188 1069 1188 1069 1085 c 0,25,26
 1069 1000 1069 1000 1026 926 c 128,-1,27
 983 852 983 852 899 795 c 1,28,29
 952 753 952 753 993 710.5 c 128,-1,30
 1034 668 1034 668 1062.5 621.5 c 128,-1,31
 1091 575 1091 575 1105.5 523 c 128,-1,32
 1120 471 1120 471 1120 410 c 0,33,34
 1120 321 1120 321 1085.5 240 c 128,-1,35
 1051 159 1051 159 980 97.5 c 128,-1,36
 909 36 909 36 801.5 -0.5 c 128,-1,37
 694 -37 694 -37 547 -37 c 0,0,1
614 297 m 0,38,39
 614 346 614 346 601 387.5 c 128,-1,40
 588 429 588 429 561.5 467 c 128,-1,41
 535 505 535 505 495.5 542.5 c 128,-1,42
 456 580 456 580 403 621 c 1,43,44
 306 590 306 590 254.5 520 c 128,-1,45
 203 450 203 450 203 360 c 0,46,47
 203 300 203 300 223.5 254 c 128,-1,48
 244 208 244 208 276.5 176.5 c 128,-1,49
 309 145 309 145 350.5 129 c 128,-1,50
 392 113 392 113 434 113 c 0,51,52
 482 113 482 113 516.5 130 c 128,-1,53
 551 147 551 147 572.5 173.5 c 128,-1,54
 594 200 594 200 604 232.5 c 128,-1,55
 614 265 614 265 614 297 c 0,38,39
598 1176 m 0,56,57
 598 1134 598 1134 616.5 1092 c 128,-1,58
 635 1050 635 1050 665.5 1012 c 128,-1,59
 696 974 696 974 735 940.5 c 128,-1,60
 774 907 774 907 815 881 c 1,61,62
 866 913 866 913 897 967.5 c 128,-1,63
 928 1022 928 1022 928 1085 c 0,64,65
 928 1137 928 1137 912 1180.5 c 128,-1,66
 896 1224 896 1224 869.5 1255.5 c 128,-1,67
 843 1287 843 1287 808 1305 c 128,-1,68
 773 1323 773 1323 735 1323 c 0,69,70
 706 1323 706 1323 681.5 1314.5 c 128,-1,71
 657 1306 657 1306 638 1288.5 c 128,-1,72
 619 1271 619 1271 608.5 1243 c 128,-1,73
 598 1215 598 1215 598 1176 c 0,56,57
EndSplineSet
EndChar

StartChar: nine
Encoding: 57 57 123
Width: 1200
Flags: W
LayerCount: 2
Fore
SplineSet
61 541 m 0,0,1
 61 648 61 648 103 742.5 c 128,-1,2
 145 837 145 837 218 907.5 c 128,-1,3
 291 978 291 978 389.5 1018.5 c 128,-1,4
 488 1059 488 1059 600 1059 c 256,5,6
 712 1059 712 1059 810.5 1022.5 c 128,-1,7
 909 986 909 986 982 918.5 c 128,-1,8
 1055 851 1055 851 1097 755 c 128,-1,9
 1139 659 1139 659 1139 541 c 0,10,11
 1139 388 1139 388 1082.5 248 c 128,-1,12
 1026 108 1026 108 930 -13 c 128,-1,13
 834 -134 834 -134 707 -233.5 c 128,-1,14
 580 -333 580 -333 438 -405 c 0,15,16
 434 -407 434 -407 429.5 -409 c 128,-1,17
 425 -411 425 -411 420 -411 c 0,18,19
 412 -411 412 -411 407.5 -407.5 c 128,-1,20
 403 -404 403 -404 396 -394 c 2,21,-1
 328 -295 l 2,22,23
 323 -288 323 -288 323 -282 c 0,24,25
 323 -274 323 -274 328 -270.5 c 128,-1,26
 333 -267 333 -267 338 -265 c 0,27,28
 374 -247 374 -247 420 -221 c 128,-1,29
 466 -195 466 -195 517 -158.5 c 128,-1,30
 568 -122 568 -122 622.5 -73 c 128,-1,31
 677 -24 677 -24 729 39 c 1,32,33
 700 30 700 30 672 26.5 c 128,-1,34
 644 23 644 23 612 23 c 0,35,36
 490 23 490 23 388.5 63 c 128,-1,37
 287 103 287 103 214.5 173 c 128,-1,38
 142 243 142 243 101.5 337.5 c 128,-1,39
 61 432 61 432 61 541 c 0,0,1
829 264 m 256,40,41
 862 264 862 264 892.5 279.5 c 128,-1,42
 923 295 923 295 946.5 328 c 128,-1,43
 970 361 970 361 983.5 413.5 c 128,-1,44
 997 466 997 466 997 541 c 0,45,46
 997 615 997 615 983.5 667.5 c 128,-1,47
 970 720 970 720 946.5 753 c 128,-1,48
 923 786 923 786 892.5 801.5 c 128,-1,49
 862 817 862 817 829 817 c 256,50,51
 796 817 796 817 766 801.5 c 128,-1,52
 736 786 736 786 712.5 753 c 128,-1,53
 689 720 689 720 675.5 667.5 c 128,-1,54
 662 615 662 615 662 541 c 0,55,56
 662 466 662 466 675.5 413.5 c 128,-1,57
 689 361 689 361 712.5 328 c 128,-1,58
 736 295 736 295 766 279.5 c 128,-1,59
 796 264 796 264 829 264 c 256,40,41
EndSplineSet
EndChar

StartChar: dollar
Encoding: 36 36 124
Width: 944
Flags: W
LayerCount: 2
Fore
SplineSet
555 1307 m 1,0,1
 630 1319 630 1319 705 1319 c 0,2,3
 743 1319 743 1319 775 1317 c 128,-1,4
 807 1315 807 1315 825 1313 c 0,5,6
 834 1312 834 1312 839 1309 c 128,-1,7
 844 1306 844 1306 844 1295 c 2,8,-1
 844 1212 l 2,9,10
 844 1201 844 1201 838 1199.5 c 128,-1,11
 832 1198 832 1198 828 1198 c 0,12,13
 764 1195 764 1195 734.5 1164.5 c 128,-1,14
 705 1134 705 1134 705 1059 c 0,15,16
 705 1032 705 1032 716.5 1003.5 c 128,-1,17
 728 975 728 975 745.5 943.5 c 128,-1,18
 763 912 763 912 783.5 875 c 128,-1,19
 804 838 804 838 821.5 795.5 c 128,-1,20
 839 753 839 753 850.5 702.5 c 128,-1,21
 862 652 862 652 862 592 c 0,22,23
 862 525 862 525 843 461 c 128,-1,24
 824 397 824 397 786 340.5 c 128,-1,25
 748 284 748 284 690.5 238.5 c 128,-1,26
 633 193 633 193 555 162 c 1,27,-1
 555 -106 l 2,28,29
 555 -123 555 -123 547.5 -138.5 c 128,-1,30
 540 -154 540 -154 514 -154 c 2,31,-1
 442 -154 l 2,32,33
 433 -154 433 -154 424 -153 c 128,-1,34
 415 -152 415 -152 408.5 -147.5 c 128,-1,35
 402 -143 402 -143 397.5 -133 c 128,-1,36
 393 -123 393 -123 393 -106 c 2,37,-1
 393 119 l 1,38,39
 358 114 358 114 321.5 111.5 c 128,-1,40
 285 109 285 109 246 109 c 0,41,42
 184 109 184 109 137.5 113.5 c 128,-1,43
 91 118 91 118 72 121 c 0,44,45
 67 122 67 122 64 125 c 128,-1,46
 61 128 61 128 61 139 c 2,47,-1
 61 223 l 2,48,49
 61 230 61 230 64.5 232 c 128,-1,50
 68 234 68 234 72 234 c 256,51,52
 76 234 76 234 83.5 233 c 128,-1,53
 91 232 91 232 96 232 c 0,54,55
 151 232 151 232 188 275 c 128,-1,56
 225 318 225 318 225 403 c 0,57,58
 225 459 225 459 214.5 498 c 128,-1,59
 204 537 204 537 187.5 568 c 128,-1,60
 171 599 171 599 152.5 627 c 128,-1,61
 134 655 134 655 117.5 688 c 128,-1,62
 101 721 101 721 90.5 764.5 c 128,-1,63
 80 808 80 808 80 870 c 0,64,65
 80 947 80 947 104.5 1009.5 c 128,-1,66
 129 1072 129 1072 171.5 1121 c 128,-1,67
 214 1170 214 1170 271 1206 c 128,-1,68
 328 1242 328 1242 393 1266 c 1,69,-1
 393 1489 l 2,70,71
 393 1506 393 1506 397 1515.5 c 128,-1,72
 401 1525 401 1525 407.5 1529.5 c 128,-1,73
 414 1534 414 1534 422.5 1535 c 128,-1,74
 431 1536 431 1536 440 1536 c 2,75,-1
 511 1536 l 2,76,77
 537 1536 537 1536 546 1523.5 c 128,-1,78
 555 1511 555 1511 555 1489 c 2,79,-1
 555 1307 l 1,0,1
EndSplineSet
EndChar

StartChar: cent
Encoding: 162 162 125
Width: 1030
Flags: W
LayerCount: 2
Fore
SplineSet
72 512 m 256,0,1
 72 632 72 632 106.5 720.5 c 128,-1,2
 141 809 141 809 198 869 c 128,-1,3
 255 929 255 929 328 964 c 128,-1,4
 401 999 401 999 479 1013 c 1,5,-1
 479 1223 l 2,6,7
 479 1240 479 1240 483 1249.5 c 128,-1,8
 487 1259 487 1259 493.5 1263.5 c 128,-1,9
 500 1268 500 1268 508.5 1269 c 128,-1,10
 517 1270 517 1270 526 1270 c 2,11,-1
 601 1270 l 2,12,13
 627 1270 627 1270 634 1257 c 128,-1,14
 641 1244 641 1244 641 1223 c 2,15,-1
 641 1022 l 1,16,17
 739 1014 739 1014 819 980.5 c 128,-1,18
 899 947 899 947 951 909 c 0,19,20
 956 905 956 905 962 899.5 c 128,-1,21
 968 894 968 894 968 886 c 256,22,23
 968 878 968 878 963 871 c 2,24,-1
 930 819 l 2,25,26
 925 811 925 811 922 809.5 c 128,-1,27
 919 808 919 808 916 808 c 0,28,29
 911 808 911 808 902 812.5 c 128,-1,30
 893 817 893 817 879.5 823 c 128,-1,31
 866 829 866 829 847 833.5 c 128,-1,32
 828 838 828 838 803 838 c 0,33,34
 771 838 771 838 742.5 823 c 128,-1,35
 714 808 714 808 691.5 770.5 c 128,-1,36
 669 733 669 733 656 670 c 128,-1,37
 643 607 643 607 643 512 c 256,38,39
 643 417 643 417 656 354.5 c 128,-1,40
 669 292 669 292 691.5 255 c 128,-1,41
 714 218 714 218 742.5 203 c 128,-1,42
 771 188 771 188 803 188 c 0,43,44
 828 188 828 188 849 193.5 c 128,-1,45
 870 199 870 199 885 206 c 128,-1,46
 900 213 900 213 910 218.5 c 128,-1,47
 920 224 920 224 924 224 c 256,48,49
 928 224 928 224 931.5 222 c 128,-1,50
 935 220 935 220 940 212 c 2,51,-1
 973 160 l 2,52,53
 978 152 978 152 978 145 c 0,54,55
 978 137 978 137 972 131.5 c 128,-1,56
 966 126 966 126 961 122 c 0,57,58
 935 102 935 102 902.5 82.5 c 128,-1,59
 870 63 870 63 831 46 c 128,-1,60
 792 29 792 29 744.5 17 c 128,-1,61
 697 5 697 5 641 1 c 1,62,-1
 641 -207 l 2,63,64
 641 -224 641 -224 633.5 -239 c 128,-1,65
 626 -254 626 -254 600 -254 c 2,66,-1
 528 -254 l 2,67,68
 519 -254 519 -254 510 -253 c 128,-1,69
 501 -252 501 -252 494.5 -247.5 c 128,-1,70
 488 -243 488 -243 483.5 -233.5 c 128,-1,71
 479 -224 479 -224 479 -207 c 2,72,-1
 479 10 l 1,73,74
 401 24 401 24 328 59 c 128,-1,75
 255 94 255 94 198 154.5 c 128,-1,76
 141 215 141 215 106.5 303.5 c 128,-1,77
 72 392 72 392 72 512 c 256,0,1
EndSplineSet
EndChar

StartChar: sterling
Encoding: 163 163 126
Width: 1249
Flags: W
LayerCount: 2
Fore
SplineSet
62 457 m 2,0,1
 41 457 41 457 41 479 c 2,2,-1
 41 559 l 2,3,4
 41 580 41 580 62 580 c 2,5,-1
 145 580 l 1,6,-1
 145 819 l 2,7,8
 145 941 145 941 170.5 1033.5 c 128,-1,9
 196 1126 196 1126 239 1195 c 128,-1,10
 282 1264 282 1264 339.5 1310 c 128,-1,11
 397 1356 397 1356 461.5 1384 c 128,-1,12
 526 1412 526 1412 593.5 1424 c 128,-1,13
 661 1436 661 1436 725 1436 c 0,14,15
 782 1436 782 1436 839.5 1429 c 128,-1,16
 897 1422 897 1422 949.5 1410 c 128,-1,17
 1002 1398 1002 1398 1046 1382 c 128,-1,18
 1090 1366 1090 1366 1121 1349 c 0,19,20
 1126 1347 1126 1347 1131.5 1341.5 c 128,-1,21
 1137 1336 1137 1336 1137 1319 c 2,22,-1
 1137 1241 l 2,23,24
 1137 1227 1137 1227 1128.5 1226.5 c 128,-1,25
 1120 1226 1120 1226 1114 1228 c 0,26,27
 1092 1234 1092 1234 1070 1237.5 c 128,-1,28
 1048 1241 1048 1241 1026 1241 c 0,29,30
 991 1241 991 1241 958.5 1229.5 c 128,-1,31
 926 1218 926 1218 901.5 1189.5 c 128,-1,32
 877 1161 877 1161 862.5 1112 c 128,-1,33
 848 1063 848 1063 848 989 c 2,34,-1
 848 580 l 1,35,-1
 1062 580 l 2,36,37
 1083 580 1083 580 1083 559 c 2,38,-1
 1083 479 l 2,39,40
 1083 457 1083 457 1062 457 c 2,41,-1
 848 457 l 1,42,-1
 848 130 l 1,43,44
 902 134 902 134 956 138 c 128,-1,45
 1010 142 1010 142 1056 145 c 128,-1,46
 1102 148 1102 148 1136.5 150 c 128,-1,47
 1171 152 1171 152 1188 152 c 256,48,49
 1205 152 1205 152 1217 145.5 c 128,-1,50
 1229 139 1229 139 1229 119 c 2,51,-1
 1229 49 l 2,52,53
 1229 40 1229 40 1228 31 c 128,-1,54
 1227 22 1227 22 1222.5 15.5 c 128,-1,55
 1218 9 1218 9 1209 4.5 c 128,-1,56
 1200 0 1200 0 1183 0 c 2,57,-1
 62 0 l 2,58,59
 38 0 38 0 29 7.5 c 128,-1,60
 20 15 20 15 20 41 c 2,61,-1
 20 98 l 2,62,63
 20 120 20 120 31 126 c 128,-1,64
 42 132 42 132 59 132 c 2,65,-1
 145 129 l 1,66,-1
 145 457 l 1,67,-1
 62 457 l 2,0,1
EndSplineSet
EndChar

StartChar: yen
Encoding: 165 165 127
Width: 1249
Flags: W
LayerCount: 2
Fore
SplineSet
991 787 m 1,0,-1
 1173 787 l 2,1,2
 1194 787 1194 787 1194 766 c 2,3,-1
 1194 686 l 2,4,5
 1194 664 1194 664 1173 664 c 2,6,-1
 989 664 l 1,7,-1
 989 582 l 1,8,-1
 1173 582 l 2,9,10
 1194 582 1194 582 1194 561 c 2,11,-1
 1194 481 l 2,12,13
 1194 459 1194 459 1173 459 c 2,14,-1
 989 459 l 1,15,-1
 989 138 l 2,16,17
 989 103 989 103 983 77 c 128,-1,18
 977 51 977 51 959 34 c 128,-1,19
 941 17 941 17 909 8.5 c 128,-1,20
 877 0 877 0 825 0 c 2,21,-1
 438 0 l 2,22,23
 390 0 390 0 360.5 9 c 128,-1,24
 331 18 331 18 314 35 c 128,-1,25
 297 52 297 52 291 78 c 128,-1,26
 285 104 285 104 285 139 c 2,27,-1
 285 459 l 1,28,-1
 101 459 l 2,29,30
 80 459 80 459 80 481 c 2,31,-1
 80 561 l 2,32,33
 80 582 80 582 101 582 c 2,34,-1
 285 582 l 1,35,-1
 285 664 l 1,36,-1
 101 664 l 2,37,38
 80 664 80 664 80 686 c 2,39,-1
 80 766 l 2,40,41
 80 787 80 787 101 787 c 2,42,-1
 273 787 l 1,43,-1
 31 1319 l 2,44,45
 19 1346 19 1346 19 1367 c 0,46,47
 19 1402 19 1402 41.5 1419 c 128,-1,48
 64 1436 64 1436 88 1436 c 2,49,-1
 594 1436 l 2,50,51
 619 1436 619 1436 637 1429.5 c 128,-1,52
 655 1423 655 1423 666.5 1414 c 128,-1,53
 678 1405 678 1405 684.5 1394.5 c 128,-1,54
 691 1384 691 1384 694 1376 c 2,55,-1
 870 893 l 1,56,-1
 1030 1354 l 2,57,58
 1036 1371 1036 1371 1041.5 1386 c 128,-1,59
 1047 1401 1047 1401 1054.5 1412 c 128,-1,60
 1062 1423 1062 1423 1073 1429.5 c 128,-1,61
 1084 1436 1084 1436 1102 1436 c 2,62,-1
 1198 1436 l 2,63,64
 1229 1436 1229 1436 1229 1409 c 0,65,66
 1229 1391 1229 1391 1217 1360 c 2,67,-1
 991 787 l 1,0,-1
EndSplineSet
EndChar

StartChar: currency
Encoding: 164 164 128
Width: 974
Flags: W
LayerCount: 2
Fore
SplineSet
213 441 m 1,0,1
 190 478 190 478 177 521 c 128,-1,2
 164 564 164 564 164 612 c 256,3,4
 164 660 164 660 177 703 c 128,-1,5
 190 746 190 746 213 784 c 1,6,-1
 89 909 l 2,7,8
 78 920 78 920 74 928 c 128,-1,9
 70 936 70 936 70 943 c 0,10,11
 70 953 70 953 75.5 960.5 c 128,-1,12
 81 968 81 968 89 976 c 2,13,-1
 128 1015 l 2,14,15
 143 1030 143 1030 158 1030 c 0,16,17
 167 1030 167 1030 175 1025 c 128,-1,18
 183 1020 183 1020 191 1012 c 2,19,-1
 316 887 l 1,20,21
 354 910 354 910 397 923.5 c 128,-1,22
 440 937 440 937 488 937 c 0,23,24
 535 937 535 937 578 924 c 128,-1,25
 621 911 621 911 659 887 c 1,26,-1
 783 1011 l 2,27,28
 794 1022 794 1022 802 1026 c 128,-1,29
 810 1030 810 1030 817 1030 c 0,30,31
 827 1030 827 1030 834.5 1024.5 c 128,-1,32
 842 1019 842 1019 850 1011 c 2,33,-1
 889 972 l 2,34,35
 904 957 904 957 904 942 c 0,36,37
 904 933 904 933 899 925 c 128,-1,38
 894 917 894 917 886 909 c 2,39,-1
 762 785 l 1,40,41
 785 747 785 747 798.5 703.5 c 128,-1,42
 812 660 812 660 812 612 c 256,43,44
 812 564 812 564 798.5 521 c 128,-1,45
 785 478 785 478 762 441 c 1,46,-1
 886 317 l 2,47,48
 893 309 893 309 898.5 301 c 128,-1,49
 904 293 904 293 904 283 c 0,50,51
 904 269 904 269 890 255 c 2,52,-1
 851 216 l 2,53,54
 843 208 843 208 835 202 c 128,-1,55
 827 196 827 196 817 196 c 0,56,57
 801 196 801 196 783 215 c 2,58,-1
 659 338 l 1,59,60
 621 315 621 315 578.5 302 c 128,-1,61
 536 289 536 289 488 289 c 256,62,63
 440 289 440 289 396.5 302 c 128,-1,64
 353 315 353 315 315 338 c 1,65,-1
 191 214 l 2,66,67
 183 206 183 206 175 201 c 128,-1,68
 167 196 167 196 157 196 c 0,69,70
 143 196 143 196 129 210 c 2,71,-1
 90 249 l 2,72,73
 82 257 82 257 76 264.5 c 128,-1,74
 70 272 70 272 70 283 c 0,75,76
 70 298 70 298 89 317 c 2,77,-1
 213 441 l 1,0,1
311 612 m 0,78,79
 311 576 311 576 325 544 c 128,-1,80
 339 512 339 512 363 488 c 128,-1,81
 387 464 387 464 419 450 c 128,-1,82
 451 436 451 436 488 436 c 0,83,84
 524 436 524 436 556 450 c 128,-1,85
 588 464 588 464 612 488 c 128,-1,86
 636 512 636 512 650 544 c 128,-1,87
 664 576 664 576 664 612 c 0,88,89
 664 649 664 649 650 681 c 128,-1,90
 636 713 636 713 612 737 c 128,-1,91
 588 761 588 761 556 775 c 128,-1,92
 524 789 524 789 488 789 c 0,93,94
 451 789 451 789 419 775 c 128,-1,95
 387 761 387 761 363 737 c 128,-1,96
 339 713 339 713 325 681 c 128,-1,97
 311 649 311 649 311 612 c 0,78,79
EndSplineSet
EndChar

StartChar: percent
Encoding: 37 37 129
Width: 1544
Flags: W
LayerCount: 2
Fore
SplineSet
397 6 m 2,0,1
 392 -2 392 -2 382.5 -10 c 128,-1,2
 373 -18 373 -18 360 -18 c 0,3,4
 354 -18 354 -18 349 -16 c 128,-1,5
 344 -14 344 -14 338 -10 c 2,6,-1
 291 20 l 2,7,8
 280 27 280 27 271 35 c 128,-1,9
 262 43 262 43 262 55 c 0,10,11
 262 68 262 68 274 86 c 2,12,-1
 1139 1427 l 2,13,14
 1150 1443 1150 1443 1158 1448.5 c 128,-1,15
 1166 1454 1166 1454 1174 1454 c 0,16,17
 1183 1454 1183 1454 1190.5 1451 c 128,-1,18
 1198 1448 1198 1448 1206 1442 c 2,19,-1
 1251 1409 l 2,20,21
 1263 1400 1263 1400 1268.5 1393 c 128,-1,22
 1274 1386 1274 1386 1274 1376 c 0,23,24
 1274 1370 1274 1370 1271.5 1364 c 128,-1,25
 1269 1358 1269 1358 1264 1350 c 2,26,-1
 397 6 l 2,0,1
61 1094 m 256,27,28
 61 1165 61 1165 87.5 1227.5 c 128,-1,29
 114 1290 114 1290 160.5 1336.5 c 128,-1,30
 207 1383 207 1383 268.5 1409.5 c 128,-1,31
 330 1436 330 1436 401 1436 c 0,32,33
 473 1436 473 1436 535 1409.5 c 128,-1,34
 597 1383 597 1383 643.5 1336.5 c 128,-1,35
 690 1290 690 1290 716.5 1227.5 c 128,-1,36
 743 1165 743 1165 743 1094 c 256,37,38
 743 1023 743 1023 716.5 961 c 128,-1,39
 690 899 690 899 643.5 853 c 128,-1,40
 597 807 597 807 535 780.5 c 128,-1,41
 473 754 473 754 401 754 c 0,42,43
 330 754 330 754 268.5 780.5 c 128,-1,44
 207 807 207 807 160.5 853 c 128,-1,45
 114 899 114 899 87.5 961 c 128,-1,46
 61 1023 61 1023 61 1094 c 256,27,28
528 924 m 256,47,48
 549 924 549 924 568 933.5 c 128,-1,49
 587 943 587 943 601.5 963 c 128,-1,50
 616 983 616 983 624.5 1015.5 c 128,-1,51
 633 1048 633 1048 633 1094 c 0,52,53
 633 1141 633 1141 624.5 1173.5 c 128,-1,54
 616 1206 616 1206 601.5 1226.5 c 128,-1,55
 587 1247 587 1247 568 1256.5 c 128,-1,56
 549 1266 549 1266 528 1266 c 256,57,58
 507 1266 507 1266 488.5 1256.5 c 128,-1,59
 470 1247 470 1247 455.5 1226.5 c 128,-1,60
 441 1206 441 1206 432.5 1173.5 c 128,-1,61
 424 1141 424 1141 424 1094 c 0,62,63
 424 1048 424 1048 432.5 1015.5 c 128,-1,64
 441 983 441 983 455.5 963 c 128,-1,65
 470 943 470 943 488.5 933.5 c 128,-1,66
 507 924 507 924 528 924 c 256,47,48
801 340 m 256,67,68
 801 411 801 411 824.5 473.5 c 128,-1,69
 848 536 848 536 890 582.5 c 128,-1,70
 932 629 932 629 990.5 655.5 c 128,-1,71
 1049 682 1049 682 1120 682 c 0,72,73
 1192 682 1192 682 1257.5 655.5 c 128,-1,74
 1323 629 1323 629 1373 582.5 c 128,-1,75
 1423 536 1423 536 1453 473.5 c 128,-1,76
 1483 411 1483 411 1483 340 c 256,77,78
 1483 269 1483 269 1456.5 207.5 c 128,-1,79
 1430 146 1430 146 1383.5 99.5 c 128,-1,80
 1337 53 1337 53 1274.5 26.5 c 128,-1,81
 1212 0 1212 0 1141 0 c 256,82,83
 1070 0 1070 0 1008 26.5 c 128,-1,84
 946 53 946 53 900 99.5 c 128,-1,85
 854 146 854 146 827.5 207.5 c 128,-1,86
 801 269 801 269 801 340 c 256,67,68
1268 170 m 256,87,88
 1289 170 1289 170 1307.5 179.5 c 128,-1,89
 1326 189 1326 189 1340.5 209 c 128,-1,90
 1355 229 1355 229 1363.5 261.5 c 128,-1,91
 1372 294 1372 294 1372 340 c 0,92,93
 1372 387 1372 387 1363.5 419.5 c 128,-1,94
 1355 452 1355 452 1340.5 472.5 c 128,-1,95
 1326 493 1326 493 1307.5 502.5 c 128,-1,96
 1289 512 1289 512 1268 512 c 256,97,98
 1247 512 1247 512 1228 502.5 c 128,-1,99
 1209 493 1209 493 1194.5 472.5 c 128,-1,100
 1180 452 1180 452 1171.5 419.5 c 128,-1,101
 1163 387 1163 387 1163 340 c 0,102,103
 1163 294 1163 294 1171.5 261.5 c 128,-1,104
 1180 229 1180 229 1194.5 209 c 128,-1,105
 1209 189 1209 189 1228 179.5 c 128,-1,106
 1247 170 1247 170 1268 170 c 256,87,88
EndSplineSet
Ligature2: "Ligature Substitution lookup 8 subtable" zero slash zero
Ligature2: "Ligature Substitution lookup 8 subtable" zero fraction zero
EndChar

StartChar: numbersign
Encoding: 35 35 130
Width: 952
Flags: W
LayerCount: 2
Fore
SplineSet
658 484 m 1,0,-1
 606 172 l 2,1,2
 603 155 603 155 593 140 c 128,-1,3
 583 125 583 125 557 125 c 2,4,-1
 526 125 l 2,5,6
 509 125 509 125 496 129.5 c 128,-1,7
 483 134 483 134 483 156 c 0,8,9
 483 163 483 163 484 166 c 0,10,11
 484 169 484 169 485 172 c 2,12,-1
 537 484 l 1,13,-1
 310 484 l 1,14,-1
 258 172 l 2,15,16
 255 155 255 155 245 140 c 128,-1,17
 235 125 235 125 209 125 c 2,18,-1
 178 125 l 2,19,20
 161 125 161 125 148 129.5 c 128,-1,21
 135 134 135 134 135 156 c 0,22,23
 135 163 135 163 136 166 c 0,24,25
 136 169 136 169 137 172 c 2,26,-1
 189 484 l 1,27,-1
 102 484 l 2,28,29
 81 484 81 484 81 506 c 2,30,-1
 81 647 l 2,31,32
 81 668 81 668 104 668 c 2,33,-1
 220 668 l 1,34,-1
 258 893 l 1,35,-1
 161 893 l 2,36,37
 140 893 140 893 140 915 c 2,38,-1
 140 1056 l 2,39,40
 140 1077 140 1077 163 1077 c 2,41,-1
 289 1077 l 1,42,-1
 342 1389 l 2,43,44
 345 1406 345 1406 350.5 1415.5 c 128,-1,45
 356 1425 356 1425 363.5 1429.5 c 128,-1,46
 371 1434 371 1434 379.5 1435 c 128,-1,47
 388 1436 388 1436 397 1436 c 2,48,-1
 428 1436 l 2,49,50
 448 1436 448 1436 456.5 1427.5 c 128,-1,51
 465 1419 465 1419 465 1405 c 0,52,53
 465 1403 465 1403 465 1400.5 c 128,-1,54
 465 1398 465 1398 463 1389 c 2,55,-1
 410 1077 l 1,56,-1
 637 1077 l 1,57,-1
 690 1389 l 2,58,59
 693 1406 693 1406 698.5 1415.5 c 128,-1,60
 704 1425 704 1425 711.5 1429.5 c 128,-1,61
 719 1434 719 1434 727.5 1435 c 128,-1,62
 736 1436 736 1436 745 1436 c 2,63,-1
 776 1436 l 2,64,65
 796 1436 796 1436 804.5 1427.5 c 128,-1,66
 813 1419 813 1419 813 1405 c 0,67,68
 813 1403 813 1403 813 1400 c 128,-1,69
 813 1397 813 1397 811 1389 c 2,70,-1
 758 1077 l 1,71,-1
 849 1077 l 2,72,73
 870 1077 870 1077 870 1056 c 2,74,-1
 870 915 l 2,75,76
 870 893 870 893 849 893 c 2,77,-1
 727 893 l 1,78,-1
 689 668 l 1,79,-1
 790 668 l 2,80,81
 811 668 811 668 811 647 c 2,82,-1
 811 506 l 2,83,84
 811 484 811 484 790 484 c 2,85,-1
 658 484 l 1,0,-1
341 668 m 1,86,-1
 568 668 l 1,87,-1
 606 893 l 1,88,-1
 379 893 l 1,89,-1
 341 668 l 1,86,-1
EndSplineSet
EndChar

StartChar: onesuperior
Encoding: 185 185 131
Width: 727
Flags: W
LayerCount: 2
Fore
SplineSet
45 1252 m 2,0,1
 43 1252 43 1252 39.5 1251 c 128,-1,2
 36 1250 36 1250 31 1250 c 0,3,4
 22 1250 22 1250 15.5 1254 c 128,-1,5
 9 1258 9 1258 7 1267 c 2,6,-1
 1 1345 l 2,7,8
 0 1348 0 1348 0 1351 c 2,9,-1
 0 1357 l 2,10,11
 0 1367 0 1367 4 1373 c 128,-1,12
 8 1379 8 1379 28 1382 c 2,13,-1
 506 1441 l 2,14,15
 517 1443 517 1443 531.5 1444.5 c 128,-1,16
 546 1446 546 1446 551 1446 c 0,17,18
 581 1446 581 1446 596 1437.5 c 128,-1,19
 611 1429 611 1429 618 1415.5 c 128,-1,20
 625 1402 625 1402 625.5 1384 c 128,-1,21
 626 1366 626 1366 626 1348 c 2,22,-1
 626 650 l 2,23,24
 626 636 626 636 625 621.5 c 128,-1,25
 624 607 624 607 615.5 595 c 128,-1,26
 607 583 607 583 586.5 575 c 128,-1,27
 566 567 566 567 527 567 c 2,28,-1
 229 567 l 2,29,30
 200 567 200 567 182 572 c 128,-1,31
 164 577 164 577 153.5 587.5 c 128,-1,32
 143 598 143 598 139 613.5 c 128,-1,33
 135 629 135 629 135 650 c 2,34,-1
 135 1280 l 1,35,-1
 45 1252 l 2,0,1
EndSplineSet
EndChar

StartChar: twosuperior
Encoding: 178 178 132
Width: 780
Flags: W
LayerCount: 2
Fore
SplineSet
66 567 m 2,0,1
 52 567 52 567 45.5 571 c 128,-1,2
 39 575 39 575 39 589 c 0,3,4
 39 598 39 598 44.5 608.5 c 128,-1,5
 50 619 50 619 58 631 c 0,6,7
 90 680 90 680 117.5 738.5 c 128,-1,8
 145 797 145 797 165.5 857.5 c 128,-1,9
 186 918 186 918 197.5 977 c 128,-1,10
 209 1036 209 1036 209 1086 c 0,11,12
 209 1144 209 1144 202.5 1181 c 128,-1,13
 196 1218 196 1218 184.5 1240 c 128,-1,14
 173 1262 173 1262 156.5 1270.5 c 128,-1,15
 140 1279 140 1279 120 1279 c 0,16,17
 110 1279 110 1279 101 1275.5 c 128,-1,18
 92 1272 92 1272 84.5 1267.5 c 128,-1,19
 77 1263 77 1263 71 1259.5 c 128,-1,20
 65 1256 65 1256 61 1256 c 0,21,22
 56 1256 56 1256 52 1262 c 2,23,-1
 17 1325 l 2,24,25
 15 1331 15 1331 15 1333 c 0,26,27
 15 1337 15 1337 16.5 1339.5 c 128,-1,28
 18 1342 18 1342 20 1344 c 0,29,30
 48 1370 48 1370 86 1390.5 c 128,-1,31
 124 1411 124 1411 168.5 1425.5 c 128,-1,32
 213 1440 213 1440 262 1448 c 128,-1,33
 311 1456 311 1456 362 1456 c 0,34,35
 461 1456 461 1456 526.5 1428 c 128,-1,36
 592 1400 592 1400 631 1356 c 128,-1,37
 670 1312 670 1312 686.5 1257 c 128,-1,38
 703 1202 703 1202 703 1148 c 0,39,40
 703 1091 703 1091 684.5 1033 c 128,-1,41
 666 975 666 975 626.5 917 c 128,-1,42
 587 859 587 859 525 802 c 128,-1,43
 463 745 463 745 375 690 c 1,44,45
 430 693 430 693 487 695.5 c 128,-1,46
 544 698 544 698 592.5 700.5 c 128,-1,47
 641 703 641 703 675.5 704 c 128,-1,48
 710 705 710 705 719 705 c 0,49,50
 742 705 742 705 751 696.5 c 128,-1,51
 760 688 760 688 760 668 c 2,52,-1
 760 601 l 2,53,54
 760 591 760 591 754 579 c 128,-1,55
 748 567 748 567 724 567 c 2,56,-1
 66 567 l 2,0,1
EndSplineSet
EndChar

StartChar: threesuperior
Encoding: 179 179 133
Width: 698
Flags: W
LayerCount: 2
Fore
SplineSet
120 1011 m 2,0,1
 111 1019 111 1019 120 1028 c 2,2,-1
 288 1195 l 1,3,-1
 98 1195 l 2,4,5
 82 1195 82 1195 73.5 1198.5 c 128,-1,6
 65 1202 65 1202 60.5 1207 c 128,-1,7
 56 1212 56 1212 55 1218.5 c 128,-1,8
 54 1225 54 1225 54 1231 c 2,9,-1
 54 1406 l 2,10,11
 54 1417 54 1417 64 1426.5 c 128,-1,12
 74 1436 74 1436 97 1436 c 2,13,-1
 603 1436 l 2,14,15
 624 1436 624 1436 635 1428 c 128,-1,16
 646 1420 646 1420 649 1408 c 128,-1,17
 652 1396 652 1396 647 1382.5 c 128,-1,18
 642 1369 642 1369 631 1358 c 2,19,-1
 366 1090 l 1,20,21
 430 1089 430 1089 487 1072.5 c 128,-1,22
 544 1056 544 1056 586.5 1023.5 c 128,-1,23
 629 991 629 991 653.5 942 c 128,-1,24
 678 893 678 893 678 829 c 0,25,26
 678 767 678 767 645.5 716.5 c 128,-1,27
 613 666 613 666 558 629 c 128,-1,28
 503 592 503 592 430.5 572 c 128,-1,29
 358 552 358 552 277 552 c 0,30,31
 250 552 250 552 218.5 554.5 c 128,-1,32
 187 557 187 557 154.5 562 c 128,-1,33
 122 567 122 567 89.5 574.5 c 128,-1,34
 57 582 57 582 29 592 c 0,35,36
 24 594 24 594 21.5 597.5 c 128,-1,37
 19 601 19 601 21 608 c 2,38,-1
 45 682 l 2,39,40
 47 688 47 688 50 688.5 c 128,-1,41
 53 689 53 689 56 689 c 0,42,43
 60 689 60 689 70.5 686 c 128,-1,44
 81 683 81 683 95 680 c 128,-1,45
 109 677 109 677 126 674 c 128,-1,46
 143 671 143 671 160 671 c 0,47,48
 221 671 221 671 256 706 c 128,-1,49
 291 741 291 741 291 825 c 0,50,51
 291 903 291 903 273.5 938 c 128,-1,52
 256 973 256 973 215 973 c 0,53,54
 204 973 204 973 190.5 970 c 128,-1,55
 177 967 177 967 169 963 c 0,56,57
 167 962 167 962 162 961 c 128,-1,58
 157 960 157 960 152 965 c 2,59,-1
 120 1011 l 2,0,1
EndSplineSet
EndChar

StartChar: onequarter
Encoding: 188 188 134
Width: 1647
Flags: W
LayerCount: 2
Fore
SplineSet
397 6 m 2,0,1
 391 -2 391 -2 382 -10 c 128,-1,2
 373 -18 373 -18 360 -18 c 0,3,4
 349 -18 349 -18 338 -10 c 2,5,-1
 291 20 l 2,6,7
 280 27 280 27 271 35 c 128,-1,8
 262 43 262 43 262 55 c 0,9,10
 262 68 262 68 274 86 c 2,11,-1
 1139 1427 l 2,12,13
 1150 1443 1150 1443 1158 1448.5 c 128,-1,14
 1166 1454 1166 1454 1174 1454 c 0,15,16
 1183 1454 1183 1454 1190 1450.5 c 128,-1,17
 1197 1447 1197 1447 1206 1442 c 2,18,-1
 1251 1409 l 2,19,20
 1274 1395 1274 1395 1274 1376 c 0,21,22
 1274 1370 1274 1370 1271.5 1364 c 128,-1,23
 1269 1358 1269 1358 1264 1350 c 2,24,-1
 397 6 l 2,0,1
45 1252 m 2,25,26
 43 1252 43 1252 39.5 1251 c 128,-1,27
 36 1250 36 1250 31 1250 c 0,28,29
 22 1250 22 1250 15.5 1254 c 128,-1,30
 9 1258 9 1258 7 1267 c 2,31,-1
 1 1345 l 2,32,33
 0 1348 0 1348 0 1351 c 2,34,-1
 0 1357 l 2,35,36
 0 1367 0 1367 4 1373 c 128,-1,37
 8 1379 8 1379 28 1382 c 2,38,-1
 466 1441 l 2,39,40
 477 1443 477 1443 491.5 1444.5 c 128,-1,41
 506 1446 506 1446 511 1446 c 0,42,43
 541 1446 541 1446 556 1437.5 c 128,-1,44
 571 1429 571 1429 578 1415.5 c 128,-1,45
 585 1402 585 1402 585.5 1384 c 128,-1,46
 586 1366 586 1366 586 1348 c 2,47,-1
 586 750 l 2,48,49
 586 736 586 736 585 721.5 c 128,-1,50
 584 707 584 707 575.5 695 c 128,-1,51
 567 683 567 683 546.5 675 c 128,-1,52
 526 667 526 667 487 667 c 2,53,-1
 229 667 l 2,54,55
 200 667 200 667 182 672 c 128,-1,56
 164 677 164 677 153.5 687.5 c 128,-1,57
 143 698 143 698 139 713.5 c 128,-1,58
 135 729 135 729 135 750 c 2,59,-1
 135 1280 l 1,60,-1
 45 1252 l 2,25,26
1593 317 m 2,61,62
 1607 317 1607 317 1607 304 c 2,63,-1
 1607 214 l 2,64,65
 1607 201 1607 201 1593 201 c 2,66,-1
 1501 201 l 1,67,-1
 1501 28 l 2,68,69
 1501 14 1501 14 1494.5 7 c 128,-1,70
 1488 0 1488 0 1468 0 c 2,71,-1
 1368 0 l 2,72,73
 1351 0 1351 0 1346 9 c 128,-1,74
 1341 18 1341 18 1341 28 c 2,75,-1
 1341 201 l 1,76,-1
 909 201 l 2,77,78
 858 201 858 201 837.5 214 c 128,-1,79
 817 227 817 227 817 253 c 0,80,81
 817 266 817 266 822 284 c 2,82,-1
 945 692 l 2,83,84
 951 713 951 713 958.5 728.5 c 128,-1,85
 966 744 966 744 978.5 754.5 c 128,-1,86
 991 765 991 765 1011 770 c 128,-1,87
 1031 775 1031 775 1063 775 c 2,88,-1
 1254 775 l 2,89,90
 1280 775 1280 775 1297 770.5 c 128,-1,91
 1314 766 1314 766 1323.5 758 c 128,-1,92
 1333 750 1333 750 1336.5 739.5 c 128,-1,93
 1340 729 1340 729 1340 718 c 256,94,95
 1340 707 1340 707 1338 696 c 128,-1,96
 1336 685 1336 685 1334 676 c 2,97,-1
 1239 317 l 1,98,-1
 1341 317 l 1,99,-1
 1341 468 l 2,100,101
 1341 479 1341 479 1346 487 c 128,-1,102
 1351 495 1351 495 1368 495 c 2,103,-1
 1471 495 l 2,104,105
 1488 495 1488 495 1494.5 488.5 c 128,-1,106
 1501 482 1501 482 1501 468 c 2,107,-1
 1501 317 l 1,108,-1
 1593 317 l 2,61,62
EndSplineSet
Ligature2: "Ligature Substitution lookup 7 subtable" onesuperior slash four
Ligature2: "Ligature Substitution lookup 7 subtable" onesuperior fraction four
Ligature2: "Ligature Substitution lookup 7 subtable" one slash four
Ligature2: "Ligature Substitution lookup 7 subtable" one fraction four
EndChar

StartChar: onehalf
Encoding: 189 189 135
Width: 1711
Flags: W
LayerCount: 2
Fore
SplineSet
397 6 m 2,0,1
 391 -2 391 -2 382 -10 c 128,-1,2
 373 -18 373 -18 360 -18 c 0,3,4
 349 -18 349 -18 338 -10 c 2,5,-1
 291 20 l 2,6,7
 280 27 280 27 271 35 c 128,-1,8
 262 43 262 43 262 55 c 0,9,10
 262 68 262 68 274 86 c 2,11,-1
 1139 1427 l 2,12,13
 1150 1443 1150 1443 1158 1448.5 c 128,-1,14
 1166 1454 1166 1454 1174 1454 c 0,15,16
 1183 1454 1183 1454 1190 1450.5 c 128,-1,17
 1197 1447 1197 1447 1206 1442 c 2,18,-1
 1251 1409 l 2,19,20
 1274 1395 1274 1395 1274 1376 c 0,21,22
 1274 1370 1274 1370 1271.5 1364 c 128,-1,23
 1269 1358 1269 1358 1264 1350 c 2,24,-1
 397 6 l 2,0,1
45 1252 m 2,25,26
 43 1252 43 1252 39.5 1251 c 128,-1,27
 36 1250 36 1250 31 1250 c 0,28,29
 22 1250 22 1250 15.5 1254 c 128,-1,30
 9 1258 9 1258 7 1267 c 2,31,-1
 1 1345 l 2,32,33
 0 1348 0 1348 0 1351 c 2,34,-1
 0 1357 l 2,35,36
 0 1367 0 1367 4 1373 c 128,-1,37
 8 1379 8 1379 28 1382 c 2,38,-1
 466 1441 l 2,39,40
 477 1443 477 1443 491.5 1444.5 c 128,-1,41
 506 1446 506 1446 511 1446 c 0,42,43
 541 1446 541 1446 556 1437.5 c 128,-1,44
 571 1429 571 1429 578 1415.5 c 128,-1,45
 585 1402 585 1402 585.5 1384 c 128,-1,46
 586 1366 586 1366 586 1348 c 2,47,-1
 586 750 l 2,48,49
 586 736 586 736 585 721.5 c 128,-1,50
 584 707 584 707 575.5 695 c 128,-1,51
 567 683 567 683 546.5 675 c 128,-1,52
 526 667 526 667 487 667 c 2,53,-1
 229 667 l 2,54,55
 200 667 200 667 182 672 c 128,-1,56
 164 677 164 677 153.5 687.5 c 128,-1,57
 143 698 143 698 139 713.5 c 128,-1,58
 135 729 135 729 135 750 c 2,59,-1
 135 1280 l 1,60,-1
 45 1252 l 2,25,26
977 0 m 2,61,62
 963 0 963 0 956.5 4 c 128,-1,63
 950 8 950 8 950 20 c 0,64,65
 950 28 950 28 955.5 37.5 c 128,-1,66
 961 47 961 47 969 58 c 0,67,68
 1001 103 1001 103 1028.5 155.5 c 128,-1,69
 1056 208 1056 208 1076.5 262.5 c 128,-1,70
 1097 317 1097 317 1108.5 370 c 128,-1,71
 1120 423 1120 423 1120 468 c 0,72,73
 1120 520 1120 520 1113.5 553.5 c 128,-1,74
 1107 587 1107 587 1095.5 606.5 c 128,-1,75
 1084 626 1084 626 1067.5 634 c 128,-1,76
 1051 642 1051 642 1031 642 c 0,77,78
 1021 642 1021 642 1012 638.5 c 128,-1,79
 1003 635 1003 635 995.5 631.5 c 128,-1,80
 988 628 988 628 982 624.5 c 128,-1,81
 976 621 976 621 972 621 c 256,82,83
 968 621 968 621 963 626 c 2,84,-1
 928 683 l 2,85,86
 927 685 927 685 926.5 686.5 c 128,-1,87
 926 688 926 688 926 690 c 0,88,89
 926 694 926 694 927.5 696 c 128,-1,90
 929 698 929 698 931 700 c 0,91,92
 959 723 959 723 997 742 c 128,-1,93
 1035 761 1035 761 1079.5 774 c 128,-1,94
 1124 787 1124 787 1173 794 c 128,-1,95
 1222 801 1222 801 1273 801 c 0,96,97
 1372 801 1372 801 1437.5 776 c 128,-1,98
 1503 751 1503 751 1542 711 c 128,-1,99
 1581 671 1581 671 1597.5 621.5 c 128,-1,100
 1614 572 1614 572 1614 523 c 0,101,102
 1614 472 1614 472 1595.5 421.5 c 128,-1,103
 1577 371 1577 371 1537.5 320.5 c 128,-1,104
 1498 270 1498 270 1436 220 c 128,-1,105
 1374 170 1374 170 1286 121 c 1,106,107
 1341 124 1341 124 1398 126 c 128,-1,108
 1455 128 1455 128 1503.5 130 c 128,-1,109
 1552 132 1552 132 1586.5 133 c 128,-1,110
 1621 134 1621 134 1630 134 c 0,111,112
 1653 134 1653 134 1662 126.5 c 128,-1,113
 1671 119 1671 119 1671 101 c 2,114,-1
 1671 31 l 2,115,116
 1671 22 1671 22 1665 11 c 128,-1,117
 1659 0 1659 0 1635 0 c 2,118,-1
 977 0 l 2,61,62
EndSplineSet
Ligature2: "Ligature Substitution lookup 7 subtable" onesuperior slash twosuperior
Ligature2: "Ligature Substitution lookup 7 subtable" onesuperior fraction twosuperior
Ligature2: "Ligature Substitution lookup 7 subtable" one slash twosuperior
Ligature2: "Ligature Substitution lookup 7 subtable" one slash two
Ligature2: "Ligature Substitution lookup 7 subtable" one fraction twosuperior
Ligature2: "Ligature Substitution lookup 7 subtable" one fraction two
EndChar

StartChar: threequarters
Encoding: 190 190 136
Width: 1657
Flags: W
LayerCount: 2
Fore
SplineSet
407 6 m 2,0,1
 401 -2 401 -2 392 -10 c 128,-1,2
 383 -18 383 -18 370 -18 c 0,3,4
 359 -18 359 -18 348 -10 c 2,5,-1
 301 20 l 2,6,7
 290 27 290 27 281 35 c 128,-1,8
 272 43 272 43 272 55 c 0,9,10
 272 68 272 68 284 86 c 2,11,-1
 1149 1427 l 2,12,13
 1160 1443 1160 1443 1168 1448.5 c 128,-1,14
 1176 1454 1176 1454 1184 1454 c 0,15,16
 1193 1454 1193 1454 1200 1450.5 c 128,-1,17
 1207 1447 1207 1447 1216 1442 c 2,18,-1
 1261 1409 l 2,19,20
 1284 1395 1284 1395 1284 1376 c 0,21,22
 1284 1370 1284 1370 1281.5 1364 c 128,-1,23
 1279 1358 1279 1358 1274 1350 c 2,24,-1
 407 6 l 2,0,1
1603 317 m 2,25,26
 1617 317 1617 317 1617 304 c 2,27,-1
 1617 214 l 2,28,29
 1617 201 1617 201 1603 201 c 2,30,-1
 1511 201 l 1,31,-1
 1511 28 l 2,32,33
 1511 14 1511 14 1504.5 7 c 128,-1,34
 1498 0 1498 0 1478 0 c 2,35,-1
 1378 0 l 2,36,37
 1361 0 1361 0 1356 9 c 128,-1,38
 1351 18 1351 18 1351 28 c 2,39,-1
 1351 201 l 1,40,-1
 919 201 l 2,41,42
 868 201 868 201 847.5 214 c 128,-1,43
 827 227 827 227 827 253 c 0,44,45
 827 266 827 266 832 284 c 2,46,-1
 955 692 l 2,47,48
 961 713 961 713 968.5 728.5 c 128,-1,49
 976 744 976 744 988.5 754.5 c 128,-1,50
 1001 765 1001 765 1021 770 c 128,-1,51
 1041 775 1041 775 1073 775 c 2,52,-1
 1264 775 l 2,53,54
 1290 775 1290 775 1307 770.5 c 128,-1,55
 1324 766 1324 766 1333.5 758 c 128,-1,56
 1343 750 1343 750 1346.5 739.5 c 128,-1,57
 1350 729 1350 729 1350 718 c 256,58,59
 1350 707 1350 707 1348 696 c 128,-1,60
 1346 685 1346 685 1344 676 c 2,61,-1
 1249 317 l 1,62,-1
 1351 317 l 1,63,-1
 1351 468 l 2,64,65
 1351 479 1351 479 1356 487 c 128,-1,66
 1361 495 1361 495 1378 495 c 2,67,-1
 1481 495 l 2,68,69
 1498 495 1498 495 1504.5 488.5 c 128,-1,70
 1511 482 1511 482 1511 468 c 2,71,-1
 1511 317 l 1,72,-1
 1603 317 l 2,25,26
138 1066 m 2,73,74
 136 1071 136 1071 135 1074 c 128,-1,75
 134 1077 134 1077 138 1081 c 2,76,-1
 283 1216 l 1,77,-1
 107 1216 l 2,78,79
 91 1216 91 1216 82.5 1219 c 128,-1,80
 74 1222 74 1222 69.5 1226.5 c 128,-1,81
 65 1231 65 1231 64 1236.5 c 128,-1,82
 63 1242 63 1242 63 1247 c 2,83,-1
 63 1410 l 2,84,85
 63 1420 63 1420 73 1428 c 128,-1,86
 83 1436 83 1436 106 1436 c 2,87,-1
 602 1436 l 2,88,89
 622 1436 622 1436 633 1429 c 128,-1,90
 644 1422 644 1422 647 1411.5 c 128,-1,91
 650 1401 650 1401 645.5 1389.5 c 128,-1,92
 641 1378 641 1378 630 1368 c 2,93,-1
 380 1135 l 1,94,95
 443 1134 443 1134 497 1119.5 c 128,-1,96
 551 1105 551 1105 591 1076.5 c 128,-1,97
 631 1048 631 1048 653.5 1005.5 c 128,-1,98
 676 963 676 963 676 907 c 0,99,100
 676 853 676 853 644 809 c 128,-1,101
 612 765 612 765 558 733 c 128,-1,102
 504 701 504 701 432.5 683.5 c 128,-1,103
 361 666 361 666 282 666 c 0,104,105
 256 666 256 666 225 668 c 128,-1,106
 194 670 194 670 162 674.5 c 128,-1,107
 130 679 130 679 98.5 685.5 c 128,-1,108
 67 692 67 692 39 701 c 0,109,110
 34 703 34 703 31.5 706 c 128,-1,111
 29 709 29 709 31 715 c 2,112,-1
 55 789 l 2,113,114
 57 794 57 794 59.5 794.5 c 128,-1,115
 62 795 62 795 65 795 c 0,116,117
 69 795 69 795 79 792.5 c 128,-1,118
 89 790 89 790 103 787.5 c 128,-1,119
 117 785 117 785 133.5 782.5 c 128,-1,120
 150 780 150 780 167 780 c 0,121,122
 197 780 197 780 221 785.5 c 128,-1,123
 245 791 245 791 261.5 805 c 128,-1,124
 278 819 278 819 287 843 c 128,-1,125
 296 867 296 867 296 904 c 0,126,127
 296 972 296 972 278.5 1002.5 c 128,-1,128
 261 1033 261 1033 221 1033 c 0,129,130
 210 1033 210 1033 197 1030 c 128,-1,131
 184 1027 184 1027 176 1024 c 0,132,133
 174 1023 174 1023 168.5 1022 c 128,-1,134
 163 1021 163 1021 160 1026 c 2,135,-1
 138 1066 l 2,73,74
EndSplineSet
Ligature2: "Ligature Substitution lookup 7 subtable" threesuperior slash four
Ligature2: "Ligature Substitution lookup 7 subtable" threesuperior fraction four
Ligature2: "Ligature Substitution lookup 7 subtable" three slash four
Ligature2: "Ligature Substitution lookup 7 subtable" three fraction four
EndChar

StartChar: degree
Encoding: 176 176 137
Width: 589
Flags: W
LayerCount: 2
Fore
SplineSet
50 1219 m 256,0,1
 50 1270 50 1270 69.5 1314.5 c 128,-1,2
 89 1359 89 1359 122 1392 c 128,-1,3
 155 1425 155 1425 199.5 1444.5 c 128,-1,4
 244 1464 244 1464 295 1464 c 256,5,6
 346 1464 346 1464 390.5 1444.5 c 128,-1,7
 435 1425 435 1425 468 1392 c 128,-1,8
 501 1359 501 1359 520 1314.5 c 128,-1,9
 539 1270 539 1270 539 1219 c 256,10,11
 539 1168 539 1168 520 1123.5 c 128,-1,12
 501 1079 501 1079 468 1046 c 128,-1,13
 435 1013 435 1013 390.5 994 c 128,-1,14
 346 975 346 975 295 975 c 256,15,16
 244 975 244 975 199.5 994 c 128,-1,17
 155 1013 155 1013 122 1046 c 128,-1,18
 89 1079 89 1079 69.5 1123.5 c 128,-1,19
 50 1168 50 1168 50 1219 c 256,0,1
168 1220 m 256,20,21
 168 1193 168 1193 178 1170 c 128,-1,22
 188 1147 188 1147 205 1130 c 128,-1,23
 222 1113 222 1113 245.5 1103 c 128,-1,24
 269 1093 269 1093 295 1093 c 0,25,26
 322 1093 322 1093 345 1103 c 128,-1,27
 368 1113 368 1113 385 1130 c 128,-1,28
 402 1147 402 1147 411.5 1170 c 128,-1,29
 421 1193 421 1193 421 1220 c 256,30,31
 421 1247 421 1247 411.5 1270 c 128,-1,32
 402 1293 402 1293 385 1310 c 128,-1,33
 368 1327 368 1327 345 1337 c 128,-1,34
 322 1347 322 1347 295 1347 c 0,35,36
 269 1347 269 1347 245.5 1337 c 128,-1,37
 222 1327 222 1327 205 1310 c 128,-1,38
 188 1293 188 1293 178 1270 c 128,-1,39
 168 1247 168 1247 168 1220 c 256,20,21
EndSplineSet
EndChar

StartChar: ordfeminine
Encoding: 170 170 138
Width: 984
Flags: W
LayerCount: 2
Fore
SplineSet
386 689 m 2,0,1
 325 689 325 689 265 701 c 128,-1,2
 205 713 205 713 157.5 741.5 c 128,-1,3
 110 770 110 770 80.5 818 c 128,-1,4
 51 866 51 866 51 939 c 0,5,6
 51 1004 51 1004 76 1051 c 128,-1,7
 101 1098 101 1098 142.5 1128.5 c 128,-1,8
 184 1159 184 1159 237.5 1175.5 c 128,-1,9
 291 1192 291 1192 349 1197 c 1,10,-1
 349 1240 l 2,11,12
 349 1269 349 1269 341.5 1286.5 c 128,-1,13
 334 1304 334 1304 322.5 1313 c 128,-1,14
 311 1322 311 1322 297 1324.5 c 128,-1,15
 283 1327 283 1327 270 1327 c 0,16,17
 255 1327 255 1327 238.5 1322.5 c 128,-1,18
 222 1318 222 1318 206 1311.5 c 128,-1,19
 190 1305 190 1305 176 1297.5 c 128,-1,20
 162 1290 162 1290 152 1284 c 0,21,22
 147 1281 147 1281 143.5 1278.5 c 128,-1,23
 140 1276 140 1276 136 1276 c 0,24,25
 130 1276 130 1276 123 1286 c 2,26,-1
 98 1335 l 2,27,28
 94 1340 94 1340 94 1346 c 256,29,30
 94 1352 94 1352 98.5 1356.5 c 128,-1,31
 103 1361 103 1361 108 1364 c 0,32,33
 133 1381 133 1381 171.5 1399 c 128,-1,34
 210 1417 210 1417 257.5 1431.5 c 128,-1,35
 305 1446 305 1446 360.5 1455 c 128,-1,36
 416 1464 416 1464 475 1464 c 0,37,38
 560 1464 560 1464 637 1454 c 128,-1,39
 714 1444 714 1444 773 1409 c 128,-1,40
 832 1374 832 1374 867 1306.5 c 128,-1,41
 902 1239 902 1239 902 1125 c 2,42,-1
 902 790 l 2,43,44
 902 765 902 765 897.5 746 c 128,-1,45
 893 727 893 727 880 714.5 c 128,-1,46
 867 702 867 702 844.5 695.5 c 128,-1,47
 822 689 822 689 786 689 c 2,48,-1
 386 689 l 2,0,1
349 1091 m 1,49,50
 295 1091 295 1091 259.5 1078 c 128,-1,51
 224 1065 224 1065 203.5 1044 c 128,-1,52
 183 1023 183 1023 175 995.5 c 128,-1,53
 167 968 167 968 167 939 c 256,54,55
 167 910 167 910 175 883.5 c 128,-1,56
 183 857 183 857 204 837.5 c 128,-1,57
 225 818 225 818 260 806.5 c 128,-1,58
 295 795 295 795 349 795 c 1,59,-1
 349 1091 l 1,49,50
EndSplineSet
EndChar

StartChar: ordmasculine
Encoding: 186 186 139
Width: 1024
Flags: W
LayerCount: 2
Fore
SplineSet
512 644 m 0,0,1
 428 644 428 644 345 664.5 c 128,-1,2
 262 685 262 685 196.5 732.5 c 128,-1,3
 131 780 131 780 90.5 858.5 c 128,-1,4
 50 937 50 937 50 1054 c 0,5,6
 50 1169 50 1169 90.5 1247.5 c 128,-1,7
 131 1326 131 1326 196.5 1374 c 128,-1,8
 262 1422 262 1422 345 1443 c 128,-1,9
 428 1464 428 1464 512 1464 c 0,10,11
 564 1464 564 1464 618 1457.5 c 128,-1,12
 672 1451 672 1451 723.5 1434.5 c 128,-1,13
 775 1418 775 1418 820.5 1389 c 128,-1,14
 866 1360 866 1360 900 1315 c 128,-1,15
 934 1270 934 1270 954 1207 c 128,-1,16
 974 1144 974 1144 974 1060 c 0,17,18
 974 973 974 973 954.5 908 c 128,-1,19
 935 843 935 843 901 797 c 128,-1,20
 867 751 867 751 821.5 721 c 128,-1,21
 776 691 776 691 725 674 c 128,-1,22
 674 657 674 657 619 650.5 c 128,-1,23
 564 644 564 644 512 644 c 0,0,1
738 834 m 0,24,25
 762 834 762 834 783.5 844 c 128,-1,26
 805 854 805 854 822 879.5 c 128,-1,27
 839 905 839 905 849 948.5 c 128,-1,28
 859 992 859 992 859 1060 c 0,29,30
 859 1124 859 1124 848.5 1165.5 c 128,-1,31
 838 1207 838 1207 821 1231 c 128,-1,32
 804 1255 804 1255 782.5 1264.5 c 128,-1,33
 761 1274 761 1274 738 1274 c 0,34,35
 720 1274 720 1274 699 1266.5 c 128,-1,36
 678 1259 678 1259 659.5 1236 c 128,-1,37
 641 1213 641 1213 629 1169.5 c 128,-1,38
 617 1126 617 1126 617 1054 c 256,39,40
 617 982 617 982 626.5 938.5 c 128,-1,41
 636 895 636 895 652.5 871.5 c 128,-1,42
 669 848 669 848 691 841 c 128,-1,43
 713 834 713 834 738 834 c 0,24,25
EndSplineSet
EndChar

StartChar: plus
Encoding: 43 43 140
Width: 1024
Flags: W
LayerCount: 2
Fore
SplineSet
619 630 m 1,0,-1
 873 630 l 2,1,2
 894 630 894 630 894 609 c 2,3,-1
 894 438 l 2,4,5
 894 416 894 416 873 416 c 2,6,-1
 619 416 l 1,7,-1
 619 162 l 2,8,9
 619 141 619 141 597 141 c 2,10,-1
 426 141 l 2,11,12
 405 141 405 141 405 162 c 2,13,-1
 405 416 l 1,14,-1
 151 416 l 2,15,16
 130 416 130 416 130 438 c 2,17,-1
 130 609 l 2,18,19
 130 630 130 630 151 630 c 2,20,-1
 405 630 l 1,21,-1
 405 884 l 2,22,23
 405 905 405 905 426 905 c 2,24,-1
 597 905 l 2,25,26
 619 905 619 905 619 884 c 2,27,-1
 619 630 l 1,0,-1
EndSplineSet
EndChar

StartChar: equal
Encoding: 61 61 141
Width: 1024
Flags: W
LayerCount: 2
Fore
SplineSet
171 616 m 2,0,1
 150 616 150 616 150 638 c 2,2,-1
 150 809 l 2,3,4
 150 830 150 830 171 830 c 2,5,-1
 853 830 l 2,6,7
 874 830 874 830 874 809 c 2,8,-1
 874 638 l 2,9,10
 874 616 874 616 853 616 c 2,11,-1
 171 616 l 2,0,1
171 216 m 2,12,13
 150 216 150 216 150 238 c 2,14,-1
 150 409 l 2,15,16
 150 430 150 430 171 430 c 2,17,-1
 853 430 l 2,18,19
 874 430 874 430 874 409 c 2,20,-1
 874 238 l 2,21,22
 874 216 874 216 853 216 c 2,23,-1
 171 216 l 2,12,13
EndSplineSet
EndChar

StartChar: multiply
Encoding: 215 215 142
Width: 1024
Flags: W
LayerCount: 2
Fore
SplineSet
512 674 m 1,0,-1
 720 882 l 2,1,2
 728 890 728 890 735 890 c 256,3,4
 742 890 742 890 750 882 c 2,5,-1
 871 761 l 2,6,7
 878 754 878 754 878 746 c 256,8,9
 878 738 878 738 871 731 c 2,10,-1
 663 523 l 1,11,-1
 871 315 l 2,12,13
 878 308 878 308 878 300 c 256,14,15
 878 292 878 292 871 285 c 2,16,-1
 750 164 l 2,17,18
 742 156 742 156 735 156 c 256,19,20
 728 156 728 156 720 164 c 2,21,-1
 512 372 l 1,22,-1
 304 164 l 2,23,24
 296 156 296 156 289 156 c 256,25,26
 282 156 282 156 274 164 c 2,27,-1
 153 285 l 2,28,29
 145 293 145 293 145 300 c 256,30,31
 145 307 145 307 153 315 c 2,32,-1
 361 523 l 1,33,-1
 153 731 l 2,34,35
 145 739 145 739 145 746 c 256,36,37
 145 753 145 753 153 761 c 2,38,-1
 274 882 l 2,39,40
 281 889 281 889 289 889 c 256,41,42
 297 889 297 889 304 882 c 2,43,-1
 512 674 l 1,0,-1
EndSplineSet
EndChar

StartChar: divide
Encoding: 247 247 143
Width: 1024
Flags: W
LayerCount: 2
Fore
SplineSet
151 416 m 2,0,1
 130 416 130 416 130 438 c 2,2,-1
 130 609 l 2,3,4
 130 630 130 630 151 630 c 2,5,-1
 873 630 l 2,6,7
 894 630 894 630 894 609 c 2,8,-1
 894 438 l 2,9,10
 894 416 894 416 873 416 c 2,11,-1
 151 416 l 2,0,1
387 219 m 256,12,13
 387 245 387 245 397 268 c 128,-1,14
 407 291 407 291 424 308.5 c 128,-1,15
 441 326 441 326 463.5 336 c 128,-1,16
 486 346 486 346 512 346 c 256,17,18
 538 346 538 346 561 336 c 128,-1,19
 584 326 584 326 601 308.5 c 128,-1,20
 618 291 618 291 628 268 c 128,-1,21
 638 245 638 245 638 219 c 256,22,23
 638 193 638 193 628 170.5 c 128,-1,24
 618 148 618 148 601 131 c 128,-1,25
 584 114 584 114 561 104.5 c 128,-1,26
 538 95 538 95 512 95 c 256,27,28
 486 95 486 95 463.5 104.5 c 128,-1,29
 441 114 441 114 424 131 c 128,-1,30
 407 148 407 148 397 170.5 c 128,-1,31
 387 193 387 193 387 219 c 256,12,13
387 824 m 256,32,33
 387 850 387 850 397 873 c 128,-1,34
 407 896 407 896 424 913.5 c 128,-1,35
 441 931 441 931 463.5 941 c 128,-1,36
 486 951 486 951 512 951 c 256,37,38
 538 951 538 951 561 941 c 128,-1,39
 584 931 584 931 601 913.5 c 128,-1,40
 618 896 618 896 628 873 c 128,-1,41
 638 850 638 850 638 824 c 256,42,43
 638 798 638 798 628 775.5 c 128,-1,44
 618 753 618 753 601 736 c 128,-1,45
 584 719 584 719 561 709.5 c 128,-1,46
 538 700 538 700 512 700 c 256,47,48
 486 700 486 700 463.5 709.5 c 128,-1,49
 441 719 441 719 424 736 c 128,-1,50
 407 753 407 753 397 775.5 c 128,-1,51
 387 798 387 798 387 824 c 256,32,33
EndSplineSet
EndChar

StartChar: logicalnot
Encoding: 172 172 144
Width: 1024
Flags: W
LayerCount: 2
Fore
SplineSet
874 302 m 2,0,1
 874 281 874 281 852 281 c 2,2,-1
 681 281 l 2,3,4
 660 281 660 281 660 302 c 2,5,-1
 660 566 l 1,6,-1
 151 566 l 2,7,8
 130 566 130 566 130 588 c 2,9,-1
 130 759 l 2,10,11
 130 780 130 780 151 780 c 2,12,-1
 853 780 l 2,13,14
 874 780 874 780 874 759 c 2,15,-1
 874 302 l 2,0,1
EndSplineSet
EndChar

StartChar: plusminus
Encoding: 177 177 145
Width: 1024
Flags: W
LayerCount: 2
Fore
SplineSet
619 516 m 1,0,-1
 619 312 l 2,1,2
 619 291 619 291 597 291 c 2,3,-1
 426 291 l 2,4,5
 405 291 405 291 405 312 c 2,6,-1
 405 516 l 1,7,-1
 151 516 l 2,8,9
 130 516 130 516 130 538 c 2,10,-1
 130 709 l 2,11,12
 130 730 130 730 151 730 c 2,13,-1
 405 730 l 1,14,-1
 405 934 l 2,15,16
 405 955 405 955 426 955 c 2,17,-1
 597 955 l 2,18,19
 619 955 619 955 619 934 c 2,20,-1
 619 730 l 1,21,-1
 873 730 l 2,22,23
 894 730 894 730 894 709 c 2,24,-1
 894 538 l 2,25,26
 894 516 894 516 873 516 c 2,27,-1
 619 516 l 1,0,-1
151 0 m 2,28,29
 130 0 130 0 130 22 c 2,30,-1
 130 193 l 2,31,32
 130 214 130 214 151 214 c 2,33,-1
 873 214 l 2,34,35
 894 214 894 214 894 193 c 2,36,-1
 894 22 l 2,37,38
 894 0 894 0 873 0 c 2,39,-1
 151 0 l 2,28,29
EndSplineSet
EndChar

StartChar: less
Encoding: 60 60 146
Width: 1024
Flags: W
LayerCount: 2
Fore
SplineSet
436 523 m 1,0,-1
 868 258 l 2,1,2
 879 252 879 252 879 242 c 0,3,4
 879 236 879 236 875 229 c 2,5,-1
 789 81 l 2,6,7
 781 69 781 69 773 69 c 0,8,9
 766 69 766 69 761 73 c 2,10,-1
 150 448 l 2,11,12
 140 454 140 454 136.5 462.5 c 128,-1,13
 133 471 133 471 133 482 c 2,14,-1
 133 564 l 2,15,16
 133 575 133 575 136.5 583.5 c 128,-1,17
 140 592 140 592 150 598 c 2,18,-1
 761 973 l 2,19,20
 766 977 766 977 773 977 c 0,21,22
 781 977 781 977 789 965 c 2,23,-1
 875 817 l 2,24,25
 879 810 879 810 879 804 c 0,26,27
 879 794 879 794 868 788 c 2,28,-1
 436 523 l 1,0,-1
EndSplineSet
EndChar

StartChar: greater
Encoding: 62 62 147
Width: 1024
Flags: W
LayerCount: 2
Fore
SplineSet
588 523 m 1,0,-1
 156 788 l 2,1,2
 145 794 145 794 145 804 c 0,3,4
 145 810 145 810 149 817 c 2,5,-1
 235 965 l 2,6,7
 241 977 241 977 251 977 c 0,8,9
 256 977 256 977 263 973 c 2,10,-1
 874 598 l 2,11,12
 884 592 884 592 887.5 583.5 c 128,-1,13
 891 575 891 575 891 564 c 2,14,-1
 891 482 l 2,15,16
 891 471 891 471 887.5 462.5 c 128,-1,17
 884 454 884 454 874 448 c 2,18,-1
 263 73 l 2,19,20
 256 69 256 69 251 69 c 0,21,22
 241 69 241 69 235 81 c 2,23,-1
 149 229 l 2,24,25
 145 236 145 236 145 242 c 0,26,27
 145 252 145 252 156 258 c 2,28,-1
 588 523 l 1,0,-1
EndSplineSet
EndChar

StartChar: bar
Encoding: 124 124 148
Width: 511
Flags: W
LayerCount: 2
Fore
SplineSet
173 1489 m 2,0,1
 173 1506 173 1506 177 1515.5 c 128,-1,2
 181 1525 181 1525 187.5 1529.5 c 128,-1,3
 194 1534 194 1534 202.5 1535 c 128,-1,4
 211 1536 211 1536 220 1536 c 2,5,-1
 296 1536 l 2,6,7
 322 1536 322 1536 330.5 1523 c 128,-1,8
 339 1510 339 1510 339 1489 c 2,9,-1
 339 -465 l 2,10,11
 339 -482 339 -482 331.5 -497 c 128,-1,12
 324 -512 324 -512 298 -512 c 2,13,-1
 222 -512 l 2,14,15
 213 -512 213 -512 204 -511 c 128,-1,16
 195 -510 195 -510 188.5 -505.5 c 128,-1,17
 182 -501 182 -501 177.5 -491.5 c 128,-1,18
 173 -482 173 -482 173 -465 c 2,19,-1
 173 1489 l 2,0,1
EndSplineSet
EndChar

StartChar: brokenbar
Encoding: 166 166 149
Width: 511
Flags: W
LayerCount: 2
Fore
SplineSet
173 1489 m 2,0,1
 173 1506 173 1506 177 1515.5 c 128,-1,2
 181 1525 181 1525 187.5 1529.5 c 128,-1,3
 194 1534 194 1534 202.5 1535 c 128,-1,4
 211 1536 211 1536 220 1536 c 2,5,-1
 296 1536 l 2,6,7
 322 1536 322 1536 330.5 1523 c 128,-1,8
 339 1510 339 1510 339 1489 c 2,9,-1
 339 806 l 2,10,11
 339 789 339 789 331.5 774 c 128,-1,12
 324 759 324 759 298 759 c 2,13,-1
 222 759 l 2,14,15
 213 759 213 759 204 760 c 128,-1,16
 195 761 195 761 188.5 765.5 c 128,-1,17
 182 770 182 770 177.5 779.5 c 128,-1,18
 173 789 173 789 173 806 c 2,19,-1
 173 1489 l 2,0,1
173 218 m 2,20,21
 173 235 173 235 177 244.5 c 128,-1,22
 181 254 181 254 187.5 258.5 c 128,-1,23
 194 263 194 263 202.5 264 c 128,-1,24
 211 265 211 265 220 265 c 2,25,-1
 296 265 l 2,26,27
 322 265 322 265 330.5 252 c 128,-1,28
 339 239 339 239 339 218 c 2,29,-1
 339 -465 l 2,30,31
 339 -482 339 -482 331.5 -497 c 128,-1,32
 324 -512 324 -512 298 -512 c 2,33,-1
 222 -512 l 2,34,35
 213 -512 213 -512 204 -511 c 128,-1,36
 195 -510 195 -510 188.5 -505.5 c 128,-1,37
 182 -501 182 -501 177.5 -491.5 c 128,-1,38
 173 -482 173 -482 173 -465 c 2,39,-1
 173 218 l 2,20,21
EndSplineSet
EndChar

StartChar: at
Encoding: 64 64 150
Width: 1736
Flags: W
LayerCount: 2
Fore
SplineSet
832 285 m 2,0,1
 763 285 763 285 698.5 298.5 c 128,-1,2
 634 312 634 312 584.5 344 c 128,-1,3
 535 376 535 376 505.5 430.5 c 128,-1,4
 476 485 476 485 476 567 c 0,5,6
 476 643 476 643 509 696 c 128,-1,7
 542 749 542 749 592 782.5 c 128,-1,8
 642 816 642 816 702 832.5 c 128,-1,9
 762 849 762 849 816 854 c 1,10,-1
 816 882 l 2,11,12
 816 915 816 915 806 934.5 c 128,-1,13
 796 954 796 954 781.5 963.5 c 128,-1,14
 767 973 767 973 751 976 c 128,-1,15
 735 979 735 979 723 979 c 0,16,17
 691 979 691 979 665 970 c 128,-1,18
 639 961 639 961 619 950.5 c 128,-1,19
 599 940 599 940 585 931 c 128,-1,20
 571 922 571 922 563 922 c 256,21,22
 555 922 555 922 551 924 c 128,-1,23
 547 926 547 926 544 934 c 2,24,-1
 521 986 l 2,25,26
 519 990 519 990 517.5 995 c 128,-1,27
 516 1000 516 1000 516 1002 c 0,28,29
 516 1009 516 1009 521 1013.5 c 128,-1,30
 526 1018 526 1018 530 1021 c 0,31,32
 554 1041 554 1041 589.5 1061 c 128,-1,33
 625 1081 625 1081 669.5 1097.5 c 128,-1,34
 714 1114 714 1114 765.5 1124 c 128,-1,35
 817 1134 817 1134 872 1134 c 0,36,37
 956 1134 956 1134 1028.5 1121 c 128,-1,38
 1101 1108 1101 1108 1154.5 1069.5 c 128,-1,39
 1208 1031 1208 1031 1239 960.5 c 128,-1,40
 1270 890 1270 890 1270 774 c 2,41,-1
 1270 440 l 1,42,43
 1321 454 1321 454 1361.5 485.5 c 128,-1,44
 1402 517 1402 517 1430.5 562 c 128,-1,45
 1459 607 1459 607 1474 662.5 c 128,-1,46
 1489 718 1489 718 1489 780 c 0,47,48
 1489 907 1489 907 1450 1009.5 c 128,-1,49
 1411 1112 1411 1112 1336 1184 c 128,-1,50
 1261 1256 1261 1256 1152 1294.5 c 128,-1,51
 1043 1333 1043 1333 904 1333 c 0,52,53
 773 1333 773 1333 654 1286 c 128,-1,54
 535 1239 535 1239 445 1154.5 c 128,-1,55
 355 1070 355 1070 301.5 953.5 c 128,-1,56
 248 837 248 837 248 698 c 0,57,58
 248 566 248 566 298 455 c 128,-1,59
 348 344 348 344 434 263.5 c 128,-1,60
 520 183 520 183 636 138 c 128,-1,61
 752 93 752 93 883 93 c 0,62,63
 943 93 943 93 998 100 c 128,-1,64
 1053 107 1053 107 1105 124 c 0,65,66
 1110 125 1110 125 1116.5 128 c 128,-1,67
 1123 131 1123 131 1130.5 131 c 128,-1,68
 1138 131 1138 131 1145 127 c 128,-1,69
 1152 123 1152 123 1157 112 c 2,70,-1
 1193 28 l 2,71,72
 1201 9 1201 9 1191.5 3 c 128,-1,73
 1182 -3 1182 -3 1175 -7 c 0,74,75
 1106 -35 1106 -35 1035.5 -45 c 128,-1,76
 965 -55 965 -55 883 -55 c 0,77,78
 775 -55 775 -55 675 -29.5 c 128,-1,79
 575 -4 575 -4 488 44 c 128,-1,80
 401 92 401 92 329.5 159.5 c 128,-1,81
 258 227 258 227 207 310.5 c 128,-1,82
 156 394 156 394 128 492 c 128,-1,83
 100 590 100 590 100 698 c 0,84,85
 100 811 100 811 129.5 913 c 128,-1,86
 159 1015 159 1015 212 1102 c 128,-1,87
 265 1189 265 1189 339.5 1259 c 128,-1,88
 414 1329 414 1329 503 1378.5 c 128,-1,89
 592 1428 592 1428 694 1454.5 c 128,-1,90
 796 1481 796 1481 904 1481 c 0,91,92
 1066 1481 1066 1481 1201 1432.5 c 128,-1,93
 1336 1384 1336 1384 1432.5 1293 c 128,-1,94
 1529 1202 1529 1202 1582.5 1072 c 128,-1,95
 1636 942 1636 942 1636 780 c 0,96,97
 1636 672 1636 672 1598.5 581.5 c 128,-1,98
 1561 491 1561 491 1496.5 425 c 128,-1,99
 1432 359 1432 359 1346 322 c 128,-1,100
 1260 285 1260 285 1163 285 c 2,101,-1
 832 285 l 2,0,1
816 727 m 1,102,103
 765 727 765 727 727.5 715 c 128,-1,104
 690 703 690 703 665.5 681.5 c 128,-1,105
 641 660 641 660 628.5 630.5 c 128,-1,106
 616 601 616 601 616 566 c 0,107,108
 616 494 616 494 665.5 453.5 c 128,-1,109
 715 413 715 413 816 413 c 1,110,-1
 816 727 l 1,102,103
EndSplineSet
EndChar

StartChar: asciicircum
Encoding: 94 94 151
Width: 1024
Flags: W
LayerCount: 2
Fore
SplineSet
512 1224 m 1,0,-1
 247 887 l 2,1,2
 241 879 241 879 231 879 c 0,3,4
 228 879 228 879 224.5 879.5 c 128,-1,5
 221 880 221 880 218 883 c 2,6,-1
 90 989 l 2,7,8
 85 994 85 994 81.5 997 c 128,-1,9
 78 1000 78 1000 78 1005 c 0,10,11
 78 1012 78 1012 82 1017 c 2,12,-1
 407 1419 l 2,13,14
 421 1436 421 1436 441 1436 c 2,15,-1
 583 1436 l 2,16,17
 603 1436 603 1436 617 1419 c 2,18,-1
 942 1017 l 2,19,20
 946 1012 946 1012 946 1005 c 0,21,22
 946 1000 946 1000 942.5 997 c 128,-1,23
 939 994 939 994 934 989 c 2,24,-1
 806 883 l 2,25,26
 803 880 803 880 799 879.5 c 128,-1,27
 795 879 795 879 793 879 c 0,28,29
 788 879 788 879 784.5 882 c 128,-1,30
 781 885 781 885 777 890 c 2,31,-1
 512 1224 l 1,0,-1
EndSplineSet
EndChar

StartChar: asciitilde
Encoding: 126 126 152
Width: 1024
Flags: W
LayerCount: 2
Fore
SplineSet
908 627 m 2,0,1
 924 619 924 619 927 610 c 128,-1,2
 930 601 930 601 926 588 c 0,3,4
 906 524 906 524 878.5 477.5 c 128,-1,5
 851 431 851 431 817 401 c 128,-1,6
 783 371 783 371 744 356.5 c 128,-1,7
 705 342 705 342 663 342 c 0,8,9
 618 342 618 342 576 363.5 c 128,-1,10
 534 385 534 385 497 411 c 128,-1,11
 460 437 460 437 429.5 458.5 c 128,-1,12
 399 480 399 480 378 480 c 0,13,14
 359 480 359 480 344.5 471 c 128,-1,15
 330 462 330 462 318.5 447.5 c 128,-1,16
 307 433 307 433 298 414 c 128,-1,17
 289 395 289 395 282 374 c 0,18,19
 281 371 281 371 279 366 c 128,-1,20
 277 361 277 361 272.5 358 c 128,-1,21
 268 355 268 355 260.5 355 c 128,-1,22
 253 355 253 355 241 361 c 2,23,-1
 116 421 l 2,24,25
 94 432 94 432 94.5 443.5 c 128,-1,26
 95 455 95 455 97 463 c 0,27,28
 115 526 115 526 142.5 571.5 c 128,-1,29
 170 617 170 617 205 647 c 128,-1,30
 240 677 240 677 279.5 691.5 c 128,-1,31
 319 706 319 706 361 706 c 0,32,33
 406 706 406 706 448 684.5 c 128,-1,34
 490 663 490 663 527 637 c 128,-1,35
 564 611 564 611 594.5 589.5 c 128,-1,36
 625 568 625 568 646 568 c 0,37,38
 665 568 665 568 680 577 c 128,-1,39
 695 586 695 586 706.5 601.5 c 128,-1,40
 718 617 718 617 727 636.5 c 128,-1,41
 736 656 736 656 743 677 c 0,42,43
 745 683 745 683 750.5 691 c 128,-1,44
 756 699 756 699 774 691 c 2,45,-1
 908 627 l 2,0,1
EndSplineSet
EndChar

StartChar: slash
Encoding: 47 47 153
Width: 644
Flags: W
LayerCount: 2
Fore
SplineSet
205 -3 m 2,0,1
 202 -14 202 -14 193.5 -26.5 c 128,-1,2
 185 -39 185 -39 169 -39 c 0,3,4
 164 -39 164 -39 154 -37 c 2,5,-1
 90 -23 l 2,6,7
 75 -19 75 -19 62.5 -12 c 128,-1,8
 50 -5 50 -5 50 12 c 0,9,10
 50 17 50 17 51 22.5 c 128,-1,11
 52 28 52 28 54 35 c 2,12,-1
 439 1445 l 2,13,14
 446 1470 446 1470 455 1476.5 c 128,-1,15
 464 1483 464 1483 477 1483 c 0,16,17
 488 1483 488 1483 499 1479 c 2,18,-1
 561 1462 l 2,19,20
 578 1457 578 1457 586 1450 c 128,-1,21
 594 1443 594 1443 594 1429 c 0,22,23
 594 1420 594 1420 591 1410 c 2,24,-1
 205 -3 l 2,0,1
EndSplineSet
EndChar

StartChar: backslash
Encoding: 92 92 154
Width: 644
Flags: W
LayerCount: 2
Fore
SplineSet
53 1410 m 2,0,1
 50 1420 50 1420 50 1429 c 0,2,3
 50 1443 50 1443 58 1450 c 128,-1,4
 66 1457 66 1457 83 1462 c 2,5,-1
 145 1479 l 2,6,7
 156 1483 156 1483 167 1483 c 0,8,9
 180 1483 180 1483 189 1476.5 c 128,-1,10
 198 1470 198 1470 205 1445 c 2,11,-1
 590 35 l 2,12,13
 592 28 592 28 593 22.5 c 128,-1,14
 594 17 594 17 594 12 c 0,15,16
 594 -5 594 -5 581.5 -12 c 128,-1,17
 569 -19 569 -19 554 -23 c 2,18,-1
 490 -37 l 2,19,20
 480 -39 480 -39 475 -39 c 0,21,22
 459 -39 459 -39 450.5 -26.5 c 128,-1,23
 442 -14 442 -14 439 -3 c 2,24,-1
 53 1410 l 2,0,1
EndSplineSet
EndChar

StartChar: quotesingle
Encoding: 39 39 155
Width: 420
Flags: W
LayerCount: 2
Fore
SplineSet
297 907 m 2,0,1
 297 890 297 890 289.5 875 c 128,-1,2
 282 860 282 860 256 860 c 2,3,-1
 172 860 l 2,4,5
 163 860 163 860 154 861 c 128,-1,6
 145 862 145 862 138 866.5 c 128,-1,7
 131 871 131 871 127 880.5 c 128,-1,8
 123 890 123 890 123 907 c 2,9,-1
 123 1389 l 2,10,11
 123 1406 123 1406 127 1415.5 c 128,-1,12
 131 1425 131 1425 138 1429.5 c 128,-1,13
 145 1434 145 1434 154 1435 c 128,-1,14
 163 1436 163 1436 172 1436 c 2,15,-1
 256 1436 l 2,16,17
 282 1436 282 1436 289.5 1421 c 128,-1,18
 297 1406 297 1406 297 1389 c 2,19,-1
 297 907 l 2,0,1
EndSplineSet
EndChar

StartChar: quotedbl
Encoding: 34 34 156
Width: 709
Flags: W
LayerCount: 2
Fore
SplineSet
297 907 m 2,0,1
 297 890 297 890 289.5 875 c 128,-1,2
 282 860 282 860 256 860 c 2,3,-1
 172 860 l 2,4,5
 163 860 163 860 154 861 c 128,-1,6
 145 862 145 862 138 866.5 c 128,-1,7
 131 871 131 871 127 880.5 c 128,-1,8
 123 890 123 890 123 907 c 2,9,-1
 123 1389 l 2,10,11
 123 1406 123 1406 127 1415.5 c 128,-1,12
 131 1425 131 1425 138 1429.5 c 128,-1,13
 145 1434 145 1434 154 1435 c 128,-1,14
 163 1436 163 1436 172 1436 c 2,15,-1
 256 1436 l 2,16,17
 282 1436 282 1436 289.5 1421 c 128,-1,18
 297 1406 297 1406 297 1389 c 2,19,-1
 297 907 l 2,0,1
586 907 m 2,20,21
 586 890 586 890 578.5 875 c 128,-1,22
 571 860 571 860 545 860 c 2,23,-1
 461 860 l 2,24,25
 452 860 452 860 443 861 c 128,-1,26
 434 862 434 862 427 866.5 c 128,-1,27
 420 871 420 871 416 880.5 c 128,-1,28
 412 890 412 890 412 907 c 2,29,-1
 412 1389 l 2,30,31
 412 1406 412 1406 416 1415.5 c 128,-1,32
 420 1425 420 1425 427 1429.5 c 128,-1,33
 434 1434 434 1434 443 1435 c 128,-1,34
 452 1436 452 1436 461 1436 c 2,35,-1
 545 1436 l 2,36,37
 571 1436 571 1436 578.5 1421 c 128,-1,38
 586 1406 586 1406 586 1389 c 2,39,-1
 586 907 l 2,20,21
EndSplineSet
EndChar

